<?xml version="1.0" standalone="no"?>
<!DOCTYPE svg PUBLIC "-//W3C//DTD SVG 1.1//EN" "http://www.w3.org/Graphics/SVG/1.1/DTD/svg11.dtd" >
<!--
2013-9-30: Created.
-->
<svg>
<metadata>
Created by iconfont
</metadata>
<defs>

<font id="iconfont" horiz-adv-x="1024" >
  <font-face
    font-family="iconfont"
    font-weight="500"
    font-stretch="normal"
    units-per-em="1024"
    ascent="896"
    descent="-128"
  />
    <missing-glyph />
    
    <glyph glyph-name="x" unicode="x" horiz-adv-x="1001"
d="M281 543q-27 -1 -53 -1h-83q-18 0 -36.5 -6t-32.5 -18.5t-23 -32t-9 -45.5v-76h912v41q0 16 -0.5 30t-0.5 18q0 13 -5 29t-17 29.5t-31.5 22.5t-49.5 9h-133v-97h-438v97zM955 310v-52q0 -23 0.5 -52t0.5 -58t-10.5 -47.5t-26 -30t-33 -16t-31.5 -4.5q-14 -1 -29.5 -0.5
t-29.5 0.5h-32l-45 128h-439l-44 -128h-29h-34q-20 0 -45 1q-25 0 -41 9.5t-25.5 23t-13.5 29.5t-4 30v167h911zM163 247q-12 0 -21 -8.5t-9 -21.5t9 -21.5t21 -8.5q13 0 22 8.5t9 21.5t-9 21.5t-22 8.5zM316 123q-8 -26 -14 -48q-5 -19 -10.5 -37t-7.5 -25t-3 -15t1 -14.5
t9.5 -10.5t21.5 -4h37h67h81h80h64h36q23 0 34 12t2 38q-5 13 -9.5 30.5t-9.5 34.5q-5 19 -11 39h-368zM336 498v228q0 11 2.5 23t10 21.5t20.5 15.5t34 6h188q31 0 51.5 -14.5t20.5 -52.5v-227h-327z" />
    

    
    <glyph glyph-name="ic_grid_icon" unicode="&#58935;" d="M573.312 425.642667V851.541333A44.373333 44.373333 0 0 1 529.066667 896a44.373333 44.373333 0 0 1-44.330667-44.458667v-425.898666A188.16 188.16 0 0 1 341.333333 243.2c0-103.850667 84.224-188.330667 187.733334-188.330667s187.733333 84.48 187.733333 188.330667a188.288 188.288 0 0 1-143.488 182.442667z m-44.288-310.186667A127.701333 127.701333 0 0 0 401.664 243.2a127.658667 127.658667 0 0 0 127.36 127.786667 127.701333 127.701333 0 0 0 127.36-127.786667 127.701333 127.701333 0 0 0-127.36-127.744z m-48.512-188.586667c0 30.293333 22.912 54.826667 51.2 54.826667 28.245333 0 51.2-24.533333 51.2-54.826667S559.957333-128 531.712-128c-28.288 0-51.2 24.576-51.2 54.869333zM375.466667 524.8a188.16 188.16 0 0 0-143.445334-182.485333v-425.813334A44.373333 44.373333 0 0 0 187.733333-128a44.373333 44.373333 0 0 0-44.288 44.458667v425.813333A188.245333 188.245333 0 0 0 0 524.8c0 103.850667 84.224 188.330667 187.733333 188.330667S375.466667 628.650667 375.466667 524.8z m-187.733334-130.304A130.218667 130.218667 0 0 1 317.653333 524.8a130.218667 130.218667 0 0 1-129.834666 130.304A130.218667 130.218667 0 0 1 57.898667 524.8 130.261333 130.261333 0 0 1 187.733333 394.496zM136.533333 841.130667C136.533333 871.424 159.445333 896 187.733333 896c28.288 0 51.2-24.576 51.2-54.869333 0-30.293333-22.912-54.826667-51.2-54.826667-28.288 0-51.2 24.533333-51.2 54.826667zM1024 524.8a188.16 188.16 0 0 0-143.445333-182.485333v-425.813334A44.373333 44.373333 0 0 0 836.224-128a44.373333 44.373333 0 0 0-44.288 44.458667v425.813333A188.245333 188.245333 0 0 0 648.533333 524.8c0 103.850667 84.224 188.330667 187.733334 188.330667S1024 628.650667 1024 524.8z m-187.733333-120.192A120.106667 120.106667 0 0 1 956.074667 524.8a120.064 120.064 0 0 1-119.722667 120.149333A120.064 120.064 0 0 1 716.501333 524.8a120.106667 120.106667 0 0 1 119.808-120.192zM785.066667 841.130667C785.066667 871.424 807.978667 896 836.266667 896c28.288 0 51.2-24.576 51.2-54.869333 0-30.293333-22.912-54.826667-51.2-54.826667-28.288 0-51.2 24.533333-51.2 54.826667z"  horiz-adv-x="1024" />

    
    <glyph glyph-name="ic_grid_icon1" unicode="&#58936;" d="M816.768 768h-91.690667V832h-81.92C616.832 869.888 568.576 896 512 896 455.424 896 407.168 869.888 380.842667 832h-81.92V768H207.232C139.946667 768 85.333333 710.656 85.333333 640v-640c0-70.656 54.613333-128 121.898667-128h609.536C884.053333-128 938.666667-70.656 938.666667 0V640c0 70.656-54.613333 128-121.898667 128zM350.122667 771.072h72.149333c0 38.4 40.490667 69.632 90.197333 69.632 49.749333 0 90.24-31.232 90.24-69.632h71.68v-139.264h-324.266666V771.072z m365.226666-697.344H294.997333c-14.122667 0-25.344 11.776-25.344 26.624s11.221333 26.624 25.344 26.624h420.352c14.122667 0 25.344-11.776 25.344-26.624s-11.221333-26.624-25.344-26.624z m0 157.184H294.997333c-14.122667 0-25.344 11.776-25.344 26.624s11.221333 26.624 25.344 26.624h420.352c14.122667 0 25.344-11.776 25.344-26.624s-11.221333-26.624-25.344-26.624z m0 155.648H294.997333c-14.122667 0-25.344 11.776-25.344 26.624s11.221333 26.624 25.344 26.624h420.352c14.122667 0 25.344-11.776 25.344-26.624s-11.221333-26.624-25.344-26.624z"  horiz-adv-x="1024" />

    
    <glyph glyph-name="ic_grid_icon2" unicode="&#58937;" d="M712.682213 695.422065c-11.903355 6.826297-21.5455 25.299963-11.135397 40.275151l29.310412 31.699617c7.807577 8.191556 15.57249 16.724427 23.380067 24.915983 5.205051 6.058339 10.410103 13.183286 17.449722 17.449722l11.519376 4.266435c22.270794 0.341315 43.432314-15.999133 33.747505-39.165878-4.821072-11.050068-15.956469-18.175016-23.380067-27.049202l-30.035706-32.040931c-5.205051-6.058339-11.135397-14.249895-18.21768-18.900309-7.764913-4.99173-23.380067-6.740968-32.638232-1.407924zM502.560261 755.32282c-23.764046 11.391383-17.065742 45.565532-17.065742 79.057051 0 13.865916-2.986505 32.42491 1.450588 43.090999 5.205051 11.732698 13.012628 13.524601 25.598613 18.516331 43.090999 0.725294 34.174149-41.683076 34.174149-81.190269 0-16.724427 2.986505-37.757955-3.711799-48.424044-4.821072-7.850241-13.012628-12.457992-24.148025-14.249895a27.731831 27.731831 0 0 0-16.297784 3.199827z m-310.041873-315.076267c25.769271 83.366151 77.222484 141.986976 149.325245 181.835484 31.528959 17.53505 66.940374 30.206364 108.794107 38.696571l41.811069 3.62647c12.841971 0 25.726606 0.597301 38.611241 0.597301 28.286468-4.266436 54.055739-5.461038 78.502415-12.713978 111.353968-31.998267 187.893822-106.319574 221.385342-212.041848 14.164566-44.712245 10.28211-107.514176 10.282109-164.343098v-284.571252H182.236278v283.973951c0 57.383558-3.839792 120.228154 10.28211 164.940399z m243.869457-94.800198c0 40.104494 33.832834 72.529405 75.558574 72.529405 41.72574 0 75.558574-32.42491 75.558574-72.529405s-33.832834-72.572069-75.558574-72.572069c-41.72574 0-75.558574 32.467575-75.558574 72.529405z m-194.122818 50.045289c31.102315-3.711799 54.397053-28.286468 54.397053-58.066188 0-29.822385-24.105361-54.397053-54.354389-58.108852 6.95429-29.822385 19.412282-58.108852 36.478024-83.45148 24.830655 17.876365 59.004804 16.383113 80.763626-4.479757 22.52678-21.588164 23.294738-54.397053 4.650414-77.47847 26.409236-16.383113 55.122348-29.011762 86.949957-35.75273 3.114498 29.011762 28.755776 52.135843 60.583385 52.135842 31.059651 0 57.468887-22.356122 60.583385-52.135842a276.891668 276.891668 0 0 1 86.949957 35.75273c-18.644323 23.081416-17.876365 55.890306 4.693079 77.47847a62.58861 62.58861 0 0 0 80.720961 4.479757c16.297784 25.342627 29.523734 52.903801 36.520689 83.45148-31.059651 2.986505-54.354389 28.286468-54.354389 58.108852 0 29.77972 24.062697 54.354389 54.354389 58.066188a252.359664 252.359664 0 0 1-36.520689 83.45148c-24.830655-17.876365-59.004804-16.383113-80.763625 4.479757-22.52678 21.588164-23.294738 54.397053-4.650415 77.47847a269.553399 269.553399 0 0 1-86.949957 35.75273c-3.114498-29.011762-28.755776-52.135843-60.583385-52.135842-31.059651 0-57.468887 22.356122-60.583385 52.135842a276.891668 276.891668 0 0 1-86.949957-35.75273c18.644323-23.081416 17.876365-55.890306-4.693079-77.47847a62.58861 62.58861 0 0 0-80.720961-4.479757c-16.297784-25.299963-29.523734-52.903801-36.478024-83.45148zM168.071712 559.792078c-9.642144-2.133218-19.668268 1.407924-27.81716 3.541141L88.971997 572.975364c-12.969964 2.815847-27.091866 3.199827-36.008716 9.940795-12.628649 9.258165-14.505881 33.491519-1.109274 43.816293 5.205051 3.925121 10.410103 4.60775 17.065743 7.466262 11.135397 0 18.942974-2.474533 27.859824-4.266435l51.197227-9.59948c13.012628-2.858512 26.366572-2.858512 34.558128-10.324774 8.106228-7.508927 14.079237-23.50806 6.27166-35.966052a32.467575 32.467575 0 0 0-20.777541-14.249895z m-8.703528-592.906551h705.241799a42.664356 42.664356 0 0 0 42.664356-42.664356V-85.335644a42.664356 42.664356 0 0 0-42.664356-42.664356H159.325519a42.664356 42.664356 0 0 0-42.664355 42.664356v9.556815a42.664356 42.664356 0 0 0 42.664355 42.664356z m788.735943 652.337998c25.598613 0.383979 43.048335-25.598613 27.091866-46.63214-8.959515-11.391383-24.148025-11.050068-41.597747-14.249895l-51.965185-7.466262c-7.764913-1.407924-17.791036-4.266436-26.707887-2.474533-10.410103 2.133218-18.942974 8.191556-22.612108 16.383113a29.609063 29.609063 0 0 0 14.804531 38.824563c7.039619 3.157162 16.340448 2.815847 25.257299 4.607751l51.62387 7.807577 24.105361 3.242491zM256.770908 735.739881l-24.105361 27.731831c-10.751418 13.567265-28.585118 29.225084-11.519376 50.258611 5.546366 6.399653 12.628649 6.740968 21.545499 10.324774 10.026124 0 17.065742-2.517197 22.612109-6.783633 14.505881-16.724427 28.585118-33.832834 43.090999-50.557261 7.423598-8.532871 17.791036-17.065742 22.612109-27.774496 6.314325-14.932524-3.32782-29.907713-12.969964-35.624737-10.410103-6.058339-26.366572-4.266436-34.899443 1.791903-10.410103 7.466262-18.558995 21.033527-26.366572 30.633008z"  horiz-adv-x="1024" />

    
    <glyph glyph-name="ic_grid_icon3" unicode="&#58938;" d="M864.372364 285.277091h67.956363v262.516364a22.248727 22.248727 0 0 1-22.434909 22.016h-39.237818V613.934545h61.672727c24.762182 0 44.869818-19.735273 44.869818-44.078545v-617.053091a44.497455 44.497455 0 0 0-44.869818-44.078545H91.159273A44.497455 44.497455 0 0 0 46.289455-47.243636V569.809455c0 24.343273 20.107636 44.078545 44.869818 44.078545h61.672727v-44.078545h-39.237818a22.248727 22.248727 0 0 1-22.434909-22.016v-262.516364h67.956363V786.292364C159.115636 846.801455 208.546909 896 269.335273 896h484.817454a110.08 110.08 0 0 0 110.219637-109.707636V285.323636zM91.159273 238.266182v-263.447273c0-12.194909 10.053818-22.062545 22.434909-22.062545h796.299636a22.248727 22.248727 0 0 1 22.434909 22.016v263.447272h-293.236363a193.396364 193.396364 0 0 0-21.550546-37.841454c-27.089455-36.770909-63.581091-56.180364-105.472-56.180364-41.890909 0-78.429091 19.409455-105.751273 56.087273a195.211636 195.211636 0 0 0-21.876363 37.981091H91.205818z m457.262545 212.014545v35.002182c0 24.203636 12.986182 46.685091 33.885091 58.786909a22.248727 22.248727 0 0 1 2.420364 1.629091l1.442909 1.117091a112.267636 112.267636 0 0 1 52.503273 95.138909 113.058909 113.058909 0 0 1-112.826182 113.012364 113.058909 113.058909 0 0 1-112.826182-113.012364h45.149091C458.123636 679.377455 488.471273 709.818182 525.800727 709.818182c37.329455 0 67.723636-30.440727 67.723637-67.863273 0-23.412364-12.055273-44.869818-32.209455-57.437091a21.410909 21.410909 0 0 1-1.768727-1.210182l-1.210182-0.930909a113.431273 113.431273 0 0 1-55.109818-97.093818v-35.002182h45.149091z m-45.149091-90.298182h45.149091v56.459637h-45.149091v-56.413091z"  horiz-adv-x="1024" />

    
    <glyph glyph-name="ic_grid_icon4" unicode="&#58939;" d="M1347.368421-128H269.473684v42.576842h1037.204211V680.421053H1347.368421v-808.421053z m-107.789474 107.789474H107.789474v42.738526h1089.158737V788.210526H1239.578947v-808.421052zM21.072842 108.597895V873.903158H1110.770526v-765.305263H21.018947zM327.68 460.746105c64.673684 0 119.107368 56.589474 119.107368 124.389053 0 69.793684-54.433684 124.335158-119.107368 124.335158-66.883368 0-119.107368-56.805053-119.107368-124.335158 0-69.847579 54.433684-124.389053 119.107368-124.389053z m0 202.85979c20.48 0 40.205474-8.515368 54.703158-23.65979 14.551579-15.090526 22.635789-35.678316 22.635789-57.128421 0-45.810526-33.414737-80.788211-77.338947-80.78821-43.924211 0-77.392842 34.923789-77.392842 80.842105 0 45.810526 35.624421 80.734316 77.392842 80.734316z m206.470737-389.389474h1.994105v18.863158c0 92.213895-84.992 167.666526-189.33221 167.666526h-38.265264c-104.124632 0-189.332211-75.237053-189.33221-167.612631v-18.917053h414.989474zM161.684211 311.942737c10.617263 62.086737 72.272842 109.136842 144.815157 111.130947h38.265264c74.320842 0 133.928421-48.882526 144.599579-111.130947H161.684211z m481.118315 167.504842h369.825685v43.439158h-369.825685v-43.439158z m0-132.581053h369.825685v43.385263h-369.825685v-43.439157z m-523.641263-134.898526h888.93979v43.439158H119.161263v-43.439158zM646.736842 626.526316h377.263158V734.315789h-377.263158v-107.789473z m53.894737 26.947368v53.894737h45.271579v-53.894737H700.631579z m113.286737 0v53.894737h45.271579v-53.894737h-45.271579z m110.915368 0v53.894737H970.105263v-53.894737h-45.271579z"  horiz-adv-x="1347" />

    
    <glyph glyph-name="ic_navi_search" unicode="&#58940;" d="M476.253123-56.3196a474.716659 474.716659 0 0 0-336.756057 139.450055A474.297751 474.297751 0 0 0 0.000465 419.839967a474.344296 474.344296 0 0 0 139.496601 336.662967A474.483932 474.483932 0 0 0 476.253123 895.999535a474.437387 474.437387 0 0 0 336.756058-139.450055 474.577023 474.577023 0 0 0 139.543146-336.709513 474.530478 474.530478 0 0 0-139.496601-336.662966 474.670114 474.670114 0 0 0-336.802603-139.450055z m0 886.131558a407.458539 407.458539 0 0 1-289.977918-120.087163 407.225812 407.225812 0 0 1-120.087163-289.884828c0-109.47481 42.682143-212.433261 120.087163-289.884827a407.411993 407.411993 0 0 1 289.977918-120.087164 407.458539 407.458539 0 0 1 289.977919 120.087164 407.272357 407.272357 0 0 1 120.087163 289.884827 407.272357 407.272357 0 0 1-120.087163 289.884828 407.458539 407.458539 0 0 1-289.977919 120.087163zM1037.497704-127.999535a32.954152 32.954152 0 0 0-23.412342 9.681446l-117.99262 117.99262a33.047243 33.047243 0 1 0 46.778139 46.778139l118.039165-117.946074A33.047243 33.047243 0 0 0 1037.451159-127.999535z"  horiz-adv-x="1070" />

    
    <glyph glyph-name="ic_grid_icon5" unicode="&#58941;" d="M430.946462 732.16c22.331077 0 40.566154 18.313846 40.566153 40.96V855.04c0 22.646154-18.116923 40.96-40.566153 40.96-22.449231 0-40.526769-18.313846-40.52677-40.96v-81.92c0-22.646154 18.195692-40.96 40.566154-40.96z m202.515692 0c22.331077 0 40.526769 18.313846 40.526769 40.96V855.04c0 22.646154-18.116923 40.96-40.526769 40.96-22.331077 0-40.526769-18.313846-40.526769-40.96v-81.92c0.118154-22.646154 18.195692-40.96 40.526769-40.96zM228.430769 732.16c22.370462 0 40.566154 18.313846 40.566154 40.96V855.04C268.996923 877.686154 250.88 896 228.430769 896c-22.331077 0-40.487385-18.313846-40.487384-40.96v-81.92c0-22.646154 18.077538-40.96 40.487384-40.96z m587.382154-532.558769c2.284308 0 4.450462-0.196923 6.695385-0.275693V773.12c0 22.646154-18.077538 40.96-40.487385 40.96h-67.505231v-40.96c0-45.292308-36.273231-81.92-81.053538-81.92a81.447385 81.447385 0 0 0-81.053539 81.92V814.08h-40.487384v-40.96c0-45.292308-36.273231-81.92-81.053539-81.92a81.447385 81.447385 0 0 0-81.053538 81.92V814.08H309.287385v-40.96c0-45.292308-36.233846-81.92-81.014154-81.92a81.447385 81.447385 0 0 0-81.053539 81.92V814.08h-67.347692C57.619692 814.08 39.384615 795.766154 39.384615 773.12v-709.986462c0-22.646154 18.116923-40.96 40.52677-40.96h582.104615a155.175385 155.175385 0 0 0-1.457231 20.440616c0 86.764308 69.474462 156.987077 155.254154 156.987077z m26.978462-40.96c-78.257231 0-141.784615-64.196923-141.784616-143.320616S764.376615-128 842.752-128 984.615385-63.803077 984.615385 15.320615s-63.566769 143.36-141.824 143.36z m-191.645539 208.147692l-89.127384-80.699077a18.038154 18.038154 0 0 0-15.320616-6.104615 17.565538 17.565538 0 0 0-4.214154 0.787692l-0.039384 0.039385-0.393846 0.157538a17.408 17.408 0 0 0-7.364924 4.765539l-89.560615 81.053538a14.611692 14.611692 0 0 0 0.078769 22.055385 18.589538 18.589538 0 0 0 24.418462 0.078769l62.148923-56.280615V570.092308c0 8.073846 7.246769 14.611692 16.147692 14.611692 8.940308 0 16.147692-6.537846 16.147693-14.611692v-237.883077l62.621538 56.713846a18.589538 18.589538 0 0 0 24.300308-0.157539c6.695385-6.065231 6.774154-15.832615 0.157538-21.976615zM173.686154 224.413538h469.188923c8.900923 0 16.147692-8.822154 16.147692-19.692307s-7.246769-19.692308-16.147692-19.692308H173.686154c-5.789538 0-11.106462 3.741538-13.981539 9.846154a23.512615 23.512615 0 0 0 0 19.692308c2.875077 6.104615 8.192 9.846154 13.981539 9.846153z m0 169.55077h218.427077c8.940308 0 16.147692-8.822154 16.147692-19.692308a22.055385 22.055385 0 0 0-4.726154-13.942154 14.808615 14.808615 0 0 0-11.421538-5.750154H173.686154c-8.900923 0-16.147692 8.822154-16.147692 19.692308s7.246769 19.692308 16.147692 19.692308zM173.528615 563.987692H392.270769c8.782769-0.078769 15.911385-8.861538 15.911385-19.692307s-7.089231-19.613538-15.911385-19.692308H173.528615c-8.822154 0-15.990154 8.822154-15.990153 19.692308s7.168 19.692308 15.990153 19.692307zM934.596923-59.746462h-183.611077a9.373538 9.373538 0 0 0-9.491692 9.255385c0 5.12 0 33.713231 25.284923 46.001231 16.029538 7.719385 9.806769 1.496615 29.459692 9.334154 19.692308 7.955692 24.300308 10.673231 24.300308 10.67323l0.196923 18.313847s-7.286154 5.435077-9.688615 22.646153c-4.529231-1.299692-6.104615 5.238154-6.419693 9.452308-0.196923 4.056615-2.638769 16.620308 2.993231 15.517539a106.220308 106.220308 0 0 0-1.575385 20.046769c1.378462 14.060308 15.281231 28.868923 36.824616 29.892923 25.324308-1.102769 35.288615-15.832615 36.706461-29.932308 0.393846-4.017231-0.512-11.539692-1.693538-20.007384 5.632 1.102769 3.150769-11.460923 2.875077-15.478154-0.315077-4.135385-1.811692-10.673231-6.459077-9.452308-2.244923-17.250462-9.649231-22.685538-9.649231-22.685538l0.196923-18.195693s4.647385-2.638769 24.300308-10.476307c19.692308-7.955692 13.430154-2.008615 29.459692-9.767385 25.284923-12.288 25.284923-46.001231 25.284923-46.001231a9.058462 9.058462 0 0 0-9.294769-9.137231z"  horiz-adv-x="1024" />

    
    <glyph glyph-name="ic_grid_icon6" unicode="&#58942;" d="M271.164833 732.166553h-9.830006C253.552738 732.166553 245.770649 738.556058 245.770649 749.205232V878.961322C245.770649 887.480661 251.627695 896 261.334827 896h9.830006c7.782089 0 15.564177-6.389504 15.564178-17.038678v-129.75609C286.729011 740.685893 278.946922 732.166553 271.164833 732.166553z m604.053918-3.440502h3.645294v-56.727331H44.624135V728.726051a111.816327 111.816327 0 0 0 111.120035 111.693452h54.638455v-98.873485c0-5.48842 3.645294-10.976841 10.935882-10.976841h85.602976c5.447462 0 10.935883 3.686253 10.935883 10.976841V840.419503h285.971281v-98.873485c0-5.48842 3.645294-10.976841 10.894924-10.976841h85.602976c5.48842 0 10.935883 3.686253 10.935883 10.976841V840.419503h52.836286c61.929043 0 111.120035-51.279869 111.120035-111.693452z m-224.042238 25.639934c-7.290588 0-12.73805 7.331547-14.581177 14.622135V880.681573c0 9.133715 7.290588 14.622135 14.581177 14.622135h9.092756c9.133715 0 14.581177-7.331547 14.581177-14.622135v-111.693453a14.417343 14.417343 0 0 0-14.581177-14.622135h-9.092756z m216.75165-386.23735a275.117315 275.117315 0 0 0 114.765329-223.345946c0-150.112396-120.212791-272.74173-271.431062-272.741731-65.533379 0-123.858086 21.953682-171.205952 60.413584l1.843126-1.843126H152.098876C90.128875-69.388584 40.978841-18.108716 40.978841 42.263909V633.538818h834.23991v-270.898604c-1.843126 1.802168-5.48842 3.645294-7.290588 5.488421z m10.935882-391.725771c21.830807 21.953682 38.25511 47.552658 50.993161 75.035718 12.73805 29.285229 18.226471 60.413583 18.226471 93.385065 0 32.930523-5.48842 64.017919-18.226471 93.344106-12.73805 27.442102-29.162354 53.082037-50.993161 75.035719a236.575497 236.575497 0 0 1-74.708051 51.23891c-29.121395 12.819967-60.085917 18.308388-92.893564 18.308388-32.766689 0-63.731211-5.48842-92.893565-18.308388-27.319227-12.819967-52.836287-29.285229-74.667093-51.23891a237.722331 237.722331 0 0 1-50.99316-75.035719c-12.73805-29.326187-18.226471-60.413583-18.226471-93.385064 0-32.930523 5.48842-64.058878 18.226471-93.344107 12.73805-27.442102 29.121395-53.082037 50.99316-75.035718a236.370705 236.370705 0 0 1 74.667093-51.279869c29.162354-12.819967 60.126875-18.308388 92.893565-18.308388 32.766689 0 63.772169 5.48842 92.893564 18.308388 27.360186 12.819967 52.836287 29.285229 74.708051 51.279869z m-66.147754 65.942962a23.469141 23.469141 0 0 0-32.357105 0l-77.575137 77.616096a23.428183 23.428183 0 0 0 0 32.357105c8.601256 8.601256 23.714891 8.601256 32.357105 0l77.575137-77.657053c8.601256-8.601256 8.601256-23.714891 0-32.357106zM163.853926 503.536979c0-7.290588 5.734171-14.622135 15.195552-14.622136h497.644094a14.74501 14.74501 0 0 1 15.236511 14.663094v9.133715c0 9.174673-7.618255 14.663093-15.195552 14.663093H179.090436A14.74501 14.74501 0 0 1 163.853926 512.711652v-9.133715z m0-146.50806c0-9.133715 5.734171-14.622135 15.195552-14.622135h153.880565a14.74501 14.74501 0 0 1 15.154594 14.622135v9.174673c0 9.174673-7.577297 14.663093-15.154594 14.663093H179.00852a14.74501 14.74501 0 0 1-15.195553-14.663093v-9.174673z m0-166.659574c0-7.331547 5.734171-14.622135 15.195552-14.622135h144.378225a14.74501 14.74501 0 0 1 15.154594 14.622135v9.174673c0 9.133715-7.577297 14.663093-15.154594 14.663094H179.00852a14.74501 14.74501 0 0 1-15.195553-14.663094v-9.174673zM716.791808 158.74949c-11.181633 0-20.479181 7.864005-20.479181 17.325387v129.182673c0 9.420423 9.297548 17.325387 20.479181 17.325387s20.479181-7.864005 20.479181-17.325387v-129.182673a20.602056 20.602056 0 0 0-20.479181-17.325387z"  horiz-adv-x="1024" />

    
    <glyph glyph-name="ic_grid_icon7" unicode="&#58943;" d="M707.747417 594.841376L662.541387 640.009481l45.130181 45.168105 45.206029-45.168105-45.168105-45.168105zM60.22414 414.131032c0-225.688826 177.335062-409.964075 400.255398-421.113884 11.377356-21.692826 25.106033-41.906596 40.882634-60.337914-6.447169-0.265472-12.970186-0.379245-19.493204-0.379245C215.714677-67.737936 0 147.976742 0 414.093108S215.714677 896 481.868968 896c266.116366 0 481.868968-215.714677 481.868968-481.868968 0-11.756602-0.455094-23.437354-1.25151-34.966408a322.737676 322.737676 0 0 1-59.048479 42.816784c-4.171697 229.215807-191.32921 413.756528-421.568979 413.756528-232.856561 0-421.644828-188.750343-421.644828-421.606904z m451.756898-0.037924a30.11207 30.11207 0 0 0-30.11207-30.074146H210.822414a30.074145 30.074145 0 1 0 0 60.148291h240.896559V745.43965a30.11207 30.11207 0 0 0 60.262065 0v-331.384467zM301.158624 640.009481L256.028443 594.879301 210.784489 640.009481 255.990519 685.177586l45.168105-45.13018zM255.990519 173.196548l-45.168105 45.168105 45.13018 45.20603 45.20603-45.20603-45.168105-45.13018z m496.925003 240.934484A271.084478 271.084478 0 1 0 752.877597-127.962075a271.084478 271.084478 0 0 0 0 542.131032z m-42.399615-311.77749l-78.731306 77.593571-29.467353-29.050183 93.44602-92.156587a21.010185 21.010185 0 0 1 29.467353 0l178.24525 175.780156-29.429428 29.050184-163.530536-161.217141z"  horiz-adv-x="1028" />

    
    <glyph glyph-name="ic_navi_message" unicode="&#58944;" d="M1027.723636 612.258909a414.813091 414.813091 0 0 0 0-367.243636 466.664727 466.664727 0 0 0-115.758545-148.573091c-100.770909-87.086545-234.542545-135.168-376.692364-135.168-37.608727 0-75.357091 3.444364-111.988363 10.24l-166.306909-94.533818a39.098182 39.098182 0 0 0-18.944-4.980364 39.191273 39.191273 0 0 0-18.944 4.980364 37.329455 37.329455 0 0 0-18.990546 32.349091v154.763636c-57.949091 40.773818-106.263273 92.253091-140.381091 149.829818A422.586182 422.586182 0 0 0 0 428.683636c0 63.627636 14.382545 125.346909 42.821818 183.528728a466.571636 466.571636 0 0 0 115.758546 148.573091C259.351273 847.918545 393.169455 896 535.272727 896c141.963636 0 275.781818-47.941818 376.692364-135.168 49.617455-42.821818 88.436364-92.858182 115.805091-148.573091zM232.727273 407.272727s0-38.539636 0 0a69.818182 69.818182 0 1 0 139.636363 0 69.818182 69.818182 0 0 0-139.636363 0z m256 0s0-38.539636 0 0a69.818182 69.818182 0 1 0 139.636363 0 69.818182 69.818182 0 0 0-139.636363 0z m256 0a69.818182 69.818182 0 1 0 139.636363 0 69.818182 69.818182 0 0 0-139.636363 0z m-209.454546-382.789818c261.352727 0 474.158545 181.853091 474.158546 405.224727 0 223.418182-212.805818 405.038545-474.158546 405.038546-261.538909 0-474.158545-181.666909-474.158545-405.038546 0-128.232727 68.887273-246.178909 188.974545-323.677091a38.772364 38.772364 0 0 0 17.640728-32.256V-39.563636l125.765818 71.540363a39.610182 39.610182 0 0 0 27.694545 4.328728 552.494545 552.494545 0 0 1 114.082909-11.869091z"  horiz-adv-x="1070" />

    
    <glyph glyph-name="ic_tab_btn_admin_selected" unicode="&#58945;" d="M568.595692 422.439385A173.804308 173.804308 0 0 0 701.046154 254.03076899999996c0-95.862154-77.745231-173.843692-173.292308-173.843692S354.461538 158.16861500000005 354.461538 254.03076899999996a173.686154 173.686154 0 0 0 132.332308 168.408616V815.576615A40.96 40.96 0 0 0 527.753846 856.6153850000001a40.96 40.96 0 0 0 40.841846-41.03877v-393.13723z m-85.661538-460.406154c0 27.963077 21.149538 50.609231 47.261538 50.609231 26.072615 0 47.261538-22.646154 47.261539-50.609231S556.268308-88.61538499999995 530.195692-88.61538499999995c-26.112 0-47.261538 22.685538-47.261538 50.648616zM385.969231 513.969231a173.686154 173.686154 0 0 0-132.411077-168.448v-393.058462A40.96 40.96 0 0 0 212.676923-88.61538499999995a40.96 40.96 0 0 0-40.881231 41.03877v393.058461A173.764923 173.764923 0 0 0 39.384615 513.969231c0 95.862154 77.745231 173.843692 173.292308 173.843692S385.969231 609.831385 385.969231 513.969231zM165.415385 805.966769C165.415385 833.929846 186.564923 856.6153850000001 212.676923 856.6153850000001c26.112 0 47.261538-22.685538 47.261539-50.648616 0-27.963077-21.149538-50.609231-47.261539-50.609231-26.112 0-47.261538 22.646154-47.261538 50.609231zM984.615385 513.969231a173.686154 173.686154 0 0 0-132.411077-168.448v-393.058462A40.96 40.96 0 0 0 811.283692-88.61538499999995a40.96 40.96 0 0 0-40.88123 41.03877v393.058461A173.764923 173.764923 0 0 0 638.030769 513.969231c0 95.862154 77.745231 173.843692 173.292308 173.843692S984.615385 609.831385 984.615385 513.969231z m-220.553847 291.997538c0 27.963077 21.149538 50.648615 47.261539 50.648616 26.112 0 47.261538-22.685538 47.261538-50.648616 0-27.963077-21.149538-50.609231-47.261538-50.609231-26.112 0-47.261538 22.646154-47.261539 50.609231z"  horiz-adv-x="1024" />

    
    <glyph glyph-name="ic_tab_btn_function_selected" unicode="&#58946;" d="M470.134154 741.730462A114.924308 114.924308 0 0 1 355.249231 856.6153850000001H154.190769A114.924308 114.924308 0 0 1 39.384615 741.730462v-201.176616a114.924308 114.924308 0 0 1 114.806154-114.884923h268.524308c26.387692 0 47.773538 21.464615 47.773538 47.773539V711.246769h-0.393846v30.483693zM869.809231 856.6153850000001h-201.097846a114.924308 114.924308 0 0 1-114.845539-114.884923v-30.483693h-0.354461v-237.804307c0-26.387692 21.464615-47.773538 47.773538-47.773539h268.524308A114.924308 114.924308 0 0 1 984.615385 540.553846V741.730462A115.081846 115.081846 0 0 1 869.809231 856.6153850000001zM422.715077 342.33107700000005H154.190769A114.924308 114.924308 0 0 1 39.384615 227.44615399999998v-201.176616A114.924308 114.924308 0 0 1 154.190769-88.61538499999995h201.097846a114.924308 114.924308 0 0 1 114.845539 114.884923v30.483693h0.354461v237.686154c0 26.387692-21.464615 47.891692-47.773538 47.891692z m447.094154 0h-268.524308c-26.387692 0-47.773538-21.464615-47.773538-47.773539v-237.568h0.393846v-30.483692a114.924308 114.924308 0 0 1 114.806154-114.884923h201.097846A114.924308 114.924308 0 0 1 984.615385 26.50584600000002v200.940308a115.160615 115.160615 0 0 1-114.806154 114.884923z"  horiz-adv-x="1024" />

    
    <glyph glyph-name="ic_tab_btn_me_selected" unicode="&#58947;" d="M484.040267 856.620095C320.495522 856.620095 187.509583 726.6664089999999 187.509583 566.980894c0-105.735045 60.408774-203.751628 155.235586-254.197286C163.330322 253.83189000000004 39.441141 86.93985299999997 39.441141-98.85453900000005c0-16.027621 7.364042-29.02299 23.824842-29.022989 18.114756 0 737.782519-0.275659 859.269526 0 11.105133 0 22.840345 11.223273 22.525306 21.422668-10.081256 338.549043-310.78621 411.204967-318.97723 413.095203-3.622951 0.866358-2.441554 4.922488 1.811475 7.245902 90.96758 49.500541 152.597132 144.406111 152.597132 253.094649C780.492192 726.6664089999999 647.506253 856.620095 484.040267 856.620095z"  horiz-adv-x="1024" />

    
    <glyph glyph-name="ic_tab_btn_admin" unicode="&#58948;" d="M568.595692 422.439385V815.576615A40.96 40.96 0 0 1 527.753846 856.6153850000001a40.96 40.96 0 0 1-40.920615-41.03877v-393.13723A173.686154 173.686154 0 0 1 354.461538 254.03076899999996c0-95.862154 77.745231-173.843692 173.292308-173.843692s173.292308 77.981538 173.292308 173.843692a173.804308 173.804308 0 0 1-132.450462 168.408616zM527.753846 120.91076899999996a133.041231 133.041231 0 0 0-132.686769 133.12c0 73.412923 59.470769 133.12 132.726154 133.12a133.041231 133.041231 0 0 0 132.647384-133.12 133.041231 133.041231 0 0 0-132.686769-133.12z m-44.780308-158.877538c0 27.963077 21.149538 50.609231 47.261539 50.609231 26.072615 0 47.261538-22.646154 47.261538-50.609231S556.268308-88.61538499999995 530.195692-88.61538499999995c-26.112 0-47.261538 22.685538-47.261538 50.648616zM385.969231 513.969231a173.686154 173.686154 0 0 0-132.411077-168.448v-393.058462A40.96 40.96 0 0 0 212.676923-88.61538499999995a40.96 40.96 0 0 0-40.881231 41.03877v393.058461A173.764923 173.764923 0 0 0 39.384615 513.969231c0 95.862154 77.745231 173.843692 173.292308 173.843692S385.969231 609.831385 385.969231 513.969231z m-173.252923-137.846154a137.767385 137.767385 0 0 1 137.334154 137.846154c0 76.012308-61.558154 137.846154-137.334154 137.846154a137.728 137.728 0 0 1-137.412923-137.846154c0-76.012308 61.676308-137.846154 137.412923-137.846154zM165.415385 805.966769C165.415385 833.929846 186.564923 856.6153850000001 212.676923 856.6153850000001c26.112 0 47.261538-22.685538 47.261539-50.648616 0-27.963077-21.149538-50.609231-47.261539-50.609231-26.112 0-47.261538 22.646154-47.261538 50.609231zM984.615385 513.969231a173.686154 173.686154 0 0 0-132.411077-168.448v-393.058462A40.96 40.96 0 0 0 811.283692-88.61538499999995a40.96 40.96 0 0 0-40.88123 41.03877v393.058461A173.764923 173.764923 0 0 0 638.030769 513.969231c0 95.862154 77.745231 173.843692 173.292308 173.843692S984.615385 609.831385 984.615385 513.969231z m-173.292308-127.054769A126.936615 126.936615 0 0 1 937.984 513.969231 126.936615 126.936615 0 0 1 811.323077 640.984615 126.936615 126.936615 0 0 1 684.740923 513.969231a126.936615 126.936615 0 0 1 126.621539-127.054769z m-47.261539 419.052307c0 27.963077 21.149538 50.648615 47.261539 50.648616 26.112 0 47.261538-22.685538 47.261538-50.648616 0-27.963077-21.149538-50.609231-47.261538-50.609231-26.112 0-47.261538 22.646154-47.261539 50.609231z"  horiz-adv-x="1024" />

    
    <glyph glyph-name="ic_tab_btn_me" unicode="&#58949;" d="M749.883077 244.972308c-14.178462 9.452308-36.036923 6.892308-46.828308-5.435077-11.145846-12.603077-1.654154-30.759385 12.918154-40.448 107.598769-71.68 169.314462-180.342154 169.314462-298.180923 0-15.950769 14.966154-28.908308 33.358769-28.908308 18.392615 0 26.584615 12.957538 26.584615 28.908308 0 136.034462-71.207385 261.435077-195.347692 344.024615zM484.036923 856.6153850000001C320.472615 856.6153850000001 187.470769 726.646154 187.470769 566.941538c0-105.747692 60.416-203.776 155.254154-254.227692C163.288615 253.75507700000003 39.384615 86.843077 39.384615-98.97353799999996c0-16.029538 7.364923-29.026462 23.827693-29.026462 19.771077 0 29.853538 12.996923 29.853538 29.026462 0 207.556923 178.688 376.359385 390.931692 376.359384 163.524923 0 296.566154 129.890462 296.566154 289.555692C780.524308 726.646154 647.483077 856.6153850000001 483.958154 856.6153850000001z m-3.150769-526.375385c-131.072 0-237.686154 107.008-237.686154 238.552615 0 131.544615 106.614154 238.592 237.686154 238.592 131.150769 0 237.883077-107.008 237.883077-238.592 0-131.544615-106.732308-238.552615-237.883077-238.552615z"  horiz-adv-x="1024" />

    
    <glyph glyph-name="ic_tab_btn_work" unicode="&#58950;" d="M821.444923 768h-92.868923V832.039385h-83.377231C618.417231 870.163692 569.107692 896 511.921231 896c-57.107692 0-106.456615-25.915077-133.277539-63.960615H295.424V768H202.555077C134.183385 768 78.769231 710.695385 78.769231 640v-640C78.769231-70.69538499999999 134.183385-128 202.555077-128h618.889846C889.816615-128 945.230769-70.69538499999999 945.230769 0V640.039385c0 70.656-55.414154 127.960615-123.785846 127.960615zM347.451077 771.268923h72.231385c0 38.4 40.408615 69.513846 90.230153 69.513846 49.860923 0 90.269538-31.113846 90.269539-69.513846h72.192V632.123077h-324.923077V771.268923zM888.516923-8.861537999999996c0-36.352-28.278154-65.772308-63.172923-65.772308H193.536c-34.894769 0-63.172923 29.420308-63.172923 65.772308V648.940308c0 36.312615 28.278154 65.772308 63.172923 65.772307h97.634462v-131.544615h433.624615l0.669538 131.544615h99.879385c34.894769 0 63.172923-29.459692 63.172923-65.772307v-657.801846zM744.487385 439.532308c14.887385 0 26.978462-11.815385 27.05723-26.387693a26.702769 26.702769 0 0 0-27.05723-26.466461H293.139692c-14.966154 0-27.057231 11.815385-27.05723 26.427077 0 14.611692 12.091077 26.427077 27.05723 26.427077h451.347693z m-8.034462-164.194462c14.887385 0 26.939077-12.209231 27.017846-27.332923a27.175385 27.175385 0 0 0-27.017846-27.332923H285.105231a27.175385 27.175385 0 0 0-27.057231 27.332923 27.175385 27.175385 0 0 0 27.017846 27.332923h451.347692z m0-162.500923c14.887385 0 26.939077-12.209231 27.017846-27.332923a27.175385 27.175385 0 0 0-27.017846-27.372308H285.105231a27.175385 27.175385 0 0 0-27.057231 27.372308 27.175385 27.175385 0 0 0 27.017846 27.332923h451.347692z"  horiz-adv-x="1024" />

    
    <glyph glyph-name="ic_tab_btn_repairs_selected" unicode="&#58951;" d="M983.118769 790.055385c85.385846-124.652308 14.217846-267.460923-9.452307-315.864616-7.128615-13.351385-20.204308-23.04-34.422154-25.442461l-285.814154-49.624616-5.907692-7.246769 45.056-46.001231c15.399385 2.441846 30.838154 4.844308 47.419076 4.844308 58.131692 0 111.458462-21.779692 153.009231-62.936615a216.379077 216.379077 0 0 0 65.220923-154.899693 226.264615 226.264615 0 0 0-62.857846-156.16A214.843077 214.843077 0 0 0 741.179077-88.61538499999995a213.858462 213.858462 0 0 0-152.969846 62.936616 216.379077 216.379077 0 0 0-65.220923 154.899692c0 18.156308 2.363077 35.131077 5.907692 52.066462l-16.580923 16.935384-179.081846-257.772307c-8.270769-12.130462-21.346462-19.377231-35.564308-20.598154h-18.983385c-102.006154 0-170.771692 58.092308-192.118153 164.627692-3.544615 14.493538 0 30.247385 9.491692 41.117538l220.553846 267.460924-26.072615 25.442461a233.353846 233.353846 0 0 0-98.422154-21.779692c-10.673231 0-20.164923 1.181538-30.838154 2.402461a43.716923 43.716923 0 0 0-26.072615 12.091077C68.765538 473.009231 27.293538 539.569231 2.363077 619.401846c-4.726154 14.532923-2.363077 31.468308 7.089231 43.559385l10.712615 14.532923 8.270769 12.091077c9.531077 13.312 23.748923 19.377231 37.96677 19.377231 9.491692 0 20.164923-3.623385 28.475076-9.688616l24.891077-19.337846L188.573538 626.609231c15.399385 12.130462 26.072615 26.624 34.38277 44.780307L129.260308 742.8332310000001c-10.633846 8.507077-17.801846 19.377231-18.983385 32.689231-1.181538 13.312 1.181538 26.624 9.491692 36.312615l8.310154 9.688615 11.854769 15.753846c9.491692 12.091077 23.709538 19.337846 39.148308 19.337847 83.022769-2.402462 157.735385-25.403077 233.629539-72.625231 8.270769-4.844308 15.399385-13.312 18.944-21.779692 22.567385-49.624615 24.930462-106.496 9.491692-162.185847l23.748923-19.337846c8.270769 52.027077 23.709538 95.586462 47.419077 134.301539 9.452308 14.572308 24.891077 23.04 40.329846 23.04 4.726154 0 10.633846-1.220923 16.580923-3.66277l59.313231-24.182153c23.709538 41.156923 79.438769 121.028923 155.332923 139.18523 4.765538 1.181538 9.491692 0 14.257231-1.220923l49.782154-19.37723c7.128615-2.402462 11.894154-8.467692 14.25723-14.532924 3.544615 6.065231 9.452308 9.688615 16.580923 13.351385 5.947077 2.363077 11.854769 3.623385 18.983385 3.623385 4.726154 0 10.673231-1.220923 16.620308-3.623385l47.419077-19.377231c8.270769-3.623385 15.438769-9.688615 21.346461-18.156307z m-345.009231-694.665847l24.65477-18.313846 10.555077-35.446154 30.562461-2.441846 28.16-23.236923 27.017846 14.690462 35.249231-3.662769 14.099692 26.860307 31.704616 15.911385-2.363077 30.523077 18.786461 31.783384-17.604923 24.418462-1.181538 36.667077-28.16 11.027692-19.968 30.523077-29.380923-6.104615-32.886154 14.651077-23.473231-21.976616-35.249231-6.104615-5.868307-30.562462-25.836308-24.418461 10.555077-29.341539-9.373539-35.446154z m-365.174153 37.888a50.018462 50.018462 0 0 1-20.04677 3.938462c-21.267692 0-42.535385-14.375385-51.318153-36.627692-11.224615-28.711385 2.520615-62.660923 31.310769-73.137231 6.262154-2.599385 12.524308-3.899077 20.007384-3.899077 21.267692 0 42.535385 14.375385 51.318154 36.588308 10.043077 28.750769-3.741538 61.361231-31.271384 73.13723z m388.804923 436.499693l-60.49477 41.156923c-7.089231 3.623385-15.399385 1.181538-18.944-4.844308L531.298462 524.9969229999999c-3.544615-6.065231-1.181538-14.532923 5.907692-18.116923l61.676308-41.196308c7.089231-3.623385 15.438769-1.181538 18.983384 4.844308l49.821539 81.132308c3.544615 6.025846 1.181538 14.493538-5.947077 18.116923z m-35.564308-43.559385l-1.181538-2.441846-9.491693-15.753846-11.854769-7.246769-4.726154 14.572307-13.075692-6.06523-3.544616 14.493538-15.438769-6.025846-2.363077 12.091077 10.633846 16.935384 1.220924 2.441847 9.452307 15.753846 11.894154 7.246769 4.726154-14.572308 13.075692 6.065231 2.363077-14.493538 15.399385 6.025846 2.363077-12.091077-9.452308-16.935385z m168.408615 283.017846c-55.768615-16.462769-93.735385-64-125.991384-119.414154l103.896615-44.701538 61.833846 148.401231-39.739077 15.753846z"  horiz-adv-x="1024" />

    
    <glyph glyph-name="ic_tab_btn_repairs" unicode="&#58952;" d="M638.109538 95.38953800000002l24.65477-18.313846 10.555077-35.446154 30.562461-2.441846 28.16-23.236923 27.017846 14.690462 35.249231-3.662769 14.099692 26.860307 31.704616 15.911385-2.363077 30.523077 18.786461 31.783384-17.604923 24.418462-1.181538 36.667077-28.16 11.027692-19.968 30.523077-29.380923-6.104615-32.886154 14.651077-23.473231-21.976616-35.249231-6.104615-5.868307-30.562462-25.836308-24.418461 10.555077-29.341539-9.373539-35.446154z m345.009231 694.665847c85.385846-124.652308 14.217846-267.460923-9.452307-315.864616-7.128615-13.351385-20.204308-23.04-34.422154-25.442461l-285.814154-49.624616-5.907692-7.246769 45.056-46.001231c15.399385 2.441846 30.838154 4.844308 47.419076 4.844308 58.131692 0 111.458462-21.779692 153.009231-62.936615a216.379077 216.379077 0 0 0 65.220923-154.899693 226.264615 226.264615 0 0 0-62.857846-156.16A214.843077 214.843077 0 0 0 741.179077-88.61538499999995a213.858462 213.858462 0 0 0-152.969846 62.936616 216.379077 216.379077 0 0 0-65.220923 154.899692c0 18.156308 2.363077 35.131077 5.907692 52.066462l-16.580923 16.935384-179.081846-257.772307c-8.270769-12.130462-21.346462-19.377231-35.564308-20.598154h-18.983385c-102.006154 0-170.771692 58.092308-192.118153 164.627692-3.544615 14.493538 0 30.247385 9.491692 41.117538l220.553846 267.460924-26.072615 25.442461a233.353846 233.353846 0 0 0-98.422154-21.779692c-10.673231 0-20.164923 1.181538-30.838154 2.402461a43.716923 43.716923 0 0 0-26.072615 12.091077C68.765538 473.009231 27.293538 539.569231 2.363077 619.401846c-4.726154 14.532923-2.363077 31.468308 7.089231 43.559385l10.712615 14.532923 8.270769 12.091077c9.531077 13.312 23.748923 19.377231 37.96677 19.377231 9.491692 0 20.164923-3.623385 28.475076-9.688616l24.891077-19.337846L188.573538 626.609231c15.399385 12.130462 26.072615 26.624 34.38277 44.780307L129.260308 742.8332310000001c-10.633846 8.507077-17.801846 19.377231-18.983385 32.689231-1.181538 13.312 1.181538 26.624 9.491692 36.312615l8.310154 9.688615 11.854769 15.753846c9.491692 12.091077 23.709538 19.337846 39.148308 19.337847 83.022769-2.402462 157.735385-25.403077 233.629539-72.625231 8.270769-4.844308 15.399385-13.312 18.944-21.779692 22.567385-49.624615 24.930462-106.496 9.491692-162.185847l23.748923-19.337846c8.270769 52.027077 23.709538 95.586462 47.419077 134.301539 9.452308 14.572308 24.891077 23.04 40.329846 23.04 4.726154 0 10.633846-1.220923 16.580923-3.66277l59.313231-24.182153c23.709538 41.156923 79.438769 121.028923 155.332923 139.18523 4.765538 1.181538 9.491692 0 14.257231-1.220923l49.782154-19.37723c7.128615-2.402462 11.894154-8.467692 14.25723-14.532924 3.544615 6.065231 9.452308 9.688615 16.580923 13.351385 5.947077 2.363077 11.854769 3.623385 18.983385 3.623385 4.726154 0 10.673231-1.220923 16.620308-3.623385l47.419077-19.377231c8.270769-3.623385 15.438769-9.688615 21.346461-18.156307z m-188.534154 19.180307c-55.768615-16.462769-93.735385-64-125.991384-119.414154l103.896615-44.701538 61.833846 148.401231-39.739077 15.753846z m-108.307692-651.539692l8.192 7.364923 2.363077 10.988308 1.181538 6.104615 11.736616 2.441846 10.555077 2.441846 12.918154 13.469539 11.736615-4.923077 10.594462-4.883692 10.555076 2.441846 7.089231 1.220923 7.010462-9.767385 5.907692-9.767384 10.515692-3.66277 5.907693-2.441846v-24.418461l10.555077-14.690462-5.868308-9.767384-5.907692-9.767385 1.181538-12.209231v-6.144l-10.555077-4.883692-10.555077-4.883692-5.907692-9.767385-3.505231-6.104615-11.736615 1.181538-9.412923 1.260308-9.373539-4.923077-5.907692-3.662769-10.515692 8.585846-8.27077 7.325538-10.555077 1.181539h-7.049846l-3.50523 12.248615-3.544616 9.767385-9.373538 7.325538-4.726154 3.702154 4.726154 21.976615-3.544616 11.027693-2.363077 6.06523 9.452308 8.546462z m-413.341538-24.418462c27.529846-11.776 41.314462-44.425846 31.271384-73.13723-8.743385-22.212923-30.011077-36.588308-51.318154-36.588308-7.483077 0-13.784615 1.299692-20.007384 3.938462-28.750769 10.436923-42.535385 44.386462-31.310769 73.13723 8.782769 22.212923 30.050462 36.548923 51.318153 36.548923 7.522462 0 13.784615-1.299692 20.04677-3.938461z m-3.741539-60.100923c2.481231 9.137231-1.260308 19.613538-10.043077 22.212923-2.481231 1.299692-3.741538 1.299692-6.262154 1.299693-6.222769 0-13.784615-3.938462-16.265846-11.736616a18.865231 18.865231 0 0 1 10.043077-22.212923c2.481231-1.299692 3.741538-1.299692 6.222769-1.299692 6.301538 0 13.784615 3.938462 16.305231 11.736615z m392.546462 496.600616c7.089231-3.623385 9.452308-12.091077 5.907692-18.116923l-49.782154-81.132308c-3.544615-6.025846-11.854769-8.467692-18.983384-4.844308L537.206154 506.88c-7.089231 3.623385-9.452308 12.091077-5.907692 18.156308l51.003076 81.092923c3.544615 6.065231 11.815385 8.467692 18.944 4.844307l60.49477-41.156923z m-35.564308-43.559385l9.452308 16.935385-2.363077 12.091077-15.399385-6.025846-2.363077 14.493538-13.075692-6.025846-4.726154 14.532923-11.854769-7.286154-9.452308-15.753846-1.220923-2.363077-10.673231-16.974769 2.363077-12.091077 15.438769 6.025846 3.544616-14.493538 13.036308 6.025846 4.726153-14.532923 11.894154 7.286153 9.452308 15.753847 1.181538 2.363077z m310.272-27.569231c42.062769 83.416615 72.073846 182.744615 9.609846 267.303385l-53.956923 19.652923-84.952615-203.933538-258.756923 108.307692c-24.024615-40.487385-37.257846-84.637538-43.244308-131.229539l-43.283692-53.956923-81.683693 80.935385c21.661538 50.254769 25.206154 106.653538 2.402462 158.168615-79.281231 50.254769-147.771077 64.984615-212.676923 67.426462-5.986462-8.585846-13.193846-17.171692-19.219693-25.718154 39.660308-30.680615 80.502154-62.542769 121.383385-93.223385-13.233231-57.619692-40.881231-95.625846-92.553846-123.82523-39.620923 30.641231-80.462769 62.542769-121.304615 93.184-6.025846-8.585846-13.233231-17.171692-19.259077-25.757539 19.259077-61.282462 52.893538-125.046154 121.344-188.809846 8.428308-1.220923 16.856615-1.220923 25.245538-1.220923 38.439385 0 75.697231 13.469538 108.150154 34.343385l82.865231-82.156308-249.895385-307.790769c18.038154-85.819077 68.529231-127.488 148.992-127.488h15.635692l213.858462 306.530461 78.060308-77.272615a179.278769 179.278769 0 0 1-12.012308-66.166154c0-44.189538 18.038154-89.521231 51.672615-122.643692a174.867692 174.867692 0 0 1 122.564923-50.25477 168.329846 168.329846 0 0 1 121.304616 51.475693c33.673846 34.343385 49.309538 79.714462 49.309538 123.864615 0 44.110769-18.038154 88.260923-51.672615 122.604308a174.867692 174.867692 0 0 1-122.564923 50.254769c-20.401231 0-40.841846-3.662769-60.061539-11.027692l-96.098461 95.625846 40.841846 58.88 309.956923 53.956923z"  horiz-adv-x="1024" />

    
    <glyph glyph-name="ic_tab_btn_work_selected" unicode="&#58953;" d="M821.444923 768h-92.868923V832.039385h-83.377231C618.417231 870.163692 569.107692 896 511.921231 896c-57.107692 0-106.456615-25.915077-133.277539-63.960615H295.424V768H202.555077C134.183385 768 78.769231 710.695385 78.769231 640v-640C78.769231-70.69538499999999 134.183385-128 202.555077-128h618.889846C889.816615-128 945.230769-70.69538499999999 945.230769 0V640.039385c0 70.656-55.414154 127.960615-123.785846 127.960615zM347.451077 771.268923h72.231385c0 38.4 40.408615 69.513846 90.230153 69.513846 49.860923 0 90.269538-31.113846 90.269539-69.513846h72.192V632.123077h-324.923077V771.268923z m397.036308-331.697231c14.887385 0 26.978462-11.815385 27.05723-26.387692a26.702769 26.702769 0 0 0-27.05723-26.466462H293.139692c-14.966154 0-27.057231 11.815385-27.05723 26.427077 0 14.611692 12.091077 26.427077 27.05723 26.427077h451.347693z m-8.034462-164.194461c14.887385 0 26.939077-12.209231 27.017846-27.332923a27.175385 27.175385 0 0 0-27.017846-27.332923H285.105231a27.175385 27.175385 0 0 0-27.057231 27.332923 27.175385 27.175385 0 0 0 27.017846 27.332923h451.347692z m0-162.500923c14.887385 0 26.939077-12.209231 27.017846-27.332923a27.175385 27.175385 0 0 0-27.017846-27.372308H285.105231a27.175385 27.175385 0 0 0-27.057231 27.372308 27.175385 27.175385 0 0 0 27.017846 27.332923h451.347692z"  horiz-adv-x="1024" />

    
    <glyph glyph-name="ic_icon_" unicode="&#58954;" d="M1019.59404 794.802105c-0.393758-0.669389-43.904069-75.286619-57.094978-151.793889-4.331343-25.043038 7.008901-82.216768 15.35658-123.994541 4.64635-23.625508 8.662686-44.100948 10.513351-59.890663 1.220651-10.23772 2.55943-20.67232 3.937585-31.815684 8.938317-69.262114 20.00293-155.298339-2.913813-231.844985-27.484341-92.021354-98.833375-152.423903-212.157062-179.790116-147.265667-35.477638-241.610195-132.893483-242.555215-133.917255a30.516281 30.516281 0 0 0-42.880297-1.535658c-1.811289 1.653786-113.914324 102.10157-230.860589 131.790959-93.753891 23.822387-161.36222 72.175927-200.89557 143.721841-69.537745 126.120837-25.988059 278.977874-20.475441 297.012011 8.268928 38.11582 27.68122 142.422437 21.656716 188.413426C57.523978 670.768188 23.345743 756.922541 2.712799 804.252308a30.988791 30.988791 0 0 0 7.087652 34.768873L61.146555 887.5716a30.595033 30.595033 0 0 0 32.957584 5.985129C95.009784 893.16297 214.515478 844.415672 300.236697 844.415672c103.597853 0 197.272992 47.644774 198.178636 48.156661A29.335006 29.335006 0 0 0 512.511886 895.998031c4.449471 0 8.583935-0.905644 12.442768-2.638182 0.905644-0.393758 105.842276-45.518479 207.392584-47.447895 71.664041-1.41753 193.571662 47.329768 194.792314 47.841654a30.634409 30.634409 0 0 0 33.154463-6.772646l54.535547-54.653675a30.831288 30.831288 0 0 0 4.764478-37.485806z m-102.180323-287.955567c-10.23772 51.700487-21.892971 110.291747-15.514083 146.596278 10.749606 62.213838 37.603934 121.120104 53.236145 151.518258l-24.216146 24.255521c-40.163364-14.726567-134.114134-46.227244-199.793046-45.006593-92.651367 1.811289-184.160835 34.138859-217.630305 47.251016-31.894436-14.529687-117.733782-48.82605-213.141458-48.826049-76.940404 0-171.481812 31.894436-211.13329 46.660378l-21.577964-20.357313c16.419728-39.021464 49.77107-121.750118 54.732427-159.865937 8.505183-65.678912-19.687923-196.24922-22.916743-210.936411a32.051939 32.051939 0 0 0-3.03194-8.111424c1.811289 3.937585-41.974653-137.027946 17.640379-244.681512 30.988791-55.953078 85.445587-94.108274 161.952858-113.520566 100.959671-25.673052 194.398555-94.265777 235.467563-127.538367 38.509578 33.863228 127.302112 101.471557 251.454157 131.3972 206.171933 49.652943 186.090251 205.856926 168.37112 343.593638-1.41753 11.37962-2.835061 22.011098-4.055712 32.563826-1.535658 13.387788-5.59137 33.626973-9.843962 55.008057z m-483.456645 27.8781l31.421926 14.41156c22.798615-21.577964 47.723526-53.708655 58.158125-75.404747l-32.012563-17.049741c-10.434599 21.577964-35.398886 54.41742-57.567488 78.042928z m-69.340866 27.563093H233.140254v36.107651h125.608951V723.689326h41.856525v-41.974652h114.544338v-32.839457h-114.583714v-50.479835h139.390497v-36.068276h-134.783523v-135.846671h-40.557122v135.846671z m420.022156 121.356359c-19.569796-66.899564-52.99989-121.316984-95.486428-164.000401a351.901942 351.901942 0 0 1 121.750118-66.93894c-8.505183-8.465807-20.987326-23.586132-26.854327-34.729497a367.37665 367.37665 0 0 0-123.640159 75.404747 428.645467 428.645467 0 0 0-122.380131-69.537745 155.455843 155.455843 0 0 1-22.877367 32.13069 385.332036 385.332036 0 0 1 117.733781 64.970148 455.696674 455.696674 0 0 0-83.083036 134.507892l4.567598 1.338779h-22.916743V692.818662h219.835352l7.796418 1.338779 25.5943-10.552727z m-196.918609-26.854327a378.480638 378.480638 0 0 1 72.648437-110.882385 342.254859 342.254859 0 0 1 73.908465 110.882385h-146.556902zM330.674226 540.001001c-15.120325-39.336471-39.966484-80.68111-64.773268-108.36233a170.300537 170.300537 0 0 1-30.122523 20.396689 269.330791 269.330791 0 0 1 58.906267 96.470824l35.989524-8.505183z m-10.552727-127.302112h404.389946v-284.726747h-42.525915v19.687923H361.387386v-21.735467H320.121499v286.774291z m41.265887-78.751693h320.598144v44.573458H361.387386v-44.573458z m0-76.152888h320.598144v46.660378H361.387386v-46.660378z m0-76.113512h320.598144v46.621003H361.387386v-46.621003z"  horiz-adv-x="1024" />

    
    <glyph glyph-name="ic_icon_1" unicode="&#58955;" d="M650.152229-127.999634a32.58441 32.58441 0 0 0-21.72294 8.264957L312.678679 159.993886H130.008503c-52.259396 0-130.008503 34.083805-130.008503 127.99712v191.99568c0 51.418272 34.668934 127.99712 130.008503 127.99712h182.597035l315.75061 279.765134a32.840404 32.840404 0 0 0 34.998069 5.44902 31.926139 31.926139 0 0 0 19.30928-29.256484v-959.94183c0-12.616859-7.496974-24.1366-19.236138-29.256485a32.913545 32.913545 0 0 0-13.27513-2.742795zM132.495305 544.533805c-61.146053 0-64.217984-53.466226-64.217984-64.181413v-192.727092c0-61.072912 53.502796-64.217984 64.217984-64.217984h192.763662a31.816427 31.816427 0 0 0 21.466946-8.264957L614.386176-25.601938V793.57963L346.799054 552.835333a32.108992 32.108992 0 0 0-21.540087-8.264957h-192.727092z m652.565888 10.130058a34.193516 34.193516 0 0 0-24.17317 58.256975l136.554642 136.518071a34.120375 34.120375 0 0 0 48.273199-48.2732L809.161222 564.647638a33.900952 33.900952 0 0 0-24.100029-9.947204z m209.037583-204.795392h-179.195968c-16.420202 0-29.841614 15.286513-29.841615 34.120375 0 18.833862 13.421412 34.120375 29.841615 34.120375h179.195968c16.566484 0 29.878185-15.286513 29.878185-34.120375 0-18.833862-13.3117-34.120375-29.878185-34.120375zM921.615835-25.601938a34.41294 34.41294 0 0 0-24.1366 9.983775l-136.591212 136.554642a34.156946 34.156946 0 0 0 48.273199 48.273199l136.554642-136.554641a34.156946 34.156946 0 0 0-24.100029-58.256975z"  horiz-adv-x="1024" />

    
    <glyph glyph-name="ic_icon_2" unicode="&#58956;" d="M157.579211 477.115532v-224.426592h57.275715V383.658496a57.036781 57.036781 0 0 0 11.946662 35.123188 37.478388 37.478388 0 0 0 30.583457 13.653329c11.332263 0 19.285327-2.935466 24.371192-8.874664 5.119998-6.587731 7.953064-17.305594 8.53333-31.573322v-139.263954h57.241581v151.176483c0 26.180258-7.372798 45.806918-20.95786 58.914114-14.199462 13.107196-32.904522 19.660793-56.149314 19.660793a73.215976 73.215976 0 0 1-56.695448-25.599991v19.62666H157.579211v0.6144z m395.775869-35.157322a101.2053 101.2053 0 0 1-33.450656 29.18399 90.453303 90.453303 0 0 1-45.363185 11.332263c-15.871995 0-30.61759-3.003732-43.076252-9.55733-12.492796-6.519464-23.825059-14.847995-32.324256-26.180258-9.079464-10.717863-15.871995-23.210659-20.411727-37.478387a153.941282 153.941282 0 0 1-0.580266-92.26237c4.539732-14.301862 11.366396-26.794658 20.411726-37.51252 9.079464-10.717863 20.411727-19.046394 32.904523-24.405326 13.038929-5.939198 27.784524-8.908797 44.782918-8.908797 11.332263 0 22.698659 1.774933 32.904523 4.744532 10.751996 3.583999 20.411727 8.328531 28.910923 14.882128s16.452261 14.882128 22.118393 24.405326c6.212265 9.523197 10.751996 20.821326 13.038929 32.767989l1.706666 8.294397h-54.442648l-1.706667-4.778665c-3.413332-10.103463-8.53333-17.817594-15.291728-23.210659-6.826664-4.744532-15.906128-7.714131-27.784524-7.714131-8.53333 0-15.325862 1.774933-21.572259 4.164265a41.574386 41.574386 0 0 0-14.745595 11.91253 43.007986 43.007986 0 0 0-8.499198 17.851727 137.045288 137.045288 0 0 0-2.833065 14.882129h146.875684l0.546133 5.939198a151.551949 151.551949 0 0 1-2.833066 48.230383 115.302362 115.302362 0 0 1-19.285326 43.451719z m-124.723159-51.746116a45.055985 45.055985 0 0 0 3.413332 12.492796c2.252799 5.939198 5.666131 11.29813 9.625597 15.462395 3.959465 4.164265 8.53333 7.748264 14.165329 10.137596 5.666131 2.389333 11.946663 3.549865 18.70506 3.549866 6.246398 0 12.492796-1.194666 17.578661-4.164266 5.119998-2.969599 9.65973-6.553598 13.653329-10.717863 3.925332-4.164265 6.758398-9.523197 9.04533-15.462395 1.706666-4.164265 2.252799-8.328531 3.413332-11.912529h-89.59997v0.6144z m270.472443-138.103421h-56.149314l-66.321045 225.006859h60.654913l34.577055-139.298087 32.904523 139.263953h54.988781l31.74399-139.263953 36.283721 139.263953h58.436247l-66.901311-224.972725H764.299009l-32.870389 137.489021-32.324256-137.489021z m175.172209 494.182236C971.14694 649.557074 1024.633856 520.908584 1024.053589 384.272896c0-136.601554-52.940782-265.215912-149.777016-361.983879C777.508605-74.478951 649.372114-128 513.28256-128c-101.375966 0-199.304467 29.59359-283.579639 85.947705l-3.413332 2.286932-162.815946-52.360516h-15.394128l-15.940262 15.940262c-15.940261 21.06026-7.406931 51.780249 2.833066 87.039971 5.119998 17.681061 6.826664 26.794658 7.406931 30.754123 1.1264 17.066661 15.940261 30.71999 33.041056 31.334389 17.646927-1.160533 31.300256-14.233595 31.300256-31.334389 0-11.946663-3.993599-26.726391-8.533331-43.827186l-3.993598-14.199462 142.916219 47.786651 13.107195-9.65973c179.370607-129.228757 422.502259-109.875163 578.525674 46.079985a445.132652 445.132652 0 0 1 130.969556 316.484161c0 119.534893-46.114118 232.243123-130.969556 316.484161s-197.017534 130.935423-316.586561 130.935423A444.074519 444.074519 0 0 1 195.569599 700.757057C67.433108 572.108567 29.852321 381.43983 98.767498 213.538019c3.413332-7.987197 3.413332-16.520528 0-24.473591-3.413332-7.406931-9.693863-13.653329-17.681061-17.066661a33.109322 33.109322 0 0 0-24.473592 0 33.450656 33.450656 0 0 0-17.646927 17.612794 510.05423 510.05423 0 0 0 111.035696 556.714481A511.112363 511.112363 0 0 0 512.15616 895.999659c136.669821 0 265.352445-52.906649 362.154546-149.70875z"  horiz-adv-x="1024" />

    
    <glyph glyph-name="ic_icon_3" unicode="&#58957;" d="M543.037793 725.945379l74.081104-147.102896c2.259862-4.484414 6.673655-7.591724 11.758344-8.262621l165.393656-23.51669c5.790897-0.847448 10.593103-4.837517 12.35862-10.24a14.900966 14.900966 0 0 0-3.813517-15.465931l-119.808-114.476138a14.900966 14.900966 0 0 1-4.449103-13.488551l28.318896-161.615449a14.936276 14.936276 0 0 0-6.144-14.759724 15.677793 15.677793 0 0 0-16.207448-1.165241L536.399448 292.193103a15.677793 15.677793 0 0 1-14.300689 0l-148.162207-76.270344a15.677793 15.677793 0 0 0-16.207449 1.165241 14.971586 14.971586 0 0 0-6.144 14.759724l28.318897 161.544828a14.936276 14.936276 0 0 1-4.449103 13.34731L255.646897 521.321931a14.900966 14.900966 0 0 0-3.884138 15.465931 15.32469 15.32469 0 0 0 12.429241 10.24l165.605517 23.622621a15.39531 15.39531 0 0 1 11.758345 8.22731l74.081104 147.102897a15.465931 15.465931 0 0 0 13.700413 8.156689c5.790897 0 11.052138-3.177931 13.700414-8.192z m291.910621-852.391724a11.440552 11.440552 0 0 0-8.015448 3.177931l-206.565518 202.434207a11.158069 11.158069 0 0 0-3.001379 11.016828 11.440552 11.440552 0 0 0 8.333241 7.980138 388.025379 388.025379 0 0 1 237.391449 170.831448 11.652414 11.652414 0 0 0 18.008275 2.08331l174.08-170.619586c3.425103-3.354483 4.343172-8.439172 2.295173-12.747034a11.793655 11.793655 0 0 0-11.440552-6.532414l-40.606896 3.319172-156.142345 9.816276a16.701793 16.701793 0 0 1-14.477242-14.194759l11.899587-194.206896a11.405241 11.405241 0 0 0-3.319173-8.968828 12.182069 12.182069 0 0 0-8.439172-3.425103z m-26.129655 82.273104l-5.261242 139.228689a32.167724 32.167724 0 0 0 10.699035 24.011035c6.920828 6.355862 16.313379 9.886897 26.129655 9.816276l159.320276-13.064828-131.778207 121.114483c-49.293241-68.466759-123.091862-118.925241-208.613517-142.618483l149.504-138.451862zM223.514483-126.587586a11.828966 11.828966 0 0 0-11.723035 12.535172l18.078897 198.444138a16.701793 16.701793 0 0 1-14.512552 14.230069l-202.822621-17.513931a11.793655 11.793655 0 0 0-11.475862 6.532414 11.122759 11.122759 0 0 0 2.330483 12.747034l175.315862 171.820138a11.652414 11.652414 0 0 0 18.008276-2.11862 387.954759 387.954759 0 0 1 236.57931-171.608276 11.405241 11.405241 0 0 0 8.262621-7.980138 11.122759 11.122759 0 0 0-3.001379-10.946207l-206.918621-202.857931a11.617103 11.617103 0 0 0-8.121379-3.283862z m-1.694897 257.483034c9.074759-0.353103 17.619862-3.919448 23.763862-10.028138 7.273931-6.10869 11.264-14.830345 10.840276-23.869793L242.228966-48.904828l158.72 145.408c-85.274483 23.940414-158.72 74.469517-207.624828 142.795035l-132.766897-121.467586 8.545104 0.706207 150.598621 12.288 2.11862 0.07062zM529.655172 60.627862c-232.518621 0-421.005241 187.003586-421.005241 417.721379C108.649931 708.961103 297.136552 896 529.655172 896s421.005241-187.003586 421.005242-417.686069C950.413241 247.737379 762.067862 60.910345 529.655172 60.627862z m0 788.939035c-151.375448 0-287.849931-90.394483-345.794206-229.164138a369.169655 369.169655 0 0 1 81.107862-404.656552 376.408276 376.408276 0 0 1 407.834482-80.507586c139.899586 57.449931 231.070897 192.865103 231.070897 343.04C903.662345 683.255172 736.256 849.390345 529.655172 849.637517v-0.07062z"  horiz-adv-x="1059" />

    
    <glyph glyph-name="ic_icon_4" unicode="&#58958;" d="M585.863005 288.830737h17.171032c9.609477 0 17.210415-7.679705 17.210415-17.328564v-277.729626c0-9.64886-7.600938-17.328564-17.210415-17.328564h-17.171032a17.171032 17.171032 0 0 0-17.210415 17.328564v277.729626c0 9.451944 7.758471 17.328564 17.210415 17.328564z m-86.052075 0h17.210415c9.570093 0 17.210415-7.679705 17.210415-17.328564v-277.729626c0-9.64886-7.640322-17.328564-17.210415-17.328564h-17.210415a17.171032 17.171032 0 0 0-17.210415 17.328564v277.729626a17.171032 17.171032 0 0 0 17.210415 17.328564zM103.577555 792.146764a34.460213 34.460213 0 0 1-34.42083-34.657129c0-19.140187 15.556325-34.657129 34.42083-34.657129a34.538979 34.538979 0 0 1 34.381447 34.657129 34.657129 34.657129 0 0 1-34.381447 34.657129z m0-121.772548A86.524672 86.524672 0 0 0 17.328564 757.17457c0 47.929233 38.595439 86.800354 86.170225 86.800354 47.574786 0 86.170224-38.87112 86.170224-86.800354a86.642821 86.642821 0 0 0-86.170224-86.800354z m241.142725-520.487058L155.169417 254.016076V549.074266s-4.922888 34.657129-51.749395 34.657129c-42.336833 0-51.749394-34.657129-51.749394-34.657129v-260.401061s-2.874966-26.977424 17.171032-34.657129l258.510673-121.457482v-208.257836h17.210415v225.5864h0.157532z m51.749394-17.328564v-208.257836s-3.859544-55.608938-68.920426-52.143226C277.65086-124.967501 275.681705-75.699242 275.681705-75.699242v173.600707L51.749394 202.030383S0.787662 221.328103 0 271.502173V566.560363S23.787393 634.968809 103.380639 636.032153A103.853236 103.853236 0 0 0 206.761278 566.560363v-277.729626l155.130034-86.800354s33.357486-11.893696 34.538979-69.471789z m155.011884 711.692012a34.499596 34.499596 0 1 1 0-68.999193 34.617745 34.617745 0 0 1 34.42083 34.499597 34.42083 34.42083 0 0 1-34.42083 34.499596z m0-121.142418a86.36714 86.36714 0 0 0-86.170224 86.524672c0 47.614169 38.595439 86.327757 86.170224 86.327757 47.574786 0 86.170224-38.713588 86.170225-86.327757 0-47.771701-38.595439-86.524672-86.170225-86.524672z m68.95981-120.866736s-2.993116 35.720472-68.95981 34.53898c-71.086497-1.063344-68.959809-34.538979-68.959809-34.53898v-209.281797h137.762086V602.241452h0.157533z m189.550863-261.582554H293.089035s-17.210415 2.874966-17.210415 23.944925c0 26.229145 17.210415 28.355832 17.210415 28.355832h137.762086V619.6094s-0.590747 68.408446 120.591054 69.156724c111.13911 0.590747 120.591054-69.156725 120.591054-69.156724v-226.649745h137.762087s17.210415-6.655744 17.210415-25.480866c0.157532-17.643629-17.052883-26.819892-17.052883-26.819891z m189.393331 451.487866a34.42083 34.42083 0 0 1-34.42083-34.53898 34.42083 34.42083 0 1 1 68.84166 0 34.342064 34.342064 0 0 1-34.42083 34.53898z m0-120.906119a86.327757 86.327757 0 0 0 0 172.734279c47.574786 0 86.170224-38.713588 86.170224-86.36714 0-47.614169-38.595439-86.327757-86.170224-86.327756z m51.749394-380.440753V550.058844s-9.412561 34.538979-51.591862 34.538979c-46.984039 0-51.749394-34.538979-51.749394-34.538979v-293.994846l-189.550863-103.656321v-224.838122h17.210415v207.509557l258.510672 120.984886c19.888466 7.87662 17.171032 34.657129 17.171032 34.657128z m51.631245-17.210415c-0.590747-49.859005-51.749394-69.156725-51.749394-69.156724l-223.971693-103.695704v-172.813046s-1.77224-49.15011-51.749395-51.867544c-65.100265-3.583862-68.959809 51.867544-68.959809 51.867544v207.155109c1.181493 57.459944 34.381447 69.196108 34.381447 69.196108l155.169417 86.36714V567.466174s20.754894 70.062536 103.341256 69.156725c79.593246-0.905811 103.380639-69.156725 103.380639-69.156725L1102.726818 273.589477z"  horiz-adv-x="1102" />

    
    <glyph glyph-name="ic_bulb" unicode="&#58959;" d="M102.422528 493.80216c0 110.481535 39.933085 204.785051 119.492077 283.832081C301.371205 856.783663 397.824964 896 510.866312 896s209.597499-39.216337 290.282809-118.365759C881.629646 698.587211 921.562731 604.2836950000001 921.562731 493.80216c0-15.154094-0.614355-30.922543-2.150243-46.076636-2.662206-2.559813-2.252636-7.884224-2.252636-10.444038l-6.348336-37.680449c-2.662206 0-2.150243-3.686131-2.150243-6.245944-4.198094-14.130168-8.600972-26.622057-12.799066-37.680449l-2.150243-4.300486c-5.836374-15.154094-11.263178-28.7723-17.099552-39.830693 0-1.535888-0.511963-2.047851-2.04785-2.04785a329.703932 329.703932 0 0 0-23.550281-39.933085 569.302441 569.302441 0 0 0-27.850767-37.680449l-2.047851-2.047851c-8.49858-9.932075-18.533047-19.352187-29.693832-29.284262l-3.276561-2.150243c-5.324411-3.686131-5.836374-6.860299-11.77514-12.594281-2.559813 0-6.348337-1.535888-6.348337-4.095701l-20.376112-15.768449-4.198094-3.071775-3.174168-2.150244a91.129348 91.129348 0 0 1-27.748374-33.584748 96.248974 96.248974 0 0 0-16.99716-27.236412c-5.836374-5.733981-16.587589-8.396187-32.04886-8.396187H358.506234c-15.358879 0-26.212486 2.559813-32.048861 8.396187a106.897796 106.897796 0 0 0-18.123477 27.236412 114.884413 114.884413 0 0 1-26.622056 33.584748c-1.535888 0-2.559813 0.511963-4.095701 2.047851l-3.276561 3.174168-20.171327 15.768449-6.45073 4.095701-8.600972 8.396187-6.348336 6.348337-30.103403 29.386655-2.04785 2.04785a487.900383 487.900383 0 0 0-51.196263 77.408749c-1.535888 0-2.047851 0.614355-2.04785 2.150243a369.944194 369.944194 0 0 0-17.099552 39.933085c-1.535888 0-2.047851 0.511963-2.047851 2.047851C123.924958 366.63064399999996 119.419687 379.122532 115.221594 393.252701c0 0-0.511963 1.023925-1.023926 3.071775l-1.023925 3.174169a318.440754 318.440754 0 0 0-6.348336 37.680449c0 2.559813-2.150243 7.884224-2.150243 10.444038A409.160531 409.160531 0 0 0 102.422528 493.80216z m254.445425-438.854363h310.249352c17.918692 0 31.024935-15.358879 31.024935-36.554132s-13.106243-36.656524-31.024935-36.656524h-310.249352c-17.918692 0-31.024935 15.358879-31.024935 36.656524 0 21.09286 13.106243 36.554132 31.024935 36.554132z m6.143552-109.764787h297.962249l-121.23275-66.452749a69.831702 69.831702 0 0 0-59.694843 0l-117.034656 66.555141zM586.431995 677.903921c44.950319 0 87.443217-17.406729 126.864339-52.936936 39.625907-35.325421 59.387665-79.251815 59.387665-131.676787a37.270879 37.270879 0 0 1 74.439366 0c0 78.227889-26.212486 140.175367-79.149422 186.763966a265.810996 265.810996 0 0 1-181.541948 69.72931c-21.50243 0-37.168487-15.154094-37.168486-35.939777 0-20.785683 15.666056-35.837384 37.168486-35.837383z"  horiz-adv-x="1024" />

    
    <glyph glyph-name="ic_button_delete" unicode="&#58960;" d="M992.9728 720.4352H31.0272C13.8752 720.4352 0 733.5424 0 749.7216c0 16.128 13.8752 29.2352 31.0272 29.2352h961.9456c17.152 0 31.0272-13.1072 31.0272-29.2352 0-16.1792-13.824-29.2864-31.0272-29.2864z m-310.272 117.0432H341.2992c-17.152 0-31.0272 13.1072-31.0272 29.2864 0 16.128 13.824 29.2352 31.0272 29.2352h341.2992c17.2032 0 31.0272-13.1072 31.0272-29.2352 0-16.1792-13.824-29.2864-31.0272-29.2864zM372.3264 76.8V574.1568c0 16.1792 13.824 29.2864 31.0272 29.2864 17.152 0 31.0272-13.1072 31.0272-29.2864V76.8c0-16.1792-13.8752-29.2352-31.0272-29.2352-17.152 0-31.0272 13.056-31.0272 29.2352z m217.1904 0V574.1568c0 16.1792 13.8752 29.2864 31.0272 29.2864 17.152 0 31.0272-13.1072 31.0272-29.2864V76.8c0-16.1792-13.824-29.2352-31.0272-29.2352-17.152 0-31.0272 13.056-31.0272 29.2352zM155.136 632.6784c17.2032 0 31.0272-13.1072 31.0272-29.2352v-614.4c0-32.3072 27.8016-58.5216 62.1056-58.5216h527.5136c34.2528 0 62.0544 26.2144 62.0544 58.5216v614.4c0 16.128 13.824 29.2352 31.0272 29.2352 17.152 0 31.0272-13.1072 31.0272-29.2352v-643.6864c0-48.4864-41.6768-87.7568-93.0816-87.7568H217.1904c-51.4048 0-93.0816 39.2704-93.0816 87.7568V603.4432c0 16.128 13.8752 29.2352 31.0272 29.2352z"  horiz-adv-x="1024" />

    
    <glyph glyph-name="ic_btn_personnel" unicode="&#58961;" d="M971.838318 88.25715600000001h-118.71109v124.030167c0 17.29256-13.041751 30.267545-29.666645 30.267544a29.822434 29.822434 0 0 1-29.666645-30.267544v-124.030167h-119.289735c-16.624894 0-29.088001-13.575884-29.088001-30.868445 0-17.270305 13.064006-30.868445 29.088001-30.868444h119.289735v-124.030167c0-17.29256 13.041751-30.245289 29.666645-30.245289a29.822434 29.822434 0 0 1 29.666645 30.245289v124.030167h119.289735c16.624894 0 29.088001 13.575884 29.088 30.868444 0 17.270305-13.064006 30.868445-29.666645 30.868445z m-311.35511 150.60329c6.476364-7.900719 17.070005-11.572885 28.264545-9.725674 11.750929 2.44811 20.564126 12.151529 22.923214 24.325314a30.8907 30.8907 0 0 1-7.055008 26.150268c-42.352307 46.847928-95.298255 83.947925-155.299211 105.847384 82.946426 49.874682 137.650562 145.996392 131.174197 253.646476C672.256392 778.401687 561.668576 890.324835 426.978002 895.777445c-150.603291 6.09802-275.301124-119.200713-275.301123-273.72098 0-100.951164 52.945948-189.172154 131.752841-236.598727C131.090497 328.884136 22.26087 178.636935 22.26087 1.6385649999999714c0-12.173785 0.578644-24.325314 1.780443-36.499098 1.758188-17.025494 16.469105-29.199278 32.337311-27.374324 15.890461 1.824955 27.062746 16.424594 25.883202 32.849188-1.179544 10.34883-1.179544 20.074504-1.179544 31.024234 0 191.620265 150.002391 346.719176 335.30208 346.719176 95.876899 0 182.339701-42.597118 244.121101-109.497295zM205.201471 608.3915589999999C197.323007 735.938102 302.502725 841.140075 430.049268 833.239356c105.201973-6.654409 190.440721-91.893156 197.095129-197.072874 8.457108-127.546543-97.345765-233.349416-224.892308-224.892308-105.179718 6.676664-190.418465 91.915412-197.072874 197.095129z"  horiz-adv-x="1024" />

    
    <glyph glyph-name="ic_btn_add" unicode="&#58962;" d="M800.853333 329.002667H567.04v-233.898667h-109.994667v233.898667H223.104v109.994666h233.898667V672.896h109.994666v-233.898667h233.898667v-109.994666zM961.194667 896H62.848C28.16 896 0 867.84 0 833.152v-898.304C0-99.84000000000003 28.16-128 62.848-128h898.304C995.84-128 1024-99.84000000000003 1024-65.15200000000004V833.152C1024 867.84 995.84 896 961.152 896z"  horiz-adv-x="1024" />

    
    <glyph glyph-name="ic_btn_subtract" unicode="&#58963;" d="M800.853333 329.002667H223.146667v109.994666h577.706666v-109.994666zM961.194667 896H62.848C28.16 896 0 867.84 0 833.152v-898.304C0-99.84000000000003 28.16-128 62.848-128h898.304C995.84-128 1024-99.84000000000003 1024-65.15200000000004V833.152C1024 867.84 995.84 896 961.152 896z"  horiz-adv-x="1024" />

    
    <glyph glyph-name="ic_btn_trouble" unicode="&#58964;" d="M799.466167 807.6794150000001A509.226348 509.226348 0 0 1 512.085013 895.99936C375.594432 895.99936 247.061179 842.836727 150.079906 746.239454 53.290633 649.386181 0 520.7889279999999 0 383.99968c0-282.325157 229.738523-511.99968 512.085013-511.99968 268.671832 0 492.949025 209.791869 510.570348 477.055702 0.917333 10.879993 1.343999 22.314653 1.343999 34.943978A511.850347 511.850347 0 0 1 799.466167 807.6794150000001z m170.005227-454.549049C953.663404 113.23718299999996 752.76753-74.66669999999999 512.085013-74.66669999999999 259.135838-74.66669999999999 53.3333 131.07183799999996 53.3333 383.99968A456.106382 456.106382 0 0 0 187.733216 708.479477c86.890612 86.527946 202.069207 134.186583 324.351797 134.186583 92.266609 0 181.26922-27.349316 257.386506-79.082617A458.559713 458.559713 0 0 0 970.66606 383.99968c0-11.093326-0.362666-21.01332-1.194666-30.869314zM130.453252 341.33304c11.30666 0.789333 19.754654 8.789328 18.815988 17.919989-1.002666 9.770661-1.493332 19.690654-1.493332 29.482648 0 9.173328-9.215994 16.57599-20.543988 16.57599-11.37066 0-20.56532-7.423995-20.56532-16.57599 0-10.709327 0.533333-21.546653 1.621332-32.213313 0.874666-8.661328 9.877327-15.210657 20.479988-15.210657l1.685332 0.021333z m161.301232-248.085178c-61.973295 43.669306-107.029266 103.402602-130.346585 172.757225-2.879998 8.533328-12.479992 13.290658-21.503986 10.517327-8.981328-2.730665-13.951991-11.861326-11.093327-20.394654 25.514651-75.882619 74.79462-141.226578 142.570578-188.949215 3.050665-2.154665 6.613329-3.199998 10.175993-3.199998a17.407989 17.407989 0 0 1 13.738658 6.570662 15.701324 15.701324 0 0 1-3.541331 22.698653zM511.573014 661.33284C416.106407 661.33284 341.33312 591.99955 341.33312 503.508939v-22.933319c0-14.762657 13.354658-26.73065 29.802648-26.73065 16.469323 0 29.802648 11.967993 29.802648 26.73065v22.933319c0 59.519963 47.573304 104.362601 110.613264 104.362601 62.527961 0 111.509264-46.122638 111.509264-105.023934 0-62.015961-48.426636-105.343934-117.78126-105.343934-16.469323 0-29.823981-11.946659-29.823981-26.73065v-130.709252c0-14.762657 13.354658-26.73065 29.823981-26.73065 16.44799 0 29.802648 11.946659 29.802648 26.73065v106.0266C621.012945 358.058363 682.66624 421.46099 682.66624 502.847606 682.66624 591.722217 607.508954 661.33284 511.573014 661.33284z m-4.906664-490.66636a37.354643 37.354643 0 0 1 0-74.66662 37.33331 37.33331 0 1 1 0 74.66662z"  horiz-adv-x="1024" />

    
    <glyph glyph-name="ic_icon_assist" unicode="&#58965;" d="M146.285714 896h731.428572a146.285714 146.285714 0 0 0 146.285714-146.285714v-731.428572a146.285714 146.285714 0 0 0-146.285714-146.285714H146.285714a146.285714 146.285714 0 0 0-146.285714 146.285714V749.714286a146.285714 146.285714 0 0 0 146.285714 146.285714z m657.554286-422.034286l-40.96-13.165714c21.942857-51.2 43.154286-110.445714 62.171429-176.274286l40.228571 18.285715c-17.554286 60.708571-38.034286 117.76-61.44 171.154285z m-241.371429 274.285715v-125.805715h-124.342857v-51.2h124.342857v-12.434285c-2.194286-202.605714-57.051429-349.622857-164.571428-441.051429l39.497143-35.108571c114.834286 100.205714 173.348571 258.925714 176.274285 476.16v12.434285H709.485714c-1.462857-204.8-4.388571-326.948571-8.777143-366.445714-5.851429-43.154286-26.331429-65.097143-61.44-65.097143-17.554286 0-37.302857 0.731429-60.708571 2.194286l13.165714-48.274286c25.6-1.462857 43.885714-2.925714 54.857143-2.925714 62.902857 0 97.28 31.451429 104.594286 92.891428 7.314286 55.588571 10.971429 201.874286 10.971428 438.857143H613.668571V748.251429h-51.2z m-111.177142-270.628572c-17.554286-70.948571-46.08-130.194286-84.114286-177.005714l35.108571-32.914286c39.497143 46.08 69.485714 112.64 91.428572 198.948572l-42.422857 10.971428zM190.171429 581.485714v-49.005714h84.845714v-449.097143h50.468571V532.48h81.92V581.485714H325.485714V749.714286h-50.468571v-168.228572H190.171429z"  horiz-adv-x="1024" />

    
    <glyph glyph-name="ic_icon_info" unicode="&#58966;" d="M639.966802-128a31.80635 31.80635 0 0 0-21.374891 8.191575L307.824032 159.985061h-179.830672C76.604026 159.985061 0 194.031295 0 287.978421v191.990041c0 51.453331 34.110231 127.99336 127.99336 127.99336h179.702678L618.527914 887.755308A31.934343 31.934343 0 0 0 671.965142 863.948543v-959.950203a31.934343 31.934343 0 0 0-31.99834-31.99834zM127.99336 543.965142c-60.92484 0-63.99668-53.373231-63.99668-63.99668v-191.990041c0-60.92484 53.309235-63.99668 63.99668-63.99668h191.990041c7.935588 0 15.551193-2.943847 21.374891-8.319568L607.968462-24.197385V792.016274L341.422289 552.156717A31.99834 31.99834 0 0 0 319.983401 543.965142H127.99336zM799.958502 575.963482a31.99834 31.99834 0 0 0-22.654825 54.589168l127.993361 127.99336a31.99834 31.99834 0 0 0 45.245653-45.309649l-127.993361-127.99336A31.742353 31.742353 0 0 0 799.958502 575.963482z m191.990041-223.988381h-191.990041a31.99834 31.99834 0 0 0 0 63.99668h191.990041a31.99834 31.99834 0 1 0 0-63.99668z m-63.996681-351.981741a32.254327 32.254327 0 0 0-22.654824 9.279519l-127.993361 127.99336a31.99834 31.99834 0 0 0 45.245653 45.245653l127.993361-127.99336A31.99834 31.99834 0 0 0 927.951862-0.00664z"  horiz-adv-x="1024" />

    
    <glyph glyph-name="ic_icon_search" unicode="&#58967;" d="M743.184276 454.950952c-13.942676 0-25.518934-11.512301-25.518934-25.582892a250.072764 250.072764 0 0 0-18.995297-96.191672l-0.639572-1.279144a246.107416 246.107416 0 0 0-53.851987-79.370921 247.898218 247.898218 0 0 0-177.545266-73.806642 25.263105 25.263105 0 0 1-25.263105-25.902677c0-14.326419 10.872729-25.83872 25.263105-25.838721 39.845353 0 78.795306 8.122568 115.890498 23.024603a292.348492 292.348492 0 0 1 98.110389 65.748031A304.948066 304.948066 0 0 1 745.742566 312.710075v0.895401a295.482396 295.482396 0 0 1 23.664174 115.890499c0 14.07059-11.832087 25.582891-26.222464 25.582891m10.105242-311.535661v-0.319786l-0.639572-0.639572a402.994497 402.994497 0 0 0-130.984404-86.981831 400.692037 400.692037 0 0 0-309.489029 0 390.906581 390.906581 0 0 0-131.240233 87.621403l-0.319786 0.319786h0.319786a410.733322 410.733322 0 0 0-88.644719 131.240234l-0.319786 2.30246a400.052465 400.052465 0 0 0-29.740112 152.410076c0 54.875302 10.552943 107.128358 30.059898 154.776493A421.925837 421.925837 0 0 0 181.000237 715.320829 403.442198 403.442198 0 0 0 466.569263 834.089403c55.259046 0 107.831887-11.256472 155.096279-30.69947a406.767974 406.767974 0 0 0 131.623976-88.005147l2.302461-1.918716a405.616744 405.616744 0 0 0 85.318943-129.321517l1.279144-2.30246c18.547596-46.62482 29.804069-98.494132 29.804069-152.410076 0-55.195088-11.256472-107.448144-31.083213-154.776493a392.505512 392.505512 0 0 0-87.621404-131.176276m257.55576-197.435964l-185.028262 184.708476a462.090977 462.090977 0 0 1 107.76793 298.680257c0 61.974555-12.151873 121.774563-34.536904 175.946336l-0.639572 2.174546a472.260176 472.260176 0 0 1-99.133704 149.851787l-2.430375 2.174545A469.765844 469.765844 0 0 1 645.457631 860.823524 469.254186 469.254186 0 0 1 466.63322 896a466.567983 466.567983 0 0 1-329.891385-136.420769A462.47472 462.47472 0 0 1 35.497542 607.552899 459.212901 459.212901 0 0 1 0.00128 429.432017c0-62.614127 12.47166-122.414136 34.536903-176.266122l0.959359-2.558289c23.408346-56.666105 58.265035-108.343545 101.244293-151.322803a466.440068 466.440068 0 0 1 151.38676-101.244293h0.639572c54.811345-23.024602 114.93114-35.496262 177.801096-35.496261 63.573485 0 123.69328 12.47166 178.888368 35.496261a450.067018 450.067018 0 0 1 119.600018 72.591455l185.667834-185.667835a42.147814 42.147814 0 0 1 60.119795 0.639573 42.787386 42.787386 0 0 1 0 60.439581M349.207748 707.901791c-18.419682-8.122568-35.176476-17.140537-51.421612-27.757438a361.997914 361.997914 0 0 1-44.194445-37.095192c-14.390376-13.942676-26.478293-29.228453-37.095192-45.089846a253.84624 253.84624 0 0 1-27.757437-51.165783 25.646849 25.646849 0 0 1 47.008563-20.274442c6.267808 14.710163 14.07059 29.420325 23.088559 42.723429a254.485813 254.485813 0 0 0 110.262262 91.266965 25.646849 25.646849 0 0 1 14.070591 33.641503 26.54225 26.54225 0 0 1-33.961289 13.750804"  horiz-adv-x="1024" />

    
    <glyph glyph-name="ic_icon_trace_blue" unicode="&#58968;" d="M512-128C229.239467-128 0 101.239467 0 384 0 666.760533 229.239467 896 512 896c282.760533 0 512-229.239467 512-512 0-282.760533-229.239467-512-512-512z m-145.578667 366.250667a10.888533 10.888533 0 0 1-15.633066 0l-62.122667-62.122667a11.0592 11.0592 0 0 1 0-15.36c4.4032-4.266667 11.4688-4.266667 15.633067 0l62.122666 62.122667a10.820267 10.820267 0 0 1 0 15.36z m268.288 88.746666l-0.955733-0.8192-4.266667-4.266666-6.007466-5.461334a18.056533 18.056533 0 0 1-4.8128-19.933866c5.7344-15.496533 7.0656-32.426667 3.754666-48.093867a86.6304 86.6304 0 0 0-23.005866-41.949867l-0.785067-0.785066a83.2512 83.2512 0 0 0-75.639467-22.186667c2.286933 4.539733 4.676267 9.352533 6.826667 13.892267 5.7344 13.243733 8.533333 27.374933 9.352533 41.6768a18.5344 18.5344 0 0 1-23.517866 18.3296 280.917333 280.917333 0 0 0-69.2224-10.171734l-71.202134 71.338667c0.273067 10.308267 1.058133 20.718933 2.286934 31.266133 1.706667 12.6976 4.266667 25.258667 7.9872 38.0928a18.3296 18.3296 0 0 1-12.8 22.289067 15.36 15.36 0 0 1-6.007467 0.546133 117.077333 117.077333 0 0 1-55.330133-16.042666 85.333333 85.333333 0 0 0 23.2448 76.8 83.456 83.456 0 0 0 41.6768 22.6304 83.285333 83.285333 0 0 0 48.128-3.4816 18.773333 18.773333 0 0 1 20.548266 5.2224l4.949334 5.461333 5.085866 5.085867a271.7696 271.7696 0 0 0 121.719467 70.519466 275.182933 275.182933 0 0 0 131.072 2.56 274.773333 274.773333 0 0 0-2.935467-130.935466 272.418133 272.418133 0 0 0-70.144-121.582934z m25.770667-26.043733a310.340267 310.340267 0 0 1 79.872 138.24 310.954667 310.954667 0 0 1 0.3072 159.675733v0.273067l-0.273067 0.273067a18.773333 18.773333 0 0 1-13.1072 13.1072 311.978667 311.978667 0 0 1-159.914666 0 309.725867 309.725867 0 0 1-138.274134-80.042667l-0.273066-0.273067-3.4816-3.345066a120.558933 120.558933 0 0 1-56.5248 1.2288 120.968533 120.968533 0 0 1-60.416-32.768 121.6512 121.6512 0 0 1-22.664534-139.741867c0.785067-1.467733 1.8432-3.4816 3.1744-4.778667a18.432 18.432 0 0 1 25.8048-0.955733 86.016 86.016 0 0 0 24.9856 16.1792l3.9936 1.467733c-0.9216-4.949333-1.706667-10.0352-2.2528-15.121066a277.845333 277.845333 0 0 1-2.696533-42.222934 17.783467 17.783467 0 0 1 5.2224-14.404266l81.92-81.783467v0.136533c3.208533-3.345067 7.611733-5.461333 12.8-5.461333 14.574933-0.273067 29.2864 0.785067 43.8272 2.6624 4.949333 0.4096 9.898667 1.467733 14.848 2.2528l-1.467733-3.857067a82.944 82.944 0 0 0-15.906134-24.849066c-1.058133-1.365333-2.1504-2.56-2.935466-4.164267a18.875733 18.875733 0 0 1 8.157866-24.849067 123.8016 123.8016 0 0 1 73.728-11.195733 121.378133 121.378133 0 0 1 65.467734 32.9728l1.058133 0.8192a122.2656 122.2656 0 0 1 31.402667 117.0432l2.389333 2.6624 1.2288 0.8192zM305.220267 229.444267l27.272533 27.272533a11.127467 11.127467 0 0 1 0 15.633067 10.9568 10.9568 0 0 1-15.530667 0l-27.2384-27.511467a11.0592 11.0592 0 0 1 0-15.36c4.130133-4.437333 11.229867-4.437333 15.496534 0z m286.173866 187.5968a46.353067 46.353067 0 1 0 0 92.740266 46.3872 46.3872 0 0 0 0-92.740266z m0 114.8928a68.642133 68.642133 0 0 1-68.4032-68.539734c0-37.649067 30.72-68.539733 68.4032-68.539733 37.819733 0 68.266667 30.890667 68.266667 68.539733a68.437333 68.437333 0 0 1-68.266667 68.539734z m-206.677333-327.338667l-27.374933-27.374933a11.127467 11.127467 0 0 1 0-15.633067c4.266667-4.437333 11.4688-4.437333 15.633066 0l27.374934 27.374933a11.127467 11.127467 0 0 1 0 15.633067 11.127467 11.127467 0 0 1-15.633067 0z"  horiz-adv-x="1024" />

    
    <glyph glyph-name="ic_icon_yes" unicode="&#58969;" d="M1350.987389 879.272592a58.192678 58.192678 0 0 1-82.34008-0.682613L439.785618 9.454177 94.55457 379.00328c-22.782177 24.062075-58.022025 26.109911-78.500387 4.522305A65.530758 65.530758 0 0 1 16.566142 297.004506l378.849692-405.642215c6.143509-6.484815 13.652241-10.836466 21.587607-13.652241 20.393035-10.580487 47.014905-6.570141 65.70141 12.969629L1346.891716 796.761859c22.782177 24.062075 24.744687 60.923126 4.180999 82.510733z"  horiz-adv-x="1365" />

    
    <glyph glyph-name="ic_icon_urge" unicode="&#58970;" d="M146.285714 896h731.428572a146.285714 146.285714 0 0 0 146.285714-146.285714v-731.428572a146.285714 146.285714 0 0 0-146.285714-146.285714H146.285714a146.285714 146.285714 0 0 0-146.285714 146.285714V749.714286a146.285714 146.285714 0 0 0 146.285714 146.285714z m95.817143-403.748571v-408.868572h51.2V585.874286c20.48 45.348571 38.034286 92.16 52.662857 141.165714L297.691429 749.714286C265.508571 634.88 215.04 533.211429 146.285714 443.977143l17.554286-58.514286c28.525714 33.645714 54.857143 69.485714 78.262857 106.788572zM721.92 618.057143H607.085714V748.251429h-51.2V618.057143H438.857143V714.605714h-50.468572v-143.36h384V716.068571h-50.468571V618.057143zM457.874286 337.188571h139.702857v-62.171428H457.874286v62.171428z m0-104.594285h139.702857v-66.56H457.874286v66.56z m0-113.371429h355.474285v46.811429H647.314286v66.56h128v42.422857H647.314286v62.171428h125.805714v42.422858H647.314286v59.977142h147.748571v43.885715H652.434286c-10.971429 24.868571-22.674286 47.542857-34.377143 67.291428l-49.737143-8.777143c13.165714-17.554286 24.868571-37.302857 35.84-58.514285H471.771429c7.314286 16.822857 14.628571 34.377143 21.211428 51.931428l-48.274286 10.971429c-33.645714-90.697143-76.8-163.108571-129.462857-218.697143l32.182857-38.765714c21.942857 23.405714 42.422857 49.737143 61.44 77.531428v-280.868571h49.005715v33.645714z m139.702857 320.365714v-59.977142H457.874286v59.977142h139.702857z"  horiz-adv-x="1024" />

    
    <glyph glyph-name="ic_more" unicode="&#58971;" d="M196.923077 777.846154L315.076923 896 827.076923 384 315.076923-128 196.923077-9.846153999999956l393.846154 393.846154z"  horiz-adv-x="1024" />

    
    <glyph glyph-name="ic_more_pressed" unicode="&#58972;" d="M1365.333333 839.111111L1536 668.444444 796.444444-71.111111 56.888889 668.444444 227.555556 839.111111l568.888888-568.888889z"  horiz-adv-x="1592" />

    
    <glyph glyph-name="ic_navi_btn_help" unicode="&#58973;" d="M512-128C229.2224-128 0 101.2224 0 384S229.2224 896 512 896s512-229.2224 512-512-229.2224-512-512-512z m0 71.68a440.32 440.32 0 1 1 0 880.64 440.32 440.32 0 0 1 0-880.64zM519.9872 691.2c59.9552 0 107.776-14.336 144.3328-44.7488 34.6624-28.672 52.48-68.352 52.48-118.9888 0-37.9904-12.1856-70.8608-35.6352-98.7136-9.3696-10.1376-34.6624-32.1024-75.8784-65.024-20.6336-16.0256-34.7136-31.232-44.032-46.3872a108.8512 108.8512 0 0 1-17.8688-61.5936v-19.456H468.48v19.456c0 27.8016 5.632 52.2752 16.896 73.4208 13.1072 25.2928 44.032 57.344 94.6176 97.8944 15.0016 13.4656 26.2656 23.6032 31.8976 30.3616 18.7392 21.0944 28.1088 43.008 28.1088 66.6624 0 33.792-11.264 59.904-31.8976 78.4896-21.504 20.2752-52.48 29.5424-91.8528 29.5424-46.848 0-81.5104-13.5168-104.0384-41.3696-20.5824-23.6032-30.9248-55.6544-30.9248-97.024H307.2c0 59.0848 17.8176 106.3424 55.296 141.824C399.9744 672.5632 452.5056 691.2 519.9872 691.2zM505.856 177.25440000000003c15.9232 0 30.0032-4.2496 41.216-14.336a46.0288 46.0288 0 0 0 15.9744-35.4816c0-15.2064-5.632-26.9824-16.896-36.3008-11.264-9.2672-24.3712-14.336-40.2944-14.336-15.9232 0-29.0304 5.0688-40.2944 14.336a45.8752 45.8752 0 0 0-15.9232 36.3008c0 14.336 4.6592 26.1632 15.872 35.4304 11.264 10.1376 24.4224 14.336 40.3456 14.336z"  horiz-adv-x="1024" />

    
    <glyph glyph-name="ic_btn_consumable" unicode="&#58974;" d="M86.016 642.99008V261.12a24.576 24.576 0 1 0-49.152 0V686.14144c0 10.24 6.3488 19.39456 15.93344 22.99904L502.5792 878.03904a24.576 24.576 0 0 0 17.24416 0l451.35872-168.89856c21.27872-7.96672 21.27872-38.07232 0-46.01856l-451.3792-168.77568a24.576 24.576 0 0 0-16.85504-0.12288L86.016 642.99008z m-15.93344 20.13184l15.93344 23.01952v-17.03936l-15.93344-5.98016z m51.52768 19.3536l389.40672-138.93632 381.39904 142.60224-381.19424 142.6432-389.61152-146.30912zM516.096-58.67520000000002l421.888 176.90624V650.24a24.576 24.576 0 1 0 49.152 0v-548.37248c0-9.89184-5.9392-18.8416-15.07328-22.65088l-450.56-188.928c-6.59456-2.7648-13.7216-2.43712-19.74272 0.32768-5.91872-2.72384-12.96384-3.15392-19.72224-0.32768l-430.08 180.06016a24.576 24.576 0 1 0 18.96448 45.34272L466.944-50.11455999999998V486.4a24.576 24.576 0 1 0 49.152 0v-545.0752zM121.61024 682.47552l-35.59424-13.37344v-26.112l-7.92576 2.82624a24.576 24.576 0 1 0 16.50688 46.2848l27.01312-9.6256z"  horiz-adv-x="1024" />

    
    <glyph glyph-name="ic_pagecontrol_selec" unicode="&#58975;" d="M512 486.4m-307.2 0a307.2 307.2 0 1 1 614.4 0 307.2 307.2 0 1 1-614.4 0Z"  horiz-adv-x="1024" />

    
    <glyph glyph-name="ic_pagecontrol" unicode="&#58976;" d="M512 281.6a204.8 204.8 0 1 1 0 409.6 204.8 204.8 0 0 1 0-409.6z m0-102.4a307.2 307.2 0 1 0 0 614.4 307.2 307.2 0 0 0 0-614.4z"  horiz-adv-x="2969" />

    
    <glyph glyph-name="ic_tab_btn_function" unicode="&#58977;" d="M470.134154 711.246769l0.354461-237.804307c0-26.308923-21.346462-47.773538-47.773538-47.773539H154.190769A114.924308 114.924308 0 0 0 39.384615 540.553846V741.730462A114.924308 114.924308 0 0 0 154.190769 856.6153850000001h201.097846a114.924308 114.924308 0 0 0 114.845539-114.884923v-30.483693z m-50.845539-234.377846l-0.393846 183.138462V741.769846c0 35.131077-28.514462 63.684923-63.606154 63.684923H154.190769c-35.052308 0-63.606154-28.553846-63.606154-63.684923v-201.176615c0-35.131077 28.553846-63.684923 63.606154-63.684923h265.097846zM869.809231 856.6153850000001A115.081846 115.081846 0 0 0 984.615385 741.730462v-201.176616a114.924308 114.924308 0 0 0-114.806154-114.884923h-268.524308a47.812923 47.812923 0 0 0-47.773538 47.773539V711.246769l0.393846 30.483693A114.924308 114.924308 0 0 0 668.672 856.6153850000001h201.097846z m-264.743385-114.884923l-0.354461-81.683693v-183.177846h265.058461c35.052308 0 63.645538 28.553846 63.645539 63.684923V741.612308A63.881846 63.881846 0 0 1 869.809231 805.415385h-201.097846c-35.052308 0-63.645538-28.553846-63.645539-63.684923z m-134.931692-715.460924A114.924308 114.924308 0 0 0 355.249231-88.61538499999995H154.190769A114.924308 114.924308 0 0 0 39.384615 26.26953800000001v201.176616a114.924308 114.924308 0 0 0 114.806154 114.884923h268.524308c26.308923 0 47.773538-21.464615 47.773538-47.891692v-237.686154l-0.393846-30.483693z m-50.845539 264.861539h-265.058461c-35.052308 0-63.645538-28.553846-63.645539-63.684923v-201.176616c0-35.131077 28.553846-63.684923 63.606154-63.684923h201.097846c35.052308 0 63.645538 28.553846 63.645539 63.684923v81.683693l0.354461 183.177846z m450.520616 51.2A115.160615 115.160615 0 0 0 984.615385 227.44615399999998v-200.940308a114.924308 114.924308 0 0 0-114.806154-114.884923h-201.097846a114.924308 114.924308 0 0 0-114.845539 114.884923v30.483692l-0.354461 237.568c0 26.308923 21.346462 47.773538 47.773538 47.773539h268.524308z m-265.097846-234.141539l0.393846-81.683692c0-35.091692 28.514462-63.684923 63.606154-63.684923h201.097846c35.052308 0 63.606154 28.593231 63.606154 63.684923v200.861539a63.960615 63.960615 0 0 1-63.606154 63.803077h-265.097846v-182.980924z"  horiz-adv-x="1024" />

    
    <glyph glyph-name="ic_grid_icon8" unicode="&#58978;" d="M256.000427 664.533333a41.386667 41.386667 0 0 0-41.6 41.258667V854.4a41.6 41.6 0 0 0 83.2 0v-148.608A41.386667 41.386667 0 0 0 256.000427 664.533333zM958.080427 796.586667A66.005333 66.005333 0 0 0 1024.000427 730.538667v-792.490667A65.877333 65.877333 0 0 0 958.080427-128H65.920427A65.92 65.92 0 0 0 0.000427-61.952V730.538667a65.962667 65.962667 0 0 0 65.92 66.133333H148.480427v-74.368a107.52 107.52 0 0 1 215.04 0V796.586667h296.96V722.346667a107.52 107.52 0 0 1 215.04 0V796.586667h82.56zM545.280427 103.168v115.541333h115.2v-115.541333h-115.2z m0 181.632v115.541333h115.2v-115.541333h-115.2z m181.12 0v115.541333h115.84v-115.541333h-115.84z m-362.88 0v115.541333h115.2v-115.541333h-115.2z m-181.76-181.632v115.541333h115.84v-115.541333H181.760427z m-82.56-131.84h825.6V549.205333H99.200427v-577.962666zM181.760427 285.013333v115.541334h115.84v-115.541334H181.760427zM768.000427 664.789333v-0.256a41.386667 41.386667 0 0 0-41.6 41.258667V854.4A41.386667 41.386667 0 0 0 797.01376 883.669333c7.68-7.68 11.946667-18.133333 11.946667-29.013333v-148.608a40.874667 40.874667 0 0 0-40.96-41.258667zM363.520427 103.424v115.541333h115.2v-115.541333h-115.2z m362.88 0v115.541333h115.84v-115.541333h-115.84z"  horiz-adv-x="1024" />

    
    <glyph glyph-name="ic_grid_icon9" unicode="&#58979;" d="M691.593294 785.329571h-79.280987V840.664786H541.538371C518.695364 873.432685 476.9478 896 428.071643 896c-48.954926 0-90.70249-22.567315-113.427343-55.335214h-70.89209V785.329571H164.549992C106.300325 785.329571 59.078317 735.705109 59.078317 674.619758v-553.470297c0-61.085351 47.261393-110.670429 105.432291-110.670429H691.593294c58.210282 0 105.432291 49.585078 105.432291 110.670429V674.659143c0 61.085351-47.261393 110.670429-105.432291 110.670428zM288.059766 787.968332h62.385039c0 33.201129 35.0522 60.218892 78.020683 60.218892 43.007868 0 77.981299-27.017763 77.981298-60.218892h62.030579v-120.437783h-280.417599V787.968332z m315.863643-603.055375h-363.518881c-12.209193 0-21.937163 10.200584-21.937163 23.039929 0 12.839345 9.688586 23.000545 21.937163 23.000545h363.518881c12.209193 0 21.897779-10.1612 21.897779-23.000545 0-12.839345-9.688586-23.039929-21.937163-23.039929z m0 135.91589h-363.518881c-12.209193 0-21.937163 10.239968-21.937163 23.039929 0 12.839345 9.688586 23.039929 21.937163 23.039929h363.518881c12.209193 0 21.897779-10.200584 21.897779-23.039929 0-12.839345-9.688586-23.039929-21.937163-23.039929z m0 134.616201h-363.518881c-12.209193 0-21.937163 10.200584-21.937163 23.039929 0 12.839345 9.688586 23.000545 21.937163 23.000545h363.518881c12.209193 0 21.897779-10.1612 21.897779-23.000545 0-12.839345-9.688586-23.039929-21.937163-23.039929z m207.004902 185.894812v36.903272h28.750681a92.238485 92.238485 0 0 0 92.27787-92.238486v-616.012874a92.238485 92.238485 0 0 0-91.253873-92.238485L317.086138-127.996849a92.474792 92.474792 0 0 0-93.262482 92.238485v30.877444h36.903271v-31.507596a55.335214 55.335214 0 0 1 55.925982-54.744447l523.656235 5.750136a55.335214 55.335214 0 0 1 54.744447 55.374599V586.004646c0 30.562368-24.772847 55.374599-55.335215 55.374599h-28.790065z"  horiz-adv-x="1024" />

    
    <glyph glyph-name="ic_btn_colse" unicode="&#58980;" d="M512-128C229.2224-128 0 101.2224 0 384 0 666.7776 229.2224 896 512 896c282.7776 0 512-229.2224 512-512 0-282.7776-229.2224-512-512-512z m-6.058667 468.599467l153.5488-153.565867c5.137067-5.137067 11.8784-7.645867 18.602667-7.645867 6.741333 0 13.482667 2.5088 18.602667 7.645867a26.333867 26.333867 0 0 1 0 37.205333l-153.531734 153.565867 160.256 160.238933a26.4192 26.4192 0 0 1-37.341866 37.3248l-160.256-160.221866-153.531734 153.565866a26.3168 26.3168 0 1 1-37.205333-37.205333l153.531733-153.565867-148.087466-148.0704a26.402133 26.402133 0 0 1 0-37.341866c5.154133-5.154133 11.912533-7.68 18.670933-7.68a26.282667 26.282667 0 0 1 18.670933 7.68l148.0704 148.0704z"  horiz-adv-x="1024" />

    
    <glyph glyph-name="ic_btn_delete" unicode="&#58981;" d="M758.908522 441.38619H263.849457c-15.274597 0-29.781197-6.613303-40.106482-16.55459a59.349061 59.349061 0 0 1-16.127927-40.191816c0-16.213259 6.186638-29.86653 16.127927-41.47181 10.325286-9.514623 24.831886-16.127926 40.106482-16.127926h495.059065c15.701261 0 29.781197 6.613303 39.679818 16.127926 10.751951 11.60528 16.981256 25.301217 16.981255 41.47181 0 15.317263-6.229305 29.439865-16.981255 40.191816a56.191742 56.191742 0 0 1-39.679818 16.55459M1023.995307 384.639784C1023.995307 101.974413 794.876357-128.851196 509.522998-127.997867A510.717659 510.717659 0 0 0 39.679818 184.875366C13.653271 245.376422 0 313.344111 0 384.639784 0 667.262488 228.692285 896.808103 513.661646 895.99744 796.967014 895.144111 1023.995307 666.451825 1023.995307 384.639784"  horiz-adv-x="1024" />

    
    <glyph glyph-name="ic_navi_pin" unicode="&#58982;" d="M782.761092 722.744051A379.688569 379.688569 0 0 1 511.954808 836.746192c-105.810371 0-202.063676-43.689443-271.215873-114.002141-129.703035-131.06833-148.612372-341.050717-45.191268-492.735003a379.27898 379.27898 0 0 1 175.781745-143.355986 37.340821 37.340821 0 0 0 15.35957-9.557066l125.265826-129.498241 124.924502 129.498241c4.095885 3.618032 9.147477 6.89474 14.199069 9.284007a379.005921 379.005921 0 0 1 177.488364 143.629045c103.148045 151.684286 83.965649 361.734938-45.737386 492.735003M636.469721 573.585561a172.368507 172.368507 0 0 1-124.583178 52.905185c-48.877565 0-92.703538-20.001573-124.583178-52.905185a178.102746 178.102746 0 0 1-51.744685-126.221533c0-48.877565 19.796779-93.795774 51.744685-126.426326a175.030832 175.030832 0 0 1 249.166356 0 180.833337 180.833337 0 0 1 51.67642 126.426326c0 49.491948-19.796779 94.205362-51.67642 126.221533M511.886543 673.388633c61.574809 0 117.210585-25.462754 157.62332-66.353342 40.412735-40.617529 65.534165-97.277276 65.534165-159.671263 0-62.120927-25.12143-118.712409-65.534165-159.602997-40.412735-40.958853-96.048511-66.421607-157.691585-66.421607a222.065249 222.065249 0 0 0-157.896379 66.421607 228.004283 228.004283 0 0 0 0 319.27426A222.065249 222.065249 0 0 0 511.954808 673.388633m0 222.611367c122.876559 0 233.601992-50.652448 314.086139-132.160566 150.59205-151.957345 172.368507-395.116403 53.109979-571.376002a445.632322 445.632322 0 0 0-197.96779-162.470117l-141.581102-146.496165a39.593558 39.593558 0 0 0-55.089658-0.614383l-0.546118 0.614383-0.273059 0.546118-140.966719 145.950047a439.625024 439.625024 0 0 0-197.489937 162.470117c-119.804645 176.259598-97.75513 419.418656 52.563861 571.376002A440.307671 440.307671 0 0 0 511.886543 896"  horiz-adv-x="1024" />

    
    <glyph glyph-name="ic_deletepic" unicode="&#58983;" d="M512 896C794.267826 896 1024 666.312348 1024 384 1024 101.732174 794.312348-128 512-128S0 101.732174 0 384C0 666.312348 229.687652 896 512 896z m249.321739-710.344348L563.066435 384 761.321739 582.344348A36.062609 36.062609 0 1 1 710.344348 633.321739L512 435.021913 313.655652 633.321739a36.062609 36.062609 0 0 1-51.021913-51.021913l198.344348-198.344348L262.678261 185.655652A36.062609 36.062609 0 1 1 313.655652 134.678261l198.344348 198.299826 198.344348-198.299826a35.973565 35.973565 0 0 1 51.021913 0 36.062609 36.062609 0 0 1 0 50.977391z"  horiz-adv-x="1024" />

    
    <glyph glyph-name="ic_addpic" unicode="&#58984;" d="M666.112 639.9488c-176.2816 0-318.5664-137.6256-318.5664-308.1216 0-170.496 142.2848-308.1216 318.5664-308.1216 176.2816 0 318.5664 137.5744 318.5664 308.1216 3.072 167.4752-142.2848 308.1216-318.5664 308.1216z m558.9504 29.4912c61.0816-8.8064 102.8608-55.9104 106.1376-111.7696v-570.88C1331.2-77.9776 1273.344-128 1205.76-128H125.44C54.6304-128 0-75.008 0-13.2096V557.568c0 55.9104 41.8304 102.9632 102.912 111.8208l180.0192 26.4704 57.856 129.4848C360.0896 866.56 405.0944 896 456.5504 896h414.8224c51.456 0 96.4608-26.4704 115.712-70.656l57.856-129.4336 180.1216-26.4704z m-347.136-514.56c-100.608-114.688-276.6336-125.1328-391.6288-27.8528-118.5792 97.3312-129.3312 267.5712-28.7232 378.8288 100.608 114.688 276.6336 125.0816 391.6288 27.8016 114.944-97.3312 129.3312-267.6224 28.672-378.8288z m-215.552 326.2464c-93.2864 0-167.2192-67.6352-167.2192-152.9856 0-11.776 9.6256-17.664 19.2512-17.664 12.9024 0 19.3024 8.8576 19.3024 17.664 0 61.7472 54.6816 114.7392 125.3888 114.7392 12.8512 0 19.3024 8.8576 19.3024 17.664s-3.1744 20.5824-16.0256 20.5824zM1280-13.312L1276.5696 547.84c0 21.76-27.5456 65.536-47.9744 68.608l-209.5104 39.4752-82.3296 168.448c-6.8096 15.4624-37.6832 24.7808-54.6816 24.7808h-438.784c-16.9984 0-42.752-9.2672-49.5616-24.7808L314.1632 655.872l-211.6096-39.424c-20.3776-3.1232-53.76-50.0224-53.76-68.608v-561.152c0-21.76 39.424-61.952 63.1808-61.952h1108.992c23.8592 0 59.0336 40.192 59.0336 61.952z"  horiz-adv-x="1331" />

    
    <glyph glyph-name="ic_nfc" unicode="&#58985;" d="M504.17323 672.761591s39.820828 17.97626 65.021724-10.63785c25.200896-29.296752 89.596864-141.079507 89.596864-252.862261 0-111.725867-27.87458-230.847031-57.740201-270.098991-28.557223-39.934602-57.057559-39.934602-78.959015-25.257782C500.816903 127.841997 166.435717 384.003698 148.516344 391.342107c-18.602016 7.281523-25.200896-10.694737-7.33841-107.118028 17.919373-99.836506-11.263606-127.08533-36.464501-131.067413-24.57514-1.991041-100.177827 17.97626-104.15991 220.152295-3.356327 201.664053 50.401791 234.260245 75.659574 234.260245 47.102351 0 406.74132-323.345127 431.259573-320.671443 21.901456 3.29944 32.539306 140.339977-9.272565 248.823291-47.784994 117.073236 5.973124 137.040537 5.973125 137.040537zM1082.144112 874.31187C1202.801222 634.135387 1194.837056 406.644683 1194.837056 384.003698c0-22.640985 7.964166-250.13169-112.806718-490.36506 0 0-31.17402-36.578275-78.276372-14.619933-46.476596 21.958343-30.548264 79.186562-30.548264 79.186562s98.243673 189.604031 95.569989 422.442104V384.003698c2.673684 232.838073-95.569988 425.79843-95.569989 425.79843S957.334258 866.97346 1003.86774 888.98869c47.102351 21.958343 78.276371-14.67682 78.276372-14.67682z m-234.260246-107.743784c98.869428-180.331466 92.213661-359.923403 90.905263-382.564388 1.308399-22.640985 7.964166-194.268756-90.905263-389.220155 0 0-31.230907-36.578275-78.333258-14.619933-46.419709 21.958343-30.491377 79.186562-30.491377 79.186562s63.713326 91.815453 73.668532 321.297199V384.003698c-6.655767 230.847031-73.668533 317.372003-73.668532 317.372003s-15.928331 57.853975 30.491377 79.129675a66.728331 66.728331 0 0 0 78.333258-13.93729z"  horiz-adv-x="1195" />

    
    <glyph glyph-name="ic_btn_next" unicode="&#58986;" d="M292.967167-128c16.025544 0 32.051088 6.246378 44.287845 18.790334l438.014467 447.947232a65.074972 65.074972 0 0 1 0 90.521284L337.255012 877.257282a61.695784 61.695784 0 0 1-88.57569 0 65.074972 65.074972 0 0 1 0-90.521284L642.559543 383.998208 248.730521-18.688383a65.074972 65.074972 0 0 1 0-90.521283c12.236757-12.543956 28.262301-18.790334 44.236646-18.790334z"  horiz-adv-x="1024" />

    
    <glyph glyph-name="ic_btn_back" unicode="&#58987;" d="M731.031848-128c-16.025544 0-32.051088 6.246378-44.287845 18.790334L248.729536 338.737566a65.074972 65.074972 0 0 0 0 90.521284L686.744003 877.257282a61.695784 61.695784 0 0 0 88.57569 0c24.371115-24.985513 24.371115-65.535771 0-90.521284L381.439471 383.998208l393.777822-402.686591c24.422315-25.087912 24.422315-65.535771 0-90.521283-12.236757-12.543956-28.262301-18.790334-44.236645-18.790334z"  horiz-adv-x="1024" />

    
    <glyph glyph-name="ic_absenteeism" unicode="&#58988;" d="M0 896h1024v-1024H0V896z m519.872-256.96v-55.744h108.992v-79.04c0-36.608-1.664-73.216-4.992-108.16H497.408v-55.744h119.808c-19.968-133.952-66.56-230.464-139.776-289.536l36.608-49.088c76.544 64.064 127.296 163.072 152.256 297.024 39.104-118.976 99.84-217.984 183.04-296.192l40.768 47.424c-84.864 73.216-146.432 169.728-184.704 290.368h178.048v55.744h-52.416V639.04H685.44V765.504h-56.576v-126.464H519.872z m165.568-55.744h88.192v-187.2h-94.016c3.328 38.272 5.824 79.04 5.824 121.472V583.296z m-460.928 34.112h59.072v-144.768H135.488v-55.744h148.096v-293.696l-70.72-9.152V348.672h-53.248v-292.864l248.768 30.784v-41.6h53.248V348.672h-53.248v-208.832l-69.056-9.152V416.896h143.936v55.744H339.328V617.408h123.136v54.08H242.816c7.488 26.624 14.976 54.912 21.632 84.032L207.04 768C190.4 686.464 164.608 612.416 128 545.024l50.752-31.616c16.64 31.616 32.448 66.56 45.76 104z"  horiz-adv-x="1024" />

    
    </font>
</defs>
</svg>
