<?xml version="1.0" standalone="no"?><!DOCTYPE svg PUBLIC "-//W3C//DTD SVG 1.1//EN" "http://www.w3.org/Graphics/SVG/1.1/DTD/svg11.dtd"><svg t="1520306205910" class="icon" style="" viewBox="0 0 1024 1024" version="1.1" xmlns="http://www.w3.org/2000/svg" p-id="2373" xmlns:xlink="http://www.w3.org/1999/xlink" width="200" height="200"><defs><style type="text/css"></style></defs><path d="M769.9 383.8H578V255.9c0-35.3-28.6-64-64-64H258.2c-35.3 0-64 28.6-64 64v255.9c0 35.3 28.6 64 64 64h127.9v191.9c0 35.3 28.6 64 64 64H770c35.3 0 64-28.6 64-64V447.8c-0.1-35.4-28.7-64-64.1-64z m0 351.9c0 17.7-14.3 32-32 32H482.1c-17.7 0-32-14.3-32-32v-160h64c35.3 0 64-28.6 64-64v-64H738c17.7 0 32 14.3 32 32v256z m64-671.8H194.2c-70.7 0-127.9 57.3-127.9 127.9v639.7c0 70.7 57.3 127.9 127.9 127.9h639.7c70.7 0 127.9-57.3 127.9-127.9V191.9c0-70.7-57.2-128-127.9-128z m64 767.7c0 35.3-28.6 64-64 64H194.2c-35.3 0-64-28.6-64-64V191.9c0-35.3 28.6-64 64-64h639.7c35.3 0 64 28.6 64 64v639.7z" fill="#648CC8" p-id="2374"></path></svg>