<?xml version="1.0" standalone="no"?><!DOCTYPE svg PUBLIC "-//W3C//DTD SVG 1.1//EN" "http://www.w3.org/Graphics/SVG/1.1/DTD/svg11.dtd"><svg t="1520306213210" class="icon" style="" viewBox="0 0 1024 1024" version="1.1" xmlns="http://www.w3.org/2000/svg" p-id="2488" xmlns:xlink="http://www.w3.org/1999/xlink" width="200" height="200"><defs><style type="text/css"></style></defs><path d="M486.4 170.667H145.067c-6.28 0-11.378 5.097-11.378 11.377v671.29H179.2v-102.4c0-6.281 5.097-11.378 11.378-11.378h45.51c6.281 0 11.379 5.097 11.379 11.377v102.4h250.31V182.044c0-6.28-5.096-11.377-11.377-11.377z m-238.933 506.31a5.691 5.691 0 0 1-5.69 5.69H184.89a5.691 5.691 0 0 1-5.689-5.69V620.09a5.691 5.691 0 0 1 5.689-5.689h56.889a5.691 5.691 0 0 1 5.689 5.689v56.889z m0-125.155a5.691 5.691 0 0 1-5.69 5.69H184.89a5.691 5.691 0 0 1-5.689-5.69v-56.889a5.691 5.691 0 0 1 5.689-5.689h56.889a5.691 5.691 0 0 1 5.689 5.69v56.888z m0-125.155a5.691 5.691 0 0 1-5.69 5.689H184.89a5.691 5.691 0 0 1-5.689-5.69v-56.888a5.691 5.691 0 0 1 5.689-5.69h56.889a5.691 5.691 0 0 1 5.689 5.69v56.889z m0-125.156a5.691 5.691 0 0 1-5.69 5.689H184.89a5.691 5.691 0 0 1-5.689-5.689v-56.889a5.691 5.691 0 0 1 5.689-5.689h56.889a5.691 5.691 0 0 1 5.689 5.69v56.888z m102.4 375.467a5.691 5.691 0 0 1-5.69 5.689H287.29a5.691 5.691 0 0 1-5.689-5.69V620.09a5.691 5.691 0 0 1 5.689-5.689h56.889a5.691 5.691 0 0 1 5.689 5.689v56.889z m0-125.156a5.691 5.691 0 0 1-5.69 5.69H287.29a5.691 5.691 0 0 1-5.689-5.69v-56.889a5.691 5.691 0 0 1 5.689-5.689h56.889a5.691 5.691 0 0 1 5.689 5.69v56.888z m0-125.155a5.691 5.691 0 0 1-5.69 5.689H287.29a5.691 5.691 0 0 1-5.689-5.69v-56.888a5.691 5.691 0 0 1 5.689-5.69h56.889a5.691 5.691 0 0 1 5.689 5.69v56.889z m0-125.156a5.691 5.691 0 0 1-5.69 5.689H287.29a5.691 5.691 0 0 1-5.689-5.689v-56.889a5.691 5.691 0 0 1 5.689-5.689h56.889a5.691 5.691 0 0 1 5.689 5.69v56.888z m102.4 375.467a5.691 5.691 0 0 1-5.69 5.689H389.69a5.691 5.691 0 0 1-5.689-5.69V620.09a5.691 5.691 0 0 1 5.689-5.689h56.889a5.691 5.691 0 0 1 5.689 5.689v56.889z m0-125.156a5.691 5.691 0 0 1-5.69 5.69H389.69a5.691 5.691 0 0 1-5.689-5.69v-56.889a5.691 5.691 0 0 1 5.689-5.689h56.889a5.691 5.691 0 0 1 5.689 5.69v56.888z m0-125.155a5.691 5.691 0 0 1-5.69 5.689H389.69a5.691 5.691 0 0 1-5.689-5.69v-56.888a5.691 5.691 0 0 1 5.689-5.69h56.889a5.691 5.691 0 0 1 5.689 5.69v56.889z m0-125.156a5.691 5.691 0 0 1-5.69 5.689H389.69a5.691 5.691 0 0 1-5.689-5.689v-56.889a5.691 5.691 0 0 1 5.689-5.689h56.889a5.691 5.691 0 0 1 5.689 5.69v56.888zM899.083 498.29L557.75 402.284c-7.259-2.037-14.461 3.413-14.461 10.957v440.092H588.8v-91.022c0-6.28 5.097-11.378 11.378-11.378h45.51c6.281 0 11.379 5.098 11.379 11.378v91.022h250.31V509.247c0-5.098-3.39-9.58-8.294-10.957zM657.067 699.733a5.691 5.691 0 0 1-5.69 5.69H594.49a5.691 5.691 0 0 1-5.689-5.69v-56.889a5.691 5.691 0 0 1 5.689-5.688h56.889a5.691 5.691 0 0 1 5.689 5.688v56.89z m0-125.155a5.691 5.691 0 0 1-5.69 5.689H594.49a5.691 5.691 0 0 1-5.689-5.69V517.69a5.691 5.691 0 0 1 5.689-5.689h56.889a5.691 5.691 0 0 1 5.689 5.689v56.889z m102.4 125.155a5.691 5.691 0 0 1-5.69 5.69H696.89a5.691 5.691 0 0 1-5.689-5.69v-56.889a5.691 5.691 0 0 1 5.689-5.688h56.889a5.691 5.691 0 0 1 5.689 5.688v56.89z m0-125.155a5.691 5.691 0 0 1-5.69 5.689H696.89a5.691 5.691 0 0 1-5.689-5.69V517.69a5.691 5.691 0 0 1 5.689-5.689h56.889a5.691 5.691 0 0 1 5.689 5.689v56.889z m102.4 125.155a5.691 5.691 0 0 1-5.69 5.69H799.29a5.691 5.691 0 0 1-5.689-5.69v-56.889a5.691 5.691 0 0 1 5.689-5.688h56.889a5.691 5.691 0 0 1 5.689 5.688v56.89z m0-125.155a5.691 5.691 0 0 1-5.69 5.689H799.29a5.691 5.691 0 0 1-5.689-5.69V517.69a5.691 5.691 0 0 1 5.689-5.689h56.889a5.691 5.691 0 0 1 5.689 5.689v56.889z" fill="#648CC8" p-id="2489"></path></svg>