<?xml version="1.0" standalone="no"?>
<!DOCTYPE svg PUBLIC "-//W3C//DTD SVG 1.1//EN" "http://www.w3.org/Graphics/SVG/1.1/DTD/svg11.dtd" >
<!--
2013-9-30: Created.
-->
<svg>
<metadata>
Created by iconfont
</metadata>
<defs>

<font id="iconfont" horiz-adv-x="1024" >
  <font-face
    font-family="iconfont"
    font-weight="500"
    font-stretch="normal"
    units-per-em="1024"
    ascent="896"
    descent="-128"
  />
    <missing-glyph />
    
    <glyph glyph-name="scanbar" unicode="&#59155;" d="M298.666667 853.333333l-42.666667 0 0-217.6c12.8 8.533333 27.733333 14.933333 42.666667 21.333333L298.666667 853.333333zM448 680.533333L448 853.333333l-106.666667 0 0-181.333333c27.733333 6.4 55.466667 10.666667 85.333333 10.666667C433.066667 682.666667 441.6 682.666667 448 680.533333zM42.666667 810.666667l0-597.333333c0-23.466667 19.2-42.666667 42.666667-42.666667L85.333333 853.333333C61.866667 853.333333 42.666667 834.133333 42.666667 810.666667zM213.333333 608L213.333333 853.333333 128 853.333333l0-347.733333C149.333333 546.133333 179.2 580.266667 213.333333 608zM533.333333 853.333333l-42.666667 0 0-177.066667c14.933333-2.133333 29.866667-6.4 42.666667-10.666667L533.333333 853.333333zM768 853.333333l-106.666667 0 0-264.533333c66.133333-61.866667 106.666667-149.333333 106.666667-247.466667L768 853.333333zM128 170.66666699999996l4.266667 0C130.133333 172.79999999999995 128 174.93333299999995 128 177.06666700000005L128 170.66666699999996zM618.666667 853.333333l-42.666667 0 0-204.8c14.933333-6.4 29.866667-14.933333 42.666667-23.466667L618.666667 853.333333zM938.666667 853.333333l-42.666667 0 0-682.666667 42.666667 0c23.466667 0 42.666667 19.2 42.666667 42.666667L981.333333 810.666667C981.333333 834.133333 962.133333 853.333333 938.666667 853.333333zM768 170.66666699999996l0 170.666667c0-61.866667-17.066667-119.466667-46.933333-170.666667L768 170.66666699999996zM298.666667 228.26666699999998L298.666667 454.4c-25.6-29.866667-42.666667-70.4-42.666667-113.066667S273.066667 258.133333 298.666667 228.26666699999998zM810.666667 170.66666699999996l42.666667 0L853.333333 853.333333l-42.666667 0L810.666667 170.66666699999996zM652.8 145.06666700000005c44.8 53.333333 72.533333 121.6 72.533333 196.266667 0 164.266667-134.4 298.666667-298.666667 298.666667-164.266667 0-298.666667-134.4-298.666667-298.666667 0-164.266667 134.4-298.666667 298.666667-298.666667 74.666667 0 142.933333 27.733333 196.266667 72.533333l194.133333-194.133333c4.266667-4.266667 8.533333-6.4 14.933333-6.4 12.8 0 21.333333 8.533333 21.333333 21.333333 0 6.4-2.133333 10.666667-6.4 14.933333L652.8 145.06666700000005zM426.666667 85.33333300000004c-140.8 0-256 115.2-256 256 0 140.8 115.2 256 256 256 140.8 0 256-115.2 256-256C682.666667 200.53333299999997 567.466667 85.33333300000004 426.666667 85.33333300000004zM341.333333 488.533333l0-294.4c25.6-14.933333 53.333333-23.466667 85.333333-23.466667 6.4 0 14.933333 0 21.333333 2.133333L448 509.866667c-6.4 0-14.933333 2.133333-21.333333 2.133333C394.666667 512 366.933333 503.466667 341.333333 488.533333zM490.666667 183.46666700000003c14.933333 6.4 29.866667 14.933333 42.666667 25.6L533.333333 473.6c-12.8 10.666667-27.733333 19.2-42.666667 25.6L490.666667 183.46666700000003zM576 258.133333c12.8 23.466667 21.333333 53.333333 21.333333 83.2s-8.533333 57.6-21.333333 83.2L576 258.133333z"  horiz-adv-x="1024" />

    
    <glyph glyph-name="radio-active" unicode="&#59153;" d="M510.54537 833.634604c-247.564375 0-448.16002-200.594621-448.16002-448.16002s200.595644-448.161043 448.16002-448.161043S958.70539 137.91123200000004 958.70539 385.475608 758.109746 833.634604 510.54537 833.634604L510.54537 833.634604zM510.54537-25.410483999999997c-226.449475 0-410.885068 184.219675-410.885068 410.886091 0 226.449475 184.218652 410.885068 410.885068 410.885068 226.449475 0 410.885068-184.219675 410.885068-410.885068C921.430438 159.02510900000004 736.994845-25.410483999999997 510.54537-25.410483999999997L510.54537-25.410483999999997zM510.54537-25.410483999999997M510.54537 730.213139c-190.470029 0-344.737532-154.267503-344.737532-344.737532 0-190.463889 154.267503-344.737532 344.737532-344.737532 190.463889 0 344.737532 154.273642 344.737532 344.737532C855.282902 575.945637 701.00926 730.213139 510.54537 730.213139L510.54537 730.213139zM510.54537 730.213139"  horiz-adv-x="1024" />

    
    <glyph glyph-name="signature" unicode="&#58901;" d="M647.93750187 824.34174703l223.42915171-254.09699354c4.38147482-4.38147482 8.76170809-13.1431829 8.76170808-17.52341618l0-4.38147482L880.12836166-38.709502250000014l0 0c0-17.52341618-13.1431829-26.28636703-26.28636703-26.28636702L647.93750187-64.99586926999996l0 52.5714925 179.6193685 0L827.55687037 526.43621183 647.93750187 526.43621183l0 48.19125923 148.9527682 0L647.93750187 745.48513026 647.93750187 824.34174703 647.93750187 824.34174703zM647.93750187 83.95814048l70.09615022-8.7617081c0 0 0 0 4.38147481 0 8.76170809 4.38147482 17.52341618 13.1431829 17.52341618 26.28636703l-8.76170808 83.2380928 0 0-4.38147482 87.61956762c0 4.38147482-4.38147482 8.76170809-4.38147481 13.1431829-4.38147482 0-4.38147482 0-4.38147482 0 0 4.38147482 0 4.38147482-4.38147482 4.38147481l-65.71467541 70.09615023 0-61.33320059 21.90489221-21.90489221-21.90489221-21.90489221 0 0 0-74.4763835 39.42830839 39.4283084 4.38147482-39.4283084 0 0 0 0 4.38147482-56.95296732-48.19125925 4.38147482L647.93626032 83.95814048zM643.5572686 828.72322306l4.38147481-4.38147482 0-78.85785952-4.38147481 4.38147482L643.5572686 828.72322306 643.5572686 828.72322306zM647.93750187-64.99586926999996l-4.38147482 0 0 52.5714925 4.38147482 0L647.93750187-64.99586926999996 647.93750187-64.99586926999996zM647.93750187 574.62622831l0-48.19125925-4.38147482 0 0 48.19125925L647.93750187 574.62622831 647.93750187 574.62622831zM647.93750187 359.95878468l0-61.33320059-4.38147482 4.38147482 0 56.95296732L647.93750187 359.96002744 647.93750187 359.95878468zM647.93750187 254.81580089l0-74.4763835-4.38147482-4.38147481 0 0 0 83.2380928L647.93750187 254.81580089 647.93750187 254.81580089zM647.93750187 127.76792488000001l0-43.80978319-4.38147482 0 0 43.80978319L647.93750187 127.76792488000001 647.93750187 127.76792488000001zM643.5572686 175.95794135999995L643.5572686 175.95794135999995 643.5572686 175.95794135999995zM612.8906683 846.24663924L612.8906683 846.24663924 612.8906683 846.24663924 612.8906683 846.24663924 612.8906683 846.24663924c8.76170809 0 13.1431829 0 17.52341617-8.76170809l13.14318291-8.76170809 0-78.85785952-4.38147481 4.38147481 0-179.61936851 4.38147481 0 0-48.19125923-30.6666003 0 0 0c-4.38147482 0-4.38147482 0-4.38147481 0L608.50919348 846.24663924 612.8906683 846.24663924 612.8906683 846.24663924zM643.5572686-64.99586926999996l-35.04807512 0 0 52.5714925 35.04807512 0L643.5572686-64.99586926999996 643.5572686-64.99586926999996zM643.5572686 359.95878468l0-56.95296732-35.04807512 35.04807512L608.50919348 399.38833583 643.5572686 359.95878468 643.5572686 359.95878468zM643.5572686 259.19603415999995l0-83.2380928 0 0-35.04807512-35.04807511 0 70.09615023 8.76170809 13.1431829-8.76170809 8.76170809 0 61.33320059L643.5572686 259.19603415999995 643.5572686 259.19603415999995zM643.5572686 127.76792488000001l0-43.80978319-13.14318291 0 0 0-21.90489221 4.38147482 0 39.42830837 26.28636702 0 0 0L643.5572686 127.76792488000001 643.5572686 127.76792488000001zM643.5572686 175.95794135999995L643.5572686 175.95794135999995 643.5572686 175.95794135999995zM608.50919348-64.99586926999996l-127.047876 0 0 52.5714925 127.047876 0L608.50919348-64.99586926999996 608.50919348-64.99586926999996zM481.46131748 846.24663924l127.047876 0L608.50919348 526.43621183c-13.1431829 0-21.90489221 13.1431829-21.9048922 26.28636703L586.60430128 798.05662276l-105.1429838 0L481.46131748 846.24663924 481.46131748 846.24663924zM608.50919348 399.38833583l0-61.3332006-127.047876 122.66764273 0 61.3332006L608.50919348 399.38833583 608.50919348 399.38833583zM608.50919348 294.24410928l-127.047876 127.047876 0-61.3332006 127.047876-127.047876L608.50919348 294.24410928 608.50919348 294.24410928zM608.50919348 211.00601647999997l0-70.09615023-13.14318291-8.76170809 13.14318291-4.38147481 0-39.42830839-61.33320059 4.38147482c-8.76170809 0-13.1431829 4.38147482-17.52341618 8.76170808l0 0-4.38147481 0-43.80978321 48.19125924 0 61.33320058 61.3332006-61.33320058 21.9048922 17.52341618-83.2380928 83.2380928 0 61.33320058 113.9046931-113.90593463L608.50919348 211.00601647999997zM481.46131748-64.99586926999996l-65.71467541 0 0 52.5714925 65.71467541 0L481.46131748-64.99586926999996 481.46131748-64.99586926999996zM415.74664086 846.24663924l65.71467541 0 0-48.19125923-65.71467541 0L415.74664086 846.24663924 415.74664086 846.24663924zM481.46131748 522.05473701l0-61.33320059-13.1431829 13.1431829-17.52341618-21.90489221 30.66660029-30.6666003 0-61.33320058-61.33320059 61.33320058-4.38147481 0 0 61.3332006 21.90489221 21.9048922-21.90489221 21.90489222 0 61.33320058L481.46131748 522.05473701 481.46131748 522.05473701zM481.46131748 311.76876820999996l-65.71467541 65.71467541 0-61.33320059 65.71467541-65.71467542L481.46131748 311.76876820999996 481.46131748 311.76876820999996zM481.46131748 211.00601647999997l0-61.3332006-65.71467541 61.3332006 0 61.33320058L481.46131748 211.00601647999997zM415.74664086-64.99586926999996l-56.95296732 0 0 52.5714925 56.95296732 0L415.74664086-64.99586926999996 415.74664086-64.99586926999996zM358.79367354 846.24663924l56.95296732 0 0-48.19125923-56.95296732 0L358.79367354 846.24663924 358.79367354 846.24663924zM415.74664086 587.76941241l0-61.33320058-13.14318291 17.52341618-43.8097832-43.80978321 0 61.33320059 26.28636703 26.28636702C393.84174987 596.5311205099999 406.98493277 596.5311205099999 415.74664086 587.76941241L415.74664086 587.76941241 415.74664086 587.76941241 415.74664086 587.76941241zM415.74664086 482.62642741l0-61.3332006-21.90489221-21.9048922 21.90489221-21.9048922 0-61.3332006-52.57149251 52.5714925-4.38147481-8.76170808 0 61.33320058L415.74664086 482.62642741 415.74664086 482.62642741zM415.74664086 272.33921706l-56.95296732 61.3332006 0-61.3332006 56.95296732-61.33320058L415.74664086 272.33921706zM358.79367354-64.99586926999996L166.03112212-64.99586926999996l0 0c-17.52341618 0-26.28636703 8.76170809-26.28636702 26.28636702L139.7447551 819.96151376c0 17.52341618 8.76170809 26.28636703 26.28636702 26.28636703l192.76255142 0 0-48.19125925L192.31624761 798.05662276l0-810.479758 166.47742714 0L358.79367354-64.99586926999996 358.79367354-64.99586926999996zM358.79367354 561.48428694l-131.42935082-127.047876c-8.76170809-8.76170809-8.76170809-26.28636703 0-30.6666003l131.42935082-131.42935081 0 61.33320058-13.14318291 13.14318291 13.14318291 13.14318291 0 61.33320058-43.8097832-43.80978319-39.42830839 39.42830838 83.2380928 83.2380928L358.79367354 561.48428694z"  horiz-adv-x="1024" />

    
    <glyph glyph-name="datijilu" unicode="&#58886;" d="M1166.20578 659.236994l-0.44393 75.912139s6.65896 53.863584-61.410405 53.863584H581.549133S535.824277 790.936416 535.824277 745.063584v-657.905202s4.883237-53.419653 57.415029-53.419654h133.623122s27.079769-4.883237 27.079769-33.442774-25.304046-29.447399-25.304047-29.447399l-167.361849 0.295954s-88.63815 15.981503-89.082081 99.884393-0.443931 667.375723-0.443931 667.375722-10.802312 113.646243 113.054335 113.646243 543.075145-0.887861 543.075145-0.887861 97.66474-0.739884 99.292485-90.709827c1.775723-89.969942 1.479769-103.139884 1.479769-103.139884s-3.699422-29.299422-30.483237-29.299422c-26.487861 0-31.815029 27.375723-31.963006 31.223121zM1040.57341 385.183815v-127.260116s-1.331792-14.797688 12.134104-28.707514c13.465896-14.057803 124.004624-126.076301 124.004625-126.076301s21.160694-10.506358 38.917919 7.250867-2.515607 41.581503-2.515607 41.581503l-102.843931 108.615029s-7.546821 4.883237-7.546821 25.008093-0.295954 99.736416-0.295953 99.736416-8.434682 26.191908-29.743353 26.191907c-21.160694 0-31.815029-17.905202-32.110983-26.339884zM1101.983815 534.936416c-172.836994 0-312.971098-140.134104-312.971098-312.971098S929.146821-91.00578 1101.983815-91.00578s312.971098 140.134104 312.971098 312.971098S1274.820809 534.936416 1101.983815 534.936416z m0-565.271676c-139.39422 0-252.300578 112.906358-252.300578 252.300578S962.589595 474.265896 1101.983815 474.265896s252.300578-112.906358 252.300578-252.300578S1241.378035-30.33526 1101.983815-30.33526zM735.001156 411.523699h-84.642774c-13.613873 0-24.860116 11.098266-24.860116 24.860116v13.317919c0 13.613873 11.098266 24.860116 24.860116 24.860116h84.642774c13.613873 0 24.860116-11.098266 24.860116-24.860116v-13.317919c0-13.76185-11.246243-24.860116-24.860116-24.860116zM1050.191908 600.342197H650.506358c-13.613873 0-24.860116 11.098266-24.860115 24.860115v13.317919c0 13.613873 11.098266 24.860116 24.860115 24.860116h399.68555c13.613873 0 24.860116-11.098266 24.860115-24.860116v-13.317919c0-13.76185-11.246243-24.860116-24.860115-24.860115z"  horiz-adv-x="1879" />

    
    <glyph glyph-name="history" unicode="&#58991;" d="M511.488 896C228.864 896 0 666.624 0 384s228.864-512 511.488-512C794.624-128 1024 101.37599999999998 1024 384S794.624 896 511.488 896zM512-71.96672000000001C260.096-71.96672000000001 56.03328 132.096 56.03328 384 56.03328 635.904 260.096 839.96672 512 839.96672 763.904 839.96672 967.96672 635.904 967.96672 384c0-251.904-204.04224-455.96672-455.96672-455.96672z m215.53152 310.4768h0.02048L540.71296 427.008V635.6992h-0.22528c0 19.3536-15.5648 35.0208-34.73408 35.0208a34.87744 34.87744 0 0 1-34.48832-38.912v-220.22144a35.06176 35.06176 0 0 1 15.2576-28.99968l191.488-193.1264 0.43008-0.45056h0.02048c13.59872-13.23008 35.2256-13.08672 48.66048 0.43008a35.2256 35.2256 0 0 1 0.4096 49.09056z"  horiz-adv-x="1024" />

    
    <glyph glyph-name="group" unicode="&#59010;" d="M769.9 512.2H578V640.1c0 35.3-28.6 64-64 64H258.2c-35.3 0-64-28.6-64-64v-255.9c0-35.3 28.6-64 64-64h127.9v-191.9c0-35.3 28.6-64 64-64H770c35.3 0 64 28.6 64 64V448.2c-0.1 35.4-28.7 64-64.1 64z m0-351.9c0-17.7-14.3-32-32-32H482.1c-17.7 0-32 14.3-32 32v160h64c35.3 0 64 28.6 64 64v64H738c17.7 0 32-14.3 32-32v-256z m64 671.8H194.2c-70.7 0-127.9-57.3-127.9-127.9v-639.7c0-70.7 57.3-127.9 127.9-127.9h639.7c70.7 0 127.9 57.3 127.9 127.9V704.1c0 70.7-57.2 128-127.9 128z m64-767.7c0-35.3-28.6-64-64-64H194.2c-35.3 0-64 28.6-64 64V704.1c0 35.3 28.6 64 64 64h639.7c35.3 0 64-28.6 64-64v-639.7z"  horiz-adv-x="1024" />

    
    <glyph glyph-name="building" unicode="&#59011;" d="M486.4 725.333H145.067c-6.28 0-11.378-5.097-11.378-11.377v-671.29H179.2v102.4c0 6.281 5.097 11.378 11.378 11.378h45.51c6.281 0 11.379-5.097 11.379-11.377v-102.4h250.31V713.956c0 6.28-5.096 11.377-11.377 11.377z m-238.933-506.31a5.691 5.691 0 0 0-5.69-5.69H184.89a5.691 5.691 0 0 0-5.689 5.69V275.91a5.691 5.691 0 0 0 5.689 5.689h56.889a5.691 5.691 0 0 0 5.689-5.689v-56.889z m0 125.155a5.691 5.691 0 0 0-5.69-5.69H184.89a5.691 5.691 0 0 0-5.689 5.69v56.889a5.691 5.691 0 0 0 5.689 5.689h56.889a5.691 5.691 0 0 0 5.689-5.69v-56.888z m0 125.155a5.691 5.691 0 0 0-5.69-5.689H184.89a5.691 5.691 0 0 0-5.689 5.69v56.888a5.691 5.691 0 0 0 5.689 5.69h56.889a5.691 5.691 0 0 0 5.689-5.69v-56.889z m0 125.156a5.691 5.691 0 0 0-5.69-5.689H184.89a5.691 5.691 0 0 0-5.689 5.689v56.889a5.691 5.691 0 0 0 5.689 5.689h56.889a5.691 5.691 0 0 0 5.689-5.69v-56.888z m102.4-375.467a5.691 5.691 0 0 0-5.69-5.689H287.29a5.691 5.691 0 0 0-5.689 5.69V275.91a5.691 5.691 0 0 0 5.689 5.689h56.889a5.691 5.691 0 0 0 5.689-5.689v-56.889z m0 125.156a5.691 5.691 0 0 0-5.69-5.69H287.29a5.691 5.691 0 0 0-5.689 5.69v56.889a5.691 5.691 0 0 0 5.689 5.689h56.889a5.691 5.691 0 0 0 5.689-5.69v-56.888z m0 125.155a5.691 5.691 0 0 0-5.69-5.689H287.29a5.691 5.691 0 0 0-5.689 5.69v56.888a5.691 5.691 0 0 0 5.689 5.69h56.889a5.691 5.691 0 0 0 5.689-5.69v-56.889z m0 125.156a5.691 5.691 0 0 0-5.69-5.689H287.29a5.691 5.691 0 0 0-5.689 5.689v56.889a5.691 5.691 0 0 0 5.689 5.689h56.889a5.691 5.691 0 0 0 5.689-5.69v-56.888z m102.4-375.467a5.691 5.691 0 0 0-5.69-5.689H389.69a5.691 5.691 0 0 0-5.689 5.69V275.91a5.691 5.691 0 0 0 5.689 5.689h56.889a5.691 5.691 0 0 0 5.689-5.689v-56.889z m0 125.156a5.691 5.691 0 0 0-5.69-5.69H389.69a5.691 5.691 0 0 0-5.689 5.69v56.889a5.691 5.691 0 0 0 5.689 5.689h56.889a5.691 5.691 0 0 0 5.689-5.69v-56.888z m0 125.155a5.691 5.691 0 0 0-5.69-5.689H389.69a5.691 5.691 0 0 0-5.689 5.69v56.888a5.691 5.691 0 0 0 5.689 5.69h56.889a5.691 5.691 0 0 0 5.689-5.69v-56.889z m0 125.156a5.691 5.691 0 0 0-5.69-5.689H389.69a5.691 5.691 0 0 0-5.689 5.689v56.889a5.691 5.691 0 0 0 5.689 5.689h56.889a5.691 5.691 0 0 0 5.689-5.69v-56.888zM899.083 397.71L557.75 493.716c-7.259 2.037-14.461-3.413-14.461-10.957v-440.092H588.8v91.022c0 6.28 5.097 11.378 11.378 11.378h45.51c6.281 0 11.379-5.098 11.379-11.378v-91.022h250.31V386.753c0 5.098-3.39 9.58-8.294 10.957zM657.067 196.267a5.691 5.691 0 0 0-5.69-5.69H594.49a5.691 5.691 0 0 0-5.689 5.69v56.889a5.691 5.691 0 0 0 5.689 5.688h56.889a5.691 5.691 0 0 0 5.689-5.688v-56.89z m0 125.155a5.691 5.691 0 0 0-5.69-5.689H594.49a5.691 5.691 0 0 0-5.689 5.69V378.31a5.691 5.691 0 0 0 5.689 5.689h56.889a5.691 5.691 0 0 0 5.689-5.689v-56.889z m102.4-125.155a5.691 5.691 0 0 0-5.69-5.69H696.89a5.691 5.691 0 0 0-5.689 5.69v56.889a5.691 5.691 0 0 0 5.689 5.688h56.889a5.691 5.691 0 0 0 5.689-5.688v-56.89z m0 125.155a5.691 5.691 0 0 0-5.69-5.689H696.89a5.691 5.691 0 0 0-5.689 5.69V378.31a5.691 5.691 0 0 0 5.689 5.689h56.889a5.691 5.691 0 0 0 5.689-5.689v-56.889z m102.4-125.155a5.691 5.691 0 0 0-5.69-5.69H799.29a5.691 5.691 0 0 0-5.689 5.69v56.889a5.691 5.691 0 0 0 5.689 5.688h56.889a5.691 5.691 0 0 0 5.689-5.688v-56.89z m0 125.155a5.691 5.691 0 0 0-5.69-5.689H799.29a5.691 5.691 0 0 0-5.689 5.69V378.31a5.691 5.691 0 0 0 5.689 5.689h56.889a5.691 5.691 0 0 0 5.689-5.689v-56.889z"  horiz-adv-x="1024" />

    
    <glyph glyph-name="menu_list" unicode="&#59015;" d="M701.1 246.6H322.3c-19 0-34.4-15.4-34.4-34.4s15.4-34.4 34.4-34.4h378.8c19 0 34.4 15.4 34.4 34.4s-15.4 34.4-34.4 34.4zM322.3 453.3H460c19 0 34.4 15.4 34.4 34.4S479 522.1 460 522.1H322.3c-19 0-34.4-15.4-34.4-34.4-0.1-19 15.4-34.4 34.4-34.4z m310 309.9H356.7c-95.1 0-172.2-77.1-172.2-172.2v-413.2c0-95.1 77.1-172.2 172.2-172.2h309.9c95.1 0 172.2 77.1 172.2 172.2v379c-22.4 22.7-206.5 206.4-206.5 206.4z m172.1-583.8c0.4-73-67.3-138.7-137.7-138.8-16.2 0-285.5-0.7-309.9-0.5-70-0.1-137.7 68.6-137.7 137.7V591c0 66.6 71.2 137.7 137.7 137.7l207.1 1.6s-0.1-60.7-0.3-121.3c0-85.7 34.5-120.8 121.4-120.8 59.9-0.1 119.4-0.1 119.4-0.1s-0.4-235.7 0-308.7z m-103.3 205H322.3c-19 0-34.4-15.4-34.4-34.4s15.4-34.4 34.4-34.4h378.8c19 0 34.4 15.4 34.4 34.4s-15.4 34.4-34.4 34.4zM809.8 523.3h-141c-38 0-68.9 30.8-68.9 68.9V728.9l209.9-205.6z"  horiz-adv-x="1024" />

    
    <glyph glyph-name="menu_function" unicode="&#59016;" d="M390.5 712.5H218c-38.1 0-69-30.9-69-69V471c0-38.1 30.9-69 69-69h172.5c38.1 0 69 30.9 69 69V643.5c-0.1 38.1-30.9 69-69 69zM425 471c0-19-15.4-34.5-34.5-34.5H218c-19 0-34.5 15.4-34.5 34.5V643.5c0 19 15.4 34.5 34.5 34.5h172.5c19 0 34.5-15.4 34.5-34.5V471z m-34.5-137.9H218c-38.1 0-69-30.9-69-69v-172.5c0-38.1 30.9-69 69-69h172.5c38.1 0 69 30.9 69 69V264.1c-0.1 38.1-30.9 69-69 69zM425 108.9c0-28.6-23.2-51.7-51.7-51.7h-138c-28.6 0-51.7 23.2-51.7 51.7v138c0 28.6 23.2 51.7 51.7 51.7h138c28.6 0 51.7-23.2 51.7-51.7v-138z m423.7 501.7L736.9 722.3c-24.7 24.7-64.7 24.7-89.4 0L535.9 610.6c-24.7-24.7-24.7-64.7 0-89.4l111.7-111.7c24.7-24.7 64.7-24.7 89.4 0l111.7 111.7c24.6 24.7 24.6 64.7 0 89.4z m-33.6-78.2L725.8 443c-18.5-18.5-48.5-18.5-67 0l-89.4 89.4c-18.5 18.5-18.5 48.5 0 67l89.4 89.4c18.5 18.5 48.5 18.5 67 0l89.4-89.4c18.4-18.5 18.4-48.5-0.1-67z m-45.2-199.3H597.4c-38.1 0-69-30.9-69-69v-172.5c0-38.1 30.9-69 69-69h172.5c38.1 0 69 30.9 69 69V264.1c-0.1 38.1-30.9 69-69 69z m34.4-224.2c0-28.6-23.2-51.7-51.7-51.7h-138c-28.6 0-51.7 23.2-51.7 51.7v138c0 28.6 23.2 51.7 51.7 51.7h138c28.6 0 51.7-23.2 51.7-51.7v-138z"  horiz-adv-x="1024" />

    
    <glyph glyph-name="menu_service" unicode="&#59017;" d="M675.4 536.3c38.1 0 68.9 30.8 68.9 68.9V708.6H262v-103.3c0-38.1 30.8-68.9 68.9-68.9h128.6l51.7-51.7c-14.8-0.2-27.6-8.8-33.5-22.5L436.8 367c-0.3-0.6-0.8-1-1.5-1.1l-102.5-9.8c-15-1.4-27.1-11.3-31.8-25.7-4.6-14.4-0.5-29.6 10.7-39.6l77.2-68.6c0.5-0.4 0.7-1.1 0.6-1.8l-22.4-101.2c-3.3-14.8 2.2-29.5 14.4-38.4 6.6-4.8 14.1-7.2 21.7-7.2 6.5 0 13 1.8 18.9 5.3l88.6 52.7c0.6 0.3 1.3 0.3 1.8 0l88.6-52.7c12.9-7.7 28.5-7 40.6 1.9 12.2 8.9 17.7 23.6 14.4 38.4L634 220.5c-0.2 0.7 0.1 1.3 0.6 1.8l77.2 68.6c11.3 10 15.4 25.2 10.8 39.6-4.7 14.4-16.8 24.2-31.8 25.7l-103 8.1c-0.2 1-0.5 1.9-0.9 2.8L546 462.2c-5.9 13.7-18.7 22.3-33.4 22.5l51.7 51.7h111.1z m-162-88.3l40.9-95.2c2.6-6.1 8.2-10 14.4-10.6 1.7-7.1 7.8-12.7 15.4-13.5l103.2-8.1c0.4 0 1.2-0.1 1.6-1.2 0.4-1.1-0.2-1.6-0.5-1.9l-77.2-68.6c-10.1-9-14.6-22.8-11.7-36.2L622 111.5c0.1-0.4 0.3-1.2-0.7-1.9s-1.6-0.3-2-0.1l-88.6 52.8c-11.6 6.9-26.1 6.9-37.7 0l-88.6-52.7c-0.4-0.2-1-0.6-2 0.1s-0.8 1.4-0.7 1.9L424 212.8c2.9 13.3-1.6 27.1-11.7 36.1l-77.2 68.6c-0.3 0.3-0.9 0.8-0.5 1.9 0.4 1.1 1.1 1.2 1.6 1.2l102.5 9.8c13.4 1.3 25.1 9.8 30.5 22.3l40.9 95.1c0.2 0.4 0.5 1.1 1.7 1.1 1.2 0.2 1.5-0.5 1.6-0.9z m-1.3 69.4l-44.8 52.3 1.4 1.1H330.9c-19 0-34.4 15.4-34.4 34.4v68.9h413.4v-68.9c0-19-15.4-34.4-34.4-34.4H552.7l2-1.6-42.6-51.8z"  horiz-adv-x="1024" />

    
    <glyph glyph-name="menu_user" unicode="&#59018;" d="M513.2 401.5c95.1 0 172.2 77.1 172.2 172.2s-77.1 172.2-172.2 172.2c-95.1 0.1-172.2-77-172.2-172.1 0-95.2 77.1-172.3 172.2-172.3z m0 310.1c76.1 0 137.8-61.7 137.8-137.8 0-76.1-61.7-137.8-137.8-137.8-76.1 0-137.8 61.7-137.8 137.8 0 76.1 61.7 137.8 137.8 137.8z m0-344.5c-142.7 0-258.4-94.3-258.4-189.5 0-95.1 37.4-155 258.4-155 220.9 0 258.4 59.9 258.4 155S655.9 367.1 513.2 367.1z m0-310.1c-226.5 0-223.9 61.7-223.9 137.8s100.3 137.8 223.9 137.8 223.9-61.7 223.9-137.8S739.7 57 513.2 57z"  horiz-adv-x="1024" />

    
    <glyph glyph-name="icon_wrap" unicode="&#59023;" d="M820.9 831.8H201.2c-76.1 0-137.7-61.7-137.7-137.7v-619.7c0-76.1 61.7-137.7 137.7-137.7h619.7c76.1 0 137.7 61.7 137.7 137.7V694.1c0 76-61.6 137.7-137.7 137.7z m-241-147.4c70.6 2.2 97.2 10.2 151.7 28 14.3-28.4 7.1-204.5-82.8-224.9-46.8-11.4-81.1 3.5-131.7 0 78.6 129 128.9 142.6 171.5 154.9 22.9 5.6 12 24.5-8.6 19.4-32.7-6.1-91.8-30-168.9-146.3 0 0 0 155.5 68.8 168.9z m-247-7.2c44-14.1 65.5-20.4 122.5-22.2C511 644.4 511 521 511 521c-62.3 92.2-110 111.2-136.4 116.1-16.6 4.1-25.5-10.9-7-15.4C402 612 440.5 583.8 511 487.8c-38.2-0.9-73.5-12-111.2-3-72.6 16.2-78.5 169.9-66.9 192.4z m178.2-637.3c-152.1 0-275.4 23.6-275.4 137.7S359 453 511.1 453s275.4-161.3 275.4-275.4-123.3-137.7-275.4-137.7z"  horiz-adv-x="1024" />

    
    <glyph glyph-name="icon_building" unicode="&#59024;" d="M891.2 418.7l-137.8 68.9v-551.1h137.8c38 0 68.9 30.8 68.9 68.9V349.8c0.8 33.2-47.6 56.6-68.9 68.9zM650.1 832.1H374.5c-38 0-68.9-30.8-68.9-68.9v-826.7H719V763.2c-0.1 38-30.9 68.9-68.9 68.9z m-17.3-482.3H391.7c-9.5 0-17.2 7.7-17.2 17.2s7.7 17.2 17.2 17.2h241.1c9.5 0 17.2-7.7 17.2-17.2 0.1-9.5-7.7-17.2-17.2-17.2z m0 103.3H391.7c-9.5 0-17.2 7.7-17.2 17.2s7.7 17.2 17.2 17.2h241.1c9.5 0 17.2-7.7 17.2-17.2s-7.7-17.2-17.2-17.2z m0 103.4H391.7c-9.5 0-17.2 7.7-17.2 17.2s7.7 17.2 17.2 17.2h241.1c9.5 0 17.2-7.7 17.2-17.2 0.1-9.5-7.7-17.2-17.2-17.2z m0 103.3H391.7c-9.5 0-17.2 7.7-17.2 17.2s7.7 17.2 17.2 17.2h241.1c9.5 0 17.2-7.7 17.2-17.2 0.1-9.5-7.7-17.2-17.2-17.2zM64.5 522v-516.7c0-38 30.8-68.9 68.9-68.9h137.8V590.9H133.4c-38.1 0-68.9-30.8-68.9-68.9z m137.7-361.7c0-9.5-7.7-17.2-17.2-17.2h-34.4c-9.5 0-17.2 7.7-17.2 17.2v34.4c0 9.5 7.7 17.2 17.2 17.2H185c9.5 0 17.2-7.7 17.2-17.2v-34.4z m0 137.8c0-9.5-7.7-17.2-17.2-17.2h-34.4c-9.5 0-17.2 7.7-17.2 17.2v34.4c0 9.5 7.7 17.2 17.2 17.2H185c9.5 0 17.2-7.7 17.2-17.2v-34.4z m-51.6 189.5H185c9.5 0 17.2-7.7 17.2-17.2V436c0-9.5-7.7-17.2-17.2-17.2h-34.4c-9.5 0-17.2 7.7-17.2 17.2v34.4c0 9.5 7.7 17.2 17.2 17.2z"  horiz-adv-x="1024" />

    
    <glyph glyph-name="btn_more" unicode="&#59025;" d="M213.3 458.9c-41.2 0-74.6-33.4-74.6-74.6 0-41.2 33.4-74.6 74.6-74.6s74.6 33.4 74.6 74.6c0 41.2-33.4 74.6-74.6 74.6z m298.5 0c-41.2 0-74.6-33.4-74.6-74.6 0-41.2 33.4-74.6 74.6-74.6 41.2 0 74.6 33.4 74.6 74.6 0.1 41.2-33.3 74.6-74.6 74.6z m317.3 0c-41.2 0-74.6-33.4-74.6-74.6 0-41.2 33.4-74.6 74.6-74.6s74.6 33.4 74.6 74.6c0 41.2-33.4 74.6-74.6 74.6z"  horiz-adv-x="1024" />

    
    <glyph glyph-name="btn_search" unicode="&#59026;" d="M877.2 72.3l-0.5 0.6c-1.2 1.4-2.5 2.7-3.9 3.9L681.4 268.7c45.9 53.8 73.7 123.6 73.7 199.9 0 170.1-137.9 308-308 308s-308-137.9-308-308 137.9-308 308-308c66.9 0 128.8 21.3 179.3 57.5l198.1-198.6 0.2 0.2c6.4-5.3 14.7-8.5 23.7-8.5 20.6 0 37.3 16.7 37.3 37.3 0 9.1-3.2 17.3-8.5 23.8zM447.1 235.2c-128.9 0-233.3 104.5-233.3 233.3s104.5 233.3 233.3 233.3 233.3-104.5 233.3-233.3-104.5-233.3-233.3-233.3z"  horiz-adv-x="1024" />

    
    <glyph glyph-name="icon_gong" unicode="&#59027;" d="M553 344.1h96.1V495.3H553v-151.2zM848.3 831.3H176.1c-61.9 0-112-50.2-112-112V47c0-61.9 50.2-112 112-112h672.3c61.9 0 112 50.2 112 112V719.2c0 61.9-50.2 112.1-112.1 112.1zM351.9 83.9h-60.5c4 38.3 7.4 96.1 7.4 144.5V448.9c-20.8-40.3-37-63.9-59.2-95.5-9.4 15.5-24.2 28.9-43 41.7 32.3 36.3 78 103.5 102.2 162 16.8 40.3 33.6 105.6 39 141.9 22.2-10.8 47.1-19.5 67.2-23.5 14.1-2.7 14.8-6.1 0.7-20.2-8.1-8.1-32.9-50.4-53.8-92.8v-478.6z m222.6 139.8c-10.1-4.7-30.9-24.9-137.8-144.5-6.1 12.8-29.6 27.6-57.8 35 50.4 30.9 118.3 110.9 139.8 154 20.2-10.1 39-18.8 59.8-25.5 15.5-4.9 16.2-10.2-4-19z m188.2-135.8c-29.6 43.7-81.4 106.9-120.3 141.9l45.7 34.3c49.7-45 84-78.7 128.4-130.4l-53.8-45.8z m58.5 201c-49.8 4.7-120.3 6.7-212.5 6.7s-162-2-211.8-6.7v61.2c29.6-3.4 62.5-5.4 104.2-6.1V494.7c-32.9-0.7-59.8-2.7-88.1-5.4v59.2c28.2-2.7 55.8-4.7 88.1-6.1v47.7c0 70.6-0.7 89.4-2.7 104.9 20.2-3.4 36.3-4.7 61.2-4 11.4 0 12.1-5.4 2.7-10.8-6.7-4-9.4-16.8-9.4-39v-98.8H649v48.4c0 57.8-0.7 90.1-2.7 104.9 20.2-3.4 35.6-4 60.5-4 11.4 0 12.1-5.4 2.7-10.8-6.7-4-9.4-16.8-9.4-39v-99.5c39.7 0.7 71.3 3.4 98.8 6.1v-59.2c-26.9 2.7-59.2 5.4-98.8 6.1v-151.3c50.4 0 86.1 2 121 6.1v-61.3z"  horiz-adv-x="1024" />

    
    <glyph glyph-name="icon_star" unicode="&#59028;" d="M955.4 489.1c-9.8 29.9-35.5 50.3-67 53.2L671.3 559c-0.5 2-1.1 3.9-2 5.9L583 762.3C570.4 791.1 543 809 511.3 809c-31.7 0-59.2-17.9-71.8-46.7L353.3 565c-0.6-1.3-1.7-2.2-3.2-2.3l-216-20.3c-31.5-3-57.2-23.4-67-53.2-9.8-29.8-1.1-61.3 22.6-82l162.7-142.3c1.1-0.9 1.5-2.3 1.2-3.6l-47.2-209.9c-6.9-30.7 4.7-61.2 30.4-79.6 13.8-10 29.8-15 45.8-15 13.7 0 27.4 3.6 39.9 11L509.3 77c1.2 0.7 2.7 0.7 3.8 0L700-32.4c27.2-16 60-14.5 85.7 4 25.6 18.4 37.3 48.9 30.4 79.6l-47.2 209.9c-0.3 1.4 0.1 2.7 1.2 3.7l162.6 142.3c23.8 20.7 32.5 52.2 22.7 82z"  horiz-adv-x="1024" />

    
    <glyph glyph-name="checkbox_default" unicode="&#59029;" d="M846.8 830.4H176.3c-61.7 0-111.8-50-111.8-111.8v-670.5c0-61.7 50-111.8 111.8-111.8h670.5c61.7 0 111.8 50 111.8 111.8V718.7c-0.1 61.7-50.1 111.7-111.8 111.7z m55.9-782.2c0-30.9-25-55.9-55.9-55.9H176.3c-30.9 0-55.9 25-55.9 55.9V718.7c0 30.9 25 55.9 55.9 55.9h670.5c30.9 0 55.9-25 55.9-55.9v-670.5z"  horiz-adv-x="1024" />

    
    <glyph glyph-name="btn_close" unicode="&#59030;" d="M793.3 173.7l-211 211 208.8 208.8c19.2 19.2 19.2 50.4 0 69.7-19.2 19.2-50.4 19.2-69.7 0L512.6 454.3l-211 211c-19.4 19.4-50.8 19.4-70.2 0-19.4-19.4-19.4-50.8 0-70.2l211-211-208.8-208.8c-19.2-19.2-19.2-50.4 0-69.7 19.2-19.2 50.4-19.2 69.7 0l208.8 208.8 211-211c19.4-19.4 50.8-19.4 70.2 0 19.4 19.4 19.4 50.9 0 70.3z"  horiz-adv-x="1024" />

    
    <glyph glyph-name="checkbox_sel" unicode="&#59031;" d="M848.2 831H177.3c-61.8 0-111.8-50.1-111.8-111.8v-670.9c0-61.8 50.1-111.8 111.8-111.8h670.9c61.8 0 111.8 50.1 111.8 111.8V719.2C960 780.9 910 831 848.2 831z m-45.4-327.6c-36.3-36-261-259.1-343.5-341.1l-0.7-0.7h-0.1l-1.8-1.8h-0.4c-7.5-6.8-17.4-11-28.3-11-14.4 0-27.1 7.3-34.7 18.3L222.3 336c-10.3 7.6-17 19.9-17 33.7 0 23.2 18.8 41.9 41.9 41.9 13.7 0 25.9-6.6 33.5-16.8l146.4-146.4 321.3 319.1 0.4-0.4c7.6 7.5 18 12.1 29.5 12.1 23.2 0 41.9-18.8 41.9-41.9 0.1-13.9-6.8-26.3-17.4-33.9z"  horiz-adv-x="1024" />

    
    <glyph glyph-name="arrow_o" unicode="&#59032;" d="M512.4 831.8c-247.2 0-447.7-200.4-447.7-447.7s200.4-447.7 447.7-447.7 447.7 200.4 447.7 447.7S759.6 831.8 512.4 831.8z m203.5-483.3c-2-2-4.1-3.8-6.3-5.4l-215-215c-20.4-20.4-53.4-20.4-73.8 0s-20.4 53.4 0 73.8l183.9 183.9-183.9 184c-20.4 20.4-20.4 53.4 0 73.8s53.4 20.4 73.8 0l215-215c2.2-1.6 4.3-3.4 6.3-5.4 10.3-10.3 15.4-23.8 15.3-37.3 0-13.5-5-27.1-15.3-37.4z"  horiz-adv-x="1024" />

    
    <glyph glyph-name="btn_timer" unicode="&#59033;" d="M461.6 360.8l-1-0.6 0.3-0.3c-8.7-10.9-13.9-24.7-13.9-39.8 0-35.3 28.6-64 64-64 21.9 0 41.2 11 52.7 27.8l0.3-0.2 122.7 212.1-188.4-113c-14.6-2.9-27.5-10.9-36.7-22z m359.9 184.8l36.5 36.5c8.7 8.7 8.7 22.8 0 31.6l-31.6 31.6c-8.7 8.7-22.8 8.7-31.6 0l-33.8-34c-57 49-128.6 81.6-207.3 90.3v45h42.6c23.5 0 42.6 19.1 42.6 42.6s-19.1 42.6-42.6 42.6H425.7c-23.5 0-42.6-19.1-42.6-42.6s19.1-42.6 42.6-42.6h42.6v-45c-76.6-8.5-146.5-39.5-202.7-86.4l-24.2 24.2c-8.3 8.3-21.8 8.3-30.1 0l-30.1-30.1c-8.3-8.3-8.3-21.8 0-30.1l25.4-25.4C156.8 489 127.3 408 127.3 320.2c0-211.9 171.8-383.7 383.7-383.7s383.7 171.8 383.7 383.7c0 84.2-27.1 162.1-73.2 225.4zM511 21.7c-164.8 0-298.4 133.6-298.4 298.4S346.2 618.6 511 618.6 809.4 485 809.4 320.2 675.8 21.7 511 21.7z"  horiz-adv-x="1024" />

    
    <glyph glyph-name="btn_complete" unicode="&#59034;" d="M894.8 629.6c0 29.4-23.9 53.3-53.3 53.3-17.7 0-33.4-8.6-43.1-21.9L383.9 246.4 218.3 412.1l-0.3-0.3c-9.6 9.4-22.8 15.3-37.3 15.3-29.4 0-53.3-23.9-53.3-53.3 0-17.2 8.2-32.6 20.9-42.3l235.9-235.9 75.4 75.4-0.3 0.3 413.3 415c13.4 9.6 22.2 25.4 22.2 43.3z"  horiz-adv-x="1024" />

    
    <glyph glyph-name="btn_end" unicode="&#59035;" d="M743.5 668.8l-0.3-0.6c-8.3 5.4-18.2 8.5-28.9 8.5-29.5 0-53.4-23.9-53.4-53.4 0-20.5 11.6-38.3 28.5-47.2l-0.3-0.5c61-50.9 99.8-127.5 99.8-213.1 0-153.2-124.2-277.4-277.4-277.4S234.1 209.4 234.1 362.6c0 85.6 38.8 162.2 99.8 213.1l-0.2 0.4c15.1 9.4 25.2 26.2 25.2 45.3 0 29.5-23.9 53.4-53.4 53.4-9.3 0-18-2.4-25.6-6.5l-0.4 0.6C187 598.7 127.3 487.7 127.3 362.7c0-212.2 172-384.2 384.2-384.2s384.2 172 384.2 384.2c0 124.9-59.7 236-152.2 306.1z m-232-327.5c35.4 0 64 28.7 64 64V725.4c0 35.4-28.7 64-64 64s-64-28.7-64-64v-320.1c0-35.4 28.7-64 64-64z"  horiz-adv-x="1024" />

    
    <glyph glyph-name="edit_o" unicode="&#59036;" d="M511.8 831.1c-247.1 0-447.5-200.4-447.5-447.5s200.4-447.5 447.5-447.5 447.5 200.4 447.5 447.5S759 831.1 511.8 831.1z m23.8-593.2L504 206.3l-0.3 0.3-220.8-63.3-0.3-0.3 0.1 0.3-0.3-0.1 0.3 0.3L346 364.1l-0.3 0.3 31.6 31.6 158.2 158.2 31.6-31.6L409 364.5l31.6-31.6L598.9 491l31.6-31.6-158.2-158.2 31.6-31.6 158.2 158.2 31.6-31.6-158.1-158.3zM788.7 491l-79.1-79.1-158.2 158.2 79.1 79.1c17.5 17.5 45.8 17.5 63.3 0l94.9-94.9c17.5-17.5 17.5-45.8 0-63.3zM346.4 207.3l-31.9-32.1 32.1 31.9 120.3 36.1-84.3 84.3-36.2-120.2z"  horiz-adv-x="1024" />

    
    <glyph glyph-name="delete_o" unicode="&#59037;" d="M511.8 831.6c-247.7 0-448.5-200.8-448.5-448.5s200.8-448.5 448.5-448.5 448.5 200.8 448.5 448.5S759.5 831.6 511.8 831.6z m201.9-672.8c0-24.8-20.1-44.9-44.9-44.9h-314C330 114 310 134 310 158.8v314c0 24.8 20.1 44.9 44.9 44.9h314c24.8 0 44.9-20.1 44.9-44.9v-314z m0 383.2v-1.9H310V542c-13.1 4.6-22.4 17.1-22.4 31.7 0 14.6 9.4 27.1 22.4 31.7v1.9h134.6v22.4c0 12.4 10 22.4 22.4 22.4h89.7c12.4 0 22.4-10 22.4-22.4v-22.4h134.6v-1.9c13.1-4.6 22.4-17.1 22.4-31.7 0-14.6-9.4-27.1-22.4-31.7zM489.4 181.2h44.9V450.4h-44.9v-269.2z m112.1 0h44.9V450.4h-44.9v-269.2z m-224.3 0h44.9V450.4h-44.9v-269.2z"  horiz-adv-x="1024" />

    
    <glyph glyph-name="view_o" unicode="&#59038;" d="M514.1 833.6C266.3 833.6 65.5 632.7 65.5 385s200.8-448.6 448.6-448.6S962.6 137.3 962.6 385 761.8 833.6 514.1 833.6z m0-650.5c-161 0-291.6 90.4-291.6 201.9S353 586.9 514.1 586.9 805.6 496.5 805.6 385 675.1 183.1 514.1 183.1z m0 336.5c-74.3 0-134.6-60.2-134.6-134.6s60.2-134.6 134.6-134.6S648.6 310.7 648.6 385s-60.2 134.6-134.5 134.6z m0-179.5c-24.8 0-44.9 20.1-44.9 44.9s20.1 44.9 44.9 44.9c24.8 0 44.9-20.1 44.9-44.9s-20.2-44.9-44.9-44.9z"  horiz-adv-x="1024" />

    
    <glyph glyph-name="complete_o" unicode="&#59039;" d="M511.6 831.7C264.3 831.7 63.8 631.3 63.8 384s200.5-447.8 447.8-447.8S959.3 136.7 959.3 384 758.9 831.7 511.6 831.7z m253-312.6L475.2 234.4l0.2-0.2-52.8-51.7-165.1 161.8c-8.9 6.7-14.6 17.2-14.6 29 0 20.2 16.7 36.6 37.3 36.6 10.2 0 19.4-4 26.1-10.5l0.2 0.2L422.4 286l293.8 289.1 0.4-0.4c6.7 6.6 16 10.6 26.3 10.6 20.6 0 37.3-16.4 37.3-36.6 0-12.1-6.1-22.9-15.6-29.6z"  horiz-adv-x="1024" />

    
    <glyph glyph-name="progress_o" unicode="&#59040;" d="M511.5 831.5C264.4 831.5 64 631.1 64 384s200.4-447.5 447.5-447.5S959.1 136.8 959.1 384 758.7 831.5 511.5 831.5z m79-320l84.7 84.7 0.1-0.1c13.5 11.5 33.8 10.9 46.6-1.8s13.4-33.1 1.8-46.6l0.1-0.1-84.7-84.6-0.1 0.1c-13.5-11.5-33.8-10.9-46.6 1.8-12.7 12.7-13.3 33-1.9 46.6zM254.2 339.2c-18.5 0-33.6 15-33.6 33.6 0 18.5 15 33.6 33.6 33.6h111.9c18.5 0 33.6-15 33.6-33.6 0-18.5-15-33.6-33.6-33.6H254.2z m178.3-82.8l-1.9-1.9-82.8-82.8-0.1 0.1c-6.3-5.4-14.1-8.1-21.9-8.2H324.1c-0.4 0-0.8 0-1.2 0.1h-0.4c-0.4 0-0.7 0.1-1.1 0.1-0.2 0-0.3 0-0.5 0.1-0.3 0-0.7 0.1-1 0.2-0.2 0-0.4 0.1-0.6 0.1-0.3 0.1-0.7 0.1-1 0.2-0.2 0-0.4 0.1-0.6 0.1-0.3 0.1-0.6 0.1-0.9 0.2-0.2 0.1-0.4 0.1-0.7 0.2l-0.9 0.3c-0.2 0.1-0.5 0.1-0.7 0.2-0.3 0.1-0.6 0.2-0.8 0.3-0.2 0.1-0.5 0.2-0.7 0.3-0.3 0.1-0.5 0.2-0.8 0.3-0.2 0.1-0.5 0.2-0.7 0.3-0.3 0.1-0.5 0.2-0.8 0.3-0.2 0.1-0.5 0.2-0.7 0.4-0.2 0.1-0.5 0.2-0.7 0.4-0.3 0.1-0.5 0.3-0.7 0.4-0.2 0.1-0.5 0.3-0.7 0.4-0.3 0.2-0.5 0.3-0.8 0.5-0.2 0.1-0.4 0.3-0.6 0.4-0.3 0.2-0.5 0.4-0.8 0.5-0.2 0.1-0.4 0.3-0.6 0.4-0.3 0.2-0.5 0.4-0.8 0.6-0.2 0.1-0.4 0.3-0.5 0.4-0.3 0.2-0.6 0.5-0.9 0.7-0.1 0.1-0.3 0.2-0.4 0.4-0.4 0.4-0.8 0.8-1.3 1.2l-1.2 1.2-0.4 0.4c-0.2 0.3-0.5 0.6-0.7 0.8-0.1 0.2-0.3 0.4-0.4 0.5-0.2 0.3-0.4 0.5-0.6 0.8-0.1 0.2-0.3 0.4-0.4 0.6-0.2 0.3-0.4 0.5-0.5 0.8-0.1 0.2-0.3 0.4-0.4 0.6-0.2 0.3-0.3 0.5-0.5 0.8-0.1 0.2-0.3 0.5-0.4 0.7-0.1 0.2-0.3 0.5-0.4 0.7-0.1 0.2-0.2 0.5-0.4 0.7-0.1 0.2-0.2 0.5-0.4 0.7-0.1 0.3-0.2 0.5-0.3 0.8-0.1 0.2-0.2 0.5-0.3 0.7-0.1 0.3-0.2 0.5-0.3 0.8-0.1 0.2-0.2 0.5-0.3 0.7-0.1 0.3-0.2 0.6-0.3 0.8-0.1 0.2-0.2 0.5-0.2 0.7l-0.3 0.9c-0.1 0.2-0.1 0.4-0.2 0.7-0.1 0.3-0.2 0.6-0.2 0.9 0 0.2-0.1 0.4-0.1 0.6-0.1 0.3-0.1 0.6-0.2 1 0 0.2-0.1 0.4-0.1 0.6-0.1 0.3-0.1 0.7-0.2 1 0 0.2 0 0.3-0.1 0.5 0 0.4-0.1 0.7-0.1 1.1v0.4c0 0.4-0.1 0.8-0.1 1.2v0.3 1.3 0.1c0.1 7.8 2.8 15.6 8.2 21.9l-0.1 0.1 84.7 85 0.1-0.1c13.5 11.5 33.8 10.9 46.6-1.8 12.7-12.8 13.3-33.1 1.8-46.7z m-0.1 195.5c-12.4-12.4-32.1-13.1-45.3-2l-0.1-0.1-2 2-79.2 79.2-2.1 2.1 0.1 0.1c-11.1 13.2-10.4 32.9 2 45.3 12.4 12.4 32.1 13.1 45.3 2l0.1 0.1 81.2-81.2 2-2-0.1-0.1c11.2-13.3 10.5-33-1.9-45.4z m101.5-214.6v-110.7c0-18.5-15-33.6-33.6-33.6-18.5 0-33.6 15-33.6 33.6V237.3v1.2c0 18.5 15 33.6 33.6 33.6 18.5 0 33.6-15 33.6-33.6v-1.2z m0 402.7v-113.4h-0.1c-1.4-17.2-15.8-30.8-33.4-30.8-17.6 0-32 13.6-33.4 30.8h-0.1V640v1.3c0 18.5 15 33.6 33.6 33.6 18.5 0 33.6-15 33.6-33.6-0.2-0.4-0.2-0.8-0.2-1.3zM727 189.4c0-0.4 0-0.8-0.1-1.2v-0.4c0-0.4-0.1-0.7-0.1-1 0-0.2 0-0.3-0.1-0.5 0-0.3-0.1-0.6-0.2-1 0-0.2-0.1-0.4-0.1-0.6-0.1-0.3-0.1-0.6-0.2-0.9 0-0.2-0.1-0.4-0.1-0.6-0.1-0.3-0.1-0.6-0.2-0.9-0.1-0.2-0.1-0.5-0.2-0.7-0.1-0.3-0.2-0.5-0.2-0.8-0.1-0.2-0.1-0.5-0.2-0.7-0.1-0.3-0.2-0.5-0.3-0.8-0.1-0.2-0.2-0.5-0.3-0.7-0.1-0.3-0.2-0.5-0.3-0.8-0.1-0.2-0.2-0.5-0.3-0.7-0.1-0.2-0.2-0.5-0.3-0.7-0.1-0.2-0.2-0.5-0.4-0.7-0.1-0.2-0.2-0.5-0.4-0.7-0.1-0.2-0.3-0.5-0.4-0.7-0.1-0.2-0.2-0.4-0.4-0.7-0.2-0.3-0.3-0.5-0.5-0.7-0.1-0.2-0.3-0.4-0.4-0.6-0.2-0.3-0.3-0.5-0.5-0.8-0.1-0.2-0.3-0.4-0.4-0.6-0.2-0.3-0.4-0.5-0.6-0.8-0.1-0.2-0.3-0.4-0.4-0.5-0.2-0.3-0.5-0.6-0.7-0.8-0.1-0.1-0.2-0.3-0.4-0.4l-1.2-1.2-1.2-1.2c-0.1-0.1-0.3-0.2-0.4-0.4-0.3-0.2-0.6-0.5-0.8-0.7-0.2-0.1-0.3-0.3-0.5-0.4-0.3-0.2-0.5-0.4-0.8-0.6-0.2-0.1-0.4-0.3-0.6-0.4-0.3-0.2-0.5-0.4-0.8-0.5-0.2-0.1-0.4-0.3-0.6-0.4-0.2-0.2-0.5-0.3-0.7-0.5-0.2-0.1-0.4-0.3-0.7-0.4-0.2-0.1-0.5-0.3-0.7-0.4-0.2-0.1-0.5-0.2-0.7-0.4-0.2-0.1-0.5-0.2-0.7-0.4-0.2-0.1-0.5-0.2-0.7-0.3-0.2-0.1-0.5-0.2-0.7-0.3-0.3-0.1-0.5-0.2-0.8-0.3-0.2-0.1-0.5-0.2-0.7-0.3-0.3-0.1-0.5-0.2-0.8-0.3-0.2-0.1-0.5-0.2-0.7-0.2-0.3-0.1-0.5-0.2-0.8-0.2-0.2-0.1-0.5-0.1-0.7-0.2-0.3-0.1-0.6-0.1-0.9-0.2-0.2 0-0.4-0.1-0.6-0.1-0.3-0.1-0.6-0.1-0.9-0.2-0.2 0-0.4-0.1-0.6-0.1-0.3-0.1-0.6-0.1-1-0.2-0.2 0-0.3 0-0.5-0.1-0.3 0-0.7-0.1-1-0.1h-0.4c-0.4 0-0.8-0.1-1.2-0.1h-0.2c-3.5-0.1-7 0.3-10.4 1.2-0.5 0.1-0.9 0.3-1.4 0.4h-0.1c-0.5 0.2-0.9 0.3-1.3 0.5h-0.1c-0.4 0.2-0.9 0.4-1.3 0.5 0 0-0.1 0-0.1 0.1-0.4 0.2-0.9 0.4-1.3 0.6 0 0-0.1 0-0.1 0.1-0.4 0.2-0.8 0.4-1.3 0.7 0 0-0.1 0-0.1 0.1-0.4 0.2-0.8 0.5-1.2 0.7 0 0-0.1 0-0.1 0.1-0.4 0.3-0.8 0.5-1.2 0.8 0 0-0.1 0-0.1 0.1l-1.2 0.9h-0.1c-0.4 0.3-0.8 0.6-1.2 1l-0.1-0.1-81.2 81.2-2 2 0.1 0.1c-11.1 13.2-10.4 32.9 2 45.3 12.4 12.4 32.1 13.1 45.3 2l0.1 0.1 2-2 81.2-81.2-0.1-0.1c0.3-0.4 0.7-0.8 1-1.2v-0.1l0.9-1.2s0-0.1 0.1-0.1c0.3-0.4 0.5-0.8 0.8-1.2 0 0 0-0.1 0.1-0.1 0.3-0.4 0.5-0.8 0.7-1.2 0 0 0-0.1 0.1-0.1 0.2-0.4 0.5-0.8 0.7-1.3 0 0 0-0.1 0.1-0.1 0.2-0.4 0.4-0.8 0.6-1.3 0 0 0-0.1 0.1-0.1 0.2-0.4 0.4-0.9 0.5-1.3v-0.1c0.2-0.4 0.3-0.9 0.5-1.3v-0.1c0.2-0.5 0.3-0.9 0.4-1.4 1-3.4 1.4-6.9 1.2-10.4-0.2-0.3-0.2-0.3-0.2-0.4z m41.9 149.8H657c-18.5 0-33.6 15-33.6 33.6 0 18.5 15 33.6 33.6 33.6h111.9c18.5 0 33.6-15 33.6-33.6-0.1-18.6-15.1-33.6-33.6-33.6z"  horiz-adv-x="1024" />

    
    <glyph glyph-name="btn_consumption" unicode="&#59041;" d="M684.1 141.4l17.3 6.3V303.1l-17.3-6.3v-155.4z m51.8 15.6l17.3 6.3V318.7l-17.3-6.3V157z m155.4 514.6L545.9 792.8l-69.8 0.1-344.4-121.3c-38.1 0-69.1-30.9-69.1-69.1V171c0-38.1 30.9-69.1 69.1-69.1l345.1-120.3 69 0.5 345.5 119.8c38.1 0 69.1 30.9 69.1 69.1V602.5c0 38.2-31 69.1-69.1 69.1z m-34.5-464.4c0-19.1-15.5-40.2-34.5-47.1l-155.4-56.6c-19.1-6.9-34.5 2.9-34.5 21.9V280.8c0 19.1 15.5 40.2 34.5 47.1l155.4 56.6c19.1 6.9 34.5-2.9 34.5-21.9v-155.4z m0 207.2l-213.2-77.7c-2.6-1.9-5.7-3.1-9.1-3.3l-2.1-0.8v0.8c-9.1 0.5-16.3 8-16.3 17.2 0 9.5 7.7 17.3 17.3 17.3h0.8l67.2 24.5v25.9c0 4.8 3.9 10 8.6 11.8l69.1 25.2c4.8 1.7 8.6-0.7 8.6-5.5v-25.9l69.1 25.2c9.5 3.5 17.3-1.4 17.3-11-0.1-9.7-7.8-20.3-17.3-23.7z m-69.1-240.2l17.3 6.3V335.9l-17.3-6.3v-155.4zM475.1 791a36.1 7 0 1 1 72.2 0 36.1 7 0 1 1-72.2 0ZM475.1-16a36.1 7 0 1 1 72.2 0 36.1 7 0 1 1-72.2 0Z"  horiz-adv-x="1024" />

    
    <glyph glyph-name="btn_question" unicode="&#59042;" d="M795 832.1H226.5c-57.1 0-103.3-46.3-103.3-103.3v-551.2c0-57.1 103.3-103.3 103.3-103.3l292.7-137.8L795 74.2s103.3 46.3 103.3 103.3V728.8c0 57.1-46.3 103.3-103.3 103.3zM519.4 125.9c-32.1 0-58.1 27.6-58.1 61.6s26 61.6 58.1 61.6 58.1-27.6 58.1-61.6-26-61.6-58.1-61.6z m87.2 287.6s0-0.1 0 0c0 0-49-26.9-48.4-71.9h-0.3c-2.4-23.1-20.9-41.1-43.3-41.1s-40.9 18-43.3 41.1h-0.3v4 1.1c0 2.4 0.2 4.7 0.5 7 1 11.3 3.7 28.9 11.6 46.1-0.2 0-0.3 0.1-0.5 0.1 12.7 34.2 61.6 64.8 79.1 87.7 17.4 16.7 24.9 53.8-1.8 79.2-19.7 15.4-40.6 12.8-60.6 1.6l0.8-0.9s-23.9-10.8-39.7-61.6h-0.1c-4.5-23.4-24-41.1-47.5-41.1-26.8 0-48.4 23-48.4 51.3 0 7.9 1.7 15.4 4.7 22.1 1.4 3.1 3.1 6 5 8.7 20.4 52.7 56.6 78.8 65.3 84.5 24.7 17.8 55.9 28.5 89.7 28.5 80.3 0 145.3-59.8 145.3-133.5 0-47.6-27.1-89.3-67.8-112.9z"  horiz-adv-x="1024" />

    
    <glyph glyph-name="btn_goods" unicode="&#59043;" d="M890.7 670.7L549.9 790.4c-8.4 4.4-24 7.4-41.8 7.4-13.8 0-26.2-1.8-35-4.6H472L124.6 670.7c-38.5 0-69.6-31.2-69.6-69.6v-435.3c0-38.5 31.2-69.6 69.6-69.6L465-22.4c8.3-4.5 24.1-7.5 42.1-7.5 18.9 0 35.2 3.3 43.2 8.1l340.4 118c38.5 0 69.6 31.2 69.6 69.6V601.1c0.1 38.5-31.1 69.6-69.6 69.6zM316.2 479.2v-93.6l-69.6 23.9V514c0 47.6 34.8 52.2 34.8 52.2l400.4 177.4 70.2-24.5S383.3 547.4 351 531.4c-32.3-15.9-34.8-52.2-34.8-52.2z m591.9-281.5L559.9 46.8v32.6l348.2 150.9v-32.6z"  horiz-adv-x="1024" />

    
    <glyph glyph-name="btn_persons" unicode="&#59044;" d="M287.2 298.3c1.6 0.7 3.1 1.4 4.5 2.1-1.1 4.5-1.7 9.6-1.7 15.1 0 14.3 3.8 27.6 10.4 38.6-16.9 18.3-82.1 93.6-82.1 168 0 63.4 18.9 146.3 28.7 185-78-18-115-89.3-115-174.4 0-1.6 0-3.2 0.1-4.7-7.2-6.2-12-17.7-12-31 0-19.8 10.7-35.8 23.9-35.8h1c8.8-23.3 21.9-43.9 38-60.8 15.4-3.9 27.7-17.4 31.5-34.8 0.4 0.1 0.9 0.1 1.3 0.1 6.6 0 12-8 12-17.9 0-9.9-5.4-17.9-12-17.9h-0.5c-0.9-10-3.4-12.7-10.6-13-22.2-2.2-46.4-8.3-70.7-18.4-57.1-22.1-68-72.6-68.4-113.4-0.9-3.4-1.3-6.9-1.3-10.3 0-15.3 0-29.6 8.2-41.9-3.3 8.8-5.3 17.9-5.3 27.3-0.1 79.5 161.3 112.3 220 138.1z m450-61.3c-32.8 13.7-65.6 22.1-95.8 25.6-16.1-0.7-21.5 1.2-23.3 18.5h-0.9c-9.5 0-17.2 11.6-17.2 25.8s7.7 25.8 17.2 25.8c0.6 0 1.3-0.1 1.9-0.2 5.6 25.1 23.2 44.7 45.5 50.2 23.2 24.3 41.9 54.2 54.6 87.8 0.5 0 0.9-0.1 1.4-0.1 19 0 34.4 23.1 34.4 51.7 0 19.2-7 35.9-17.3 44.8 0.1 2.3 0.1 4.6 0.1 6.9 0 142.7-71.5 258.3-223.9 258.3C361.6 832.1 290 716.5 290 573.8c0-2.3 0-4.6 0.1-6.9-10.3-8.9-17.3-25.6-17.3-44.8 0-28.5 15.4-51.7 34.4-51.7 0.5 0 0.9 0 1.4 0.1 12.7-33.6 31.4-63.4 54.6-87.8 22.2-5.6 39.9-25.1 45.5-50.2 0.6 0.1 1.2 0.2 1.9 0.2 9.5 0 17.2-11.6 17.2-25.8s-7.7-25.8-17.2-25.8h-0.7c-1.3-14.4-5-18.3-15.3-18.8-32-3.2-66.8-12-101.8-26.5-88.8-36.9-150.6-111.3-156.4-168.5-0.8-3.4-1.3-6.7-1.3-10.1 0-66.6 57.6-120.5 378.9-120.5s378.9 54 378.9 120.5c0 4-0.6 8.1-1.8 12.1-4.7 56.6-65.8 131-153.9 167.7zM533.8 131.4c5-27.2 11.7-64.9 11.7-74.2 0-14.8-13.9-33.6-34.1-34.4-20.1-0.8-34.8 19-34.8 34.4 0 9.6 6.6 47.1 11.7 74.2-17.1 8.4-28.9 26-28.9 46.4 0 28.5 23.1 51.7 51.7 51.7s51.7-23.1 51.7-51.7c-0.1-20.4-11.9-38-29-46.4z m424.1 43.7c0 3.4-0.4 6.9-1.3 10.3-0.4 40.7-11.4 91.3-68.4 113.4-24.3 10.1-48.5 16.1-70.7 18.4-7.2 0.4-9.7 3-10.6 13h-0.5c-6.6 0-12 8-12 17.9 0 9.9 5.4 17.9 12 17.9 0.4 0 0.9 0 1.3-0.1 3.9 17.3 16.1 30.9 31.5 34.8 16.1 16.8 29.1 37.5 38 60.8h1c13.2 0 23.9 16 23.9 35.8 0 13.3-4.8 24.8-12 31 0 1.6 0.1 3.2 0.1 4.7 0 85.2-37 156.4-115 174.4 9.8-38.7 28.7-121.6 28.7-185 0-70.2-57.9-141.1-78.8-164.3 8-11.7 12.7-26.4 12.7-42.3 0-6.5-0.8-12.3-2.3-17.5C794.7 272.2 955 239.4 955 160.5c0-9.4-1.9-18.5-5.3-27.3 8.2 12.3 8.2 26.6 8.2 41.9z"  horiz-adv-x="1024" />

    
    <glyph glyph-name="btn_decrease" unicode="&#59045;" d="M847.9 832.1H176.2c-61.8 0-112-50.1-112-112v-671.8c0-61.8 50.1-112 112-112H848c61.8 0 112 50.1 112 112V720.2c-0.1 61.8-50.2 111.9-112.1 111.9zM736 330.7v-2.4H316.1v2.4c-16.3 5.8-28 21.3-28 39.6s11.7 33.8 28 39.6v2.4H736v-2.4c16.3-5.8 28-21.3 28-39.6s-11.7-33.8-28-39.6z"  horiz-adv-x="1024" />

    
    <glyph glyph-name="camera" unicode="&#59046;" d="M830 639.9H718.1v32c0 53-43 95.9-95.9 95.9H398.3c-53 0-95.9-43-95.9-95.9v-32H190.5c-70.6 0-127.9-57.3-127.9-127.9v-383.7c0-70.6 57.3-127.9 127.9-127.9H830c70.6 0 127.9 57.3 127.9 127.9V512c0.1 70.6-57.2 127.9-127.9 127.9zM510.3 112.2c-114.8 0-207.9 93.1-207.9 207.9S395.5 528 510.3 528s207.9-93.1 207.9-207.9-93.1-207.9-207.9-207.9z m0 335.8c-70.6 0-127.9-57.3-127.9-127.9s57.3-127.9 127.9-127.9 127.9 57.3 127.9 127.9S580.9 448 510.3 448z"  horiz-adv-x="1024" />

    
    <glyph glyph-name="icon_supervision" unicode="&#59047;" d="M365.3 292.9h303.4v34.7H365.3v-34.7z m0-63.3h303.4v32.3H365.3v-32.3z m0-65.8h303.4v34.7H365.3v-34.7zM769.2 832.1H252.1c-76.2 0-137.9-61.7-137.9-137.9v-620.6c0-76.2 61.7-137.9 137.9-137.9h517.1c76.2 0 137.9 61.7 137.9 137.9V694.2c0 76.2-61.8 137.9-137.9 137.9z m-523.1-278c29.8-2.5 58.9-3.7 104.9-4.3v56.5c0 21.1-1.2 50.3-3.7 63.9 16.8-3.1 41.6-4.3 56.5-3.7 11.2 0.6 13.7-3.7 3.1-9.9-7.4-4.3-9.9-9.3-9.9-19.2v-11.8c50.9 0 98 1.2 124.1 3.7V584c-26.1 2.5-71.4 3.7-124.1 3.7v-37.8c63.3 0 118.5 1.2 153.3 4.3v-46.5c-32.9 2.5-84.4 4.3-143.3 4.3v-78.8c0-18.6 0.6-36.6 1.9-51.5h-49.6c1.2 16.8 1.9 37.2 1.9 51.5V512c-52.1-0.6-83.1-1.9-114.8-4.3v46.4z m282.4-115.4l-34.7-30.4c-16.1 21.1-41.6 43.4-65.8 64.5l32.3 23.6c24.1-17.4 48.9-37.9 68.2-57.7z m-255.7-41.6c-9.3 8.7-23.6 16.1-44.7 22.3 32.3 24.8 49 48.4 63.9 81.9 16.8-11.8 27.9-16.8 41-19.2 10.5-1.9 11.2-6.2-3.7-14.3-4.3-1.9-10.5-8.7-20.5-24.8-12.4-18.6-18.6-27.3-36-45.9z m446.8-292.9h-50.9v25.4H365.3v-29.8h-50.9c3.1 31 4.3 58.3 4.3 95.6V309.6c0 21.7-1.9 40.3-5.6 58.9 39.1-3.7 119.1-5.6 204.1-5.6 84.4 0 163.2 1.2 203.5 5.6-4.3-18-5.6-35.4-5.6-58.9v-109.8c0.1-36.6 1.4-64.5 4.5-95.6z m47.7 267.5c-43.4 14.9-79.4 34.7-109.2 60.8-28.5-24.8-62-43.4-99.9-56.5-3.7 12.4-16.1 24.2-36 35.4 44.7 14.9 78.8 31 104.9 52.7-20.5 25.4-39.1 73.8-52.1 126.6-10.5-0.6-19.9-1.9-26.7-2.5v45.9c27.3-3.1 63.3-3.7 107.3-3.7 58.3 0 82.5 0.6 109.2 3.7-16.8-75.7-42.8-131.5-77.6-172.5 27.9-20.5 63.9-32.3 111.7-39.1-19.8-20.4-26-29.8-31.6-50.8zM617.2 591.9c8.1-39.7 21.1-75.7 37.8-99.3 24.2 23 39.7 57.1 50.9 99.3h-88.7z"  horiz-adv-x="1024" />

    
    <glyph glyph-name="btn_increase" unicode="&#59048;" d="M846.9 832.1H175.3c-61.8 0-111.9-50.1-111.9-111.9v-671.6c0-61.8 50.1-111.9 111.9-111.9h671.6c61.8 0 111.9 50.1 111.9 111.9V720.2c0 61.8-50.1 111.9-111.9 111.9z m-126-503.7H567v-154.9c-0.5-22.7-19.1-41-41.9-41-22.8 0-41.4 18.3-41.9 41V328.4h-156v0.1c-22.3 1-40 19.4-40 41.9s17.7 40.9 40 41.9v0.1h155.9V567.3c0.5 22.7 19.1 41 41.9 41 22.8 0 41.4-18.3 41.9-41v-154.9h153.9c23.2 0 42-18.8 42-42s-18.7-42-41.9-42z"  horiz-adv-x="1024" />

    
    <glyph glyph-name="icon_set" unicode="&#59049;" d="M890.2 453.2h-59c-8.4 39.2-23.8 75.8-44.9 108.5l42.5 42.5c27 27 27 70.7 0 97.7s-70.7 27-97.7 0l-42.5-42.5c-32.6 21.1-69.2 36.5-108.5 44.9v59c0 38.1-30.8 68.9-68.9 68.9-38.1 0-68.9-30.8-68.9-68.9v-59c-39.2-8.4-75.8-23.8-108.5-44.9l-42.5 42.5c-27 27-70.7 27-97.7 0s-27-70.7 0-97.7l42.5-42.5c-21.1-32.6-36.5-69.2-44.9-108.5h-59c-38.1 0-68.9-30.8-68.9-68.9 0-38.1 30.8-68.9 68.9-68.9h59c8.4-39.2 23.8-75.8 44.9-108.5l-42.5-42.5c-27-27-27-70.7 0-97.7s70.7-27 97.7 0l42.5 42.5c32.6-21.1 69.2-36.5 108.5-44.9v-59c0-38.1 30.8-68.9 68.9-68.9 38.1 0 68.9 30.8 68.9 68.9v59c39.2 8.4 75.8 23.8 108.5 44.9l42.5-42.5c27-27 70.7-27 97.7 0s27 70.7 0 97.7l-42.5 42.5c21.1 32.6 36.5 69.2 44.9 108.5h59c38.1 0 68.9 30.8 68.9 68.9 0 38-30.9 68.9-68.9 68.9z m-379-223.9c-85.6 0-155 69.4-155 155s69.4 155 155 155 155-69.4 155-155-69.4-155-155-155z"  horiz-adv-x="1024" />

    
    <glyph glyph-name="edit" unicode="&#59050;" d="M766.4 532.4l-95 95c-17.5 17.5-45.8 17.5-63.3 0L529 548.2l158.3-158.3 79.1 79.1c17.5 17.5 17.5 45.9 0 63.4z m-189.9-63.3L418.2 310.8l31.7-31.7 158.3 158.3-31.7 31.7z m-95-221.6l-31.7 31.7-63.3 63.3 158.3 158.3-31.7 31.7-158.2-158.4-30.2-30.2-0.6 0.1-0.3-1-0.6-0.6 0.3-0.3-63.3-220.2 47.7 47.3 50.3 138.2 88.5-88.5-139.5-50.7-47.1-47.5 221.3 63.6 31.7 31.7 158.3 158.3-31.7 31.7-158.2-158.5z"  horiz-adv-x="1024" />

    
    <glyph glyph-name="tel" unicode="&#59051;" d="M756.3 248.2L693 311.5c-17.5 17.5-45.8 17.5-63.3 0l-15.8-15.8-0.1 0.1c-0.1-0.2-0.2-0.4-0.3-0.5-1.5-1.6-2.9-3.2-4.1-4.9-1-0.9-2.1-1.8-3.4-2.6-30.6-30.6-97.9-12.9-150.4 39.6-52.4 52.4-70.2 119.8-39.6 150.4 2.4 3.1 5.1 5.7 8.2 7.7l-0.2 0.2 15.8 15.8c17.5 17.5 17.5 45.8 0 63.3l-63.3 63.3c-17.5 17.5-45.8 17.5-63.3 0l-15.8-17.8v-1.4c-57-83.8-18.2-231.7 95-344.8 113.1-113.1 261-151.9 344.8-95h0.4l1.6 1.4 17.2 14.5c17.4 17.4 17.4 45.7-0.1 63.2z"  horiz-adv-x="1024" />

    
    <glyph glyph-name="bcgl" unicode="&#59052;" d="M381.8 728.4h258.5c23.8 0 43.1 19.3 43.1 43.1v17.2c0 23.8-19.3 43.1-43.1 43.1H381.8c-23.8 0-43.1-19.3-43.1-43.1v-17.2c0.1-23.8 19.4-43.1 43.1-43.1z m336 34.5v-34.5c0-19-15.4-34.5-34.5-34.5H338.8c-19 0-34.5 15.4-34.5 34.5v34.5c-95.2 0-172.3-77.1-172.3-172.3v-482.5c0-95.2 77.1-172.3 172.3-172.3h413.5c95.2 0 172.3 77.1 172.3 172.3V590.5c0.1 95.2-77.1 172.4-172.3 172.4zM390.5 504.4c50.8 0 91.9-40.4 91.9-90.3 0-49.8-41.1-90.3-91.9-90.3s-91.9 40.4-91.9 90.3 41.1 90.3 91.9 90.3z m0-379.1c-117.9 0-137.8 31.4-137.8 81.2 0 49.8 61.7 99.3 137.8 99.3s137.8-49.4 137.8-99.3c0-49.8-20-81.2-137.8-81.2z m344.6 68.9H597.2c-19 0-34.5 15.4-34.5 34.5 0 19 15.4 34.5 34.5 34.5H735c19 0 34.5-15.4 34.5-34.5 0-19-15.4-34.5-34.4-34.5z m0 172.3H597.2c-19 0-34.5 15.4-34.5 34.5s15.4 34.5 34.5 34.5H735c19 0 34.5-15.4 34.5-34.5s-15.4-34.5-34.4-34.5z"  horiz-adv-x="1024" />

    
    <glyph glyph-name="gljh" unicode="&#59053;" d="M702.2 799.3H322.6C227.3 799.3 150 722 150 626.7V40c0-30.5 20.9-69 69-69 25.8 0 58.3 35 58.3 35l235.1 172 235.1-172.1s32.5-35 58.3-35c48.1 0 69 38.5 69 69V626.7c0 95.3-77.3 172.6-172.6 172.6z m17.3-258.9c-2.7 0-5.4 0.2-8 0.6L637 402.7c8.4-9.2 13.4-21.4 13.4-34.8 0-28.6-23.2-51.8-51.8-51.8-28.6 0-51.8 23.2-51.8 51.8 0 8 1.8 15.6 5 22.3L448.4 493.7c-6.8-3.2-14.3-5-22.3-5-4.8 0-9.4 0.7-13.9 1.9L347.4 398c6.1-8.5 9.7-18.9 9.7-30.1 0-28.6-23.2-51.8-51.8-51.8-28.6 0-51.8 23.2-51.8 51.8 0 28.6 23.2 51.8 51.8 51.8 4.8 0 9.4-0.7 13.9-1.9l64.8 92.6c-6.1 8.5-9.7 18.9-9.7 30.1 0 28.6 23.2 51.8 51.8 51.8 28.6 0 51.8-23.2 51.8-51.8 0-8-1.8-15.6-5-22.3l103.5-103.5c6.8 3.2 14.3 5 22.3 5 2.7 0 5.4-0.2 8-0.6l74.5 138.4c-8.4 9.2-13.4 21.4-13.4 34.8 0 28.6 23.2 51.8 51.8 51.8 28.6 0 51.8-23.2 51.8-51.8-0.2-28.7-23.3-51.9-51.9-51.9z"  horiz-adv-x="1024" />

    
    <glyph glyph-name="pbjh" unicode="&#59054;" d="M701.7 797.3H322.9c-95.1 0-172.2-77.1-172.2-172.2V143c0-95.1 77.1-172.2 172.2-172.2h378.8c95.1 0 172.2 77.1 172.2 172.2V625.2c0 95.1-77.1 172.1-172.2 172.1zM310.2 494.6c4.4 13.8 16.1 23.2 30.5 24.6l98.3 9.4c0.6 0.1 1.2 0.5 1.4 1.1l39.3 91.1c5.7 13.3 18.3 21.6 32.7 21.6 14.4 0 26.9-8.3 32.6-21.6l39.3-91.1c0.4-0.9 0.7-1.8 0.9-2.7l98.9-7.7c14.4-1.4 26-10.8 30.5-24.6 4.4-13.8 0.5-28.3-10.3-37.9l-74-65.7c-0.5-0.4-0.7-1.1-0.5-1.7l21.5-96.9c3.1-14.2-2.2-28.2-13.8-36.8-11.7-8.5-26.6-9.2-39-1.9l-85 50.5c-0.5 0.3-1.2 0.3-1.8 0l-85-50.5c-5.7-3.4-11.9-5.1-18.2-5.1-7.3 0-14.5 2.3-20.8 6.9-11.7 8.5-17 22.6-13.8 36.8l21.5 97c0.1 0.6-0.1 1.3-0.6 1.7l-74.1 65.7c-11 9.5-15 24.1-10.5 37.8z m426-420.4H288.5c-19 0-34.4 15.4-34.4 34.4s15.4 34.4 34.4 34.4h447.7c19 0 34.4-15.4 34.4-34.4s-15.4-34.4-34.4-34.4z"  horiz-adv-x="1024" />

    
    <glyph glyph-name="fwt" unicode="&#59055;" d="M270.1 832.1c-114.2 0-206.8-92.6-206.8-206.8 0-114.2 92.6-206.8 206.8-206.8h206.8V625.4c0 114.2-92.6 206.7-206.8 206.7zM63.3 142.9c0-114.2 92.6-206.8 206.8-206.8s206.8 92.6 206.8 206.8V349.7H270.1c-114.2 0-206.8-92.6-206.8-206.8z m896 482.5c0 114.2-92.6 206.8-206.8 206.8-114.2 0-206.8-92.6-206.8-206.8v-206.8h206.8c114.3 0 206.8 92.6 206.8 206.8zM752.6 349.7H545.8v-206.8c0-114.2 92.6-206.8 206.8-206.8s206.8 92.6 206.8 206.8c-0.1 114.2-92.6 206.8-206.8 206.8z"  horiz-adv-x="1024" />

    
    <glyph glyph-name="gysgl" unicode="&#59056;" d="M557.2 320.7h-40.5V272h40.5v48.7zM332.8 642.5h86.8l45.4-36.9c26.9-26.9 70.6-26.9 97.5 0 0 0 21.2 15.1 50.1 36.9h82.1c33.3 0 60.3 27 60.3 60.3v34.5c0 33.3-27 60.3-60.3 60.3h-362c-33.3 0-60.3-27-60.3-60.3v-34.5c0.1-33.3 27.1-60.3 60.4-60.3z m181-68.9c-161.8 0-293-131.2-293-293s131.2-293 293-293 293 131.2 293 293c0.1 161.8-131.1 293-293 293z m0-551.6C371 22 255.3 137.7 255.3 280.5s115.8 258.6 258.6 258.6 258.6-115.8 258.6-258.6C772.4 137.7 656.6 22 513.8 22z m0 465.4c-114.2 0-206.9-92.6-206.9-206.9 0-114.2 92.6-206.9 206.9-206.9s206.9 92.6 206.9 206.9c0 114.3-92.6 206.9-206.9 206.9zM461.6 345c1.7 2.6 5.3 3.9 11 3.9h15.7v33.8c0 5.1 1.4 8.8 4.2 10.9 2.8 2.1 6.2 3.1 10 3.1s7.2-1 10-2.9 4.2-5.6 4.2-11.1v-33.8h40.5v35c0 5.1 1.3 8.8 3.9 10.9 2.6 2.1 6 3.1 10.4 3.1s7.7-1 10.1-2.9c2.4-1.9 3.6-5.6 3.6-11.1v-35h17.1c5.3 0 8.9-1.3 10.9-3.9 1.9-2.6 2.9-6 2.9-10.1 0-4.8-1-8.4-2.9-10.7-1.9-2.3-5.6-3.5-10.9-3.5h-17.1V272h22c5.3 0 8.9-1.3 10.7-4 1.8-2.7 2.8-6.2 2.8-10.5 0-4.5-0.9-8-2.8-10.5s-5.4-3.7-10.7-3.7H463.6c-5.3 0-8.9 1.2-10.7 3.7-1.9 2.5-2.8 6-2.8 10.5 0 4.3 0.9 7.8 2.8 10.5 1.8 2.7 5.4 4 10.7 4h24.6v48.7h-15.7c-5.6 0-9.3 1.2-11 3.5-1.7 2.3-2.5 5.9-2.5 10.7 0 4.2 0.9 7.5 2.6 10.1z m-19.7-10.6v-153.2c0-5.1-1.2-8.9-3.7-11.3-2.5-2.4-6-3.6-10.5-3.6-5.5 0-9.2 1.2-11.1 3.6-1.9 2.4-2.9 6.2-2.9 11.3v92.7c-3.7-4.2-7.3-6.2-10.7-6.2-3.5 0.1-6.8 1.3-10 3.7-4.2 2.7-6.2 6.1-5.9 10 0.2 3.9 2.6 9.4 7.1 16.5 4.2 6.6 7.8 13.2 11 19.7 3.1 6.5 5.9 13.2 8.3 19.9 2.4 6.8 4.6 13.8 6.6 21 2 7.2 4 14.9 5.9 22.9 1.3 6.1 3.1 10.7 5.4 13.6 2.3 3 6.5 4.1 12.4 3.5 11.3-1.4 14.8-9.3 10.6-23.7-2.1-7.2-4.1-14.2-6.2-21-1.9-6.6-4.1-13.1-6.3-19.4z m70-119.7c-3.4-5.5-8-11.5-13.8-18.2-5.8-6.7-12.3-13.6-19.5-20.9-3.4-3.1-6.2-5.3-8.6-6.9-2.3-1.5-4.4-2.4-6.3-2.7-1.9-0.2-3.6 0.2-5.3 1.3-1.7 1.1-3.5 2.8-5.4 5.1-3.4 3.1-4.9 6.4-4.5 10.1 0.4 3.7 3.9 8.4 10.5 14 12.4 10.9 22 22 28.7 33.3 4 6.3 7.7 10.1 11 11.3 3.3 1.3 7 0.6 11.2-1.9l0.2-0.2c5.1-3.2 7.6-6.9 7.5-11-0.1-4-2-8.5-5.7-13.3zM621 179.5c-0.6-3.7-2.6-6.9-5.8-9.7l-0.7-0.2c-3.7-2.6-7.4-3.5-11.2-2.9-3.8 0.6-7.8 4-11.9 10.1-4.7 7.2-9.4 13.7-14.2 19.4-4.8 5.7-10.1 11.4-15.9 17-4.2 3.7-6.9 7.3-8.1 10.9-1.2 3.5 0 7.6 3.7 12.3 3.2 3.5 6.9 5.2 11.1 4.9 4.2-0.2 8.4-2.6 12.8-7.1 3.4-3.5 6.5-6.8 9.3-9.8 2.8-3 5.6-6 8.2-9.2 2.7-3.1 5.3-6.4 8-9.9s5.6-7.4 8.8-11.9c4.5-5.6 6.5-10.2 5.9-13.9z"  horiz-adv-x="1024" />

    
    <glyph glyph-name="qjsp" unicode="&#59057;" d="M383 728.7h258.5c23.8 0 43.1 19.3 43.1 43.1V789c0 23.8-19.3 43.1-43.1 43.1H383c-23.8 0-43.1-19.3-43.1-43.1v-17.2c0-23.8 19.3-43.1 43.1-43.1z m336.1 34.5v-34.5c0-19-15.4-34.5-34.5-34.5H339.9c-19 0-34.5 15.4-34.5 34.5v34.5C210.2 763.2 133 686 133 590.8v-482.6c0-95.2 77.2-172.4 172.4-172.4h413.7c95.2 0 172.4 77.2 172.4 172.4V590.8c0 95.2-77.2 172.4-172.4 172.4z m0.8-356.8L455.3 189.2c-11.2-9.2-26.5-10.2-38.6-3.9-2.2 1.1-4.2 2.5-6.2 4.1l-105.8 86.9c-14.6 12-16.5 33.3-4.3 47.6 12.2 14.3 34 16.2 48.6 4.2l84-68.9 242.4 199.1c14.6 12 36.4 10.1 48.6-4.2 12.4-14.4 10.5-35.7-4.1-47.7z"  horiz-adv-x="1024" />

    
    <glyph glyph-name="jqsz" unicode="&#59058;" d="M513 360.6c1 1 1.5 2.9 1.5 5.7v39.1c0 2.3-0.5 3.8-1.5 4.6-1 0.8-2.5 1.1-4.6 1.1h-22.8c-3.5 0-5.3-2.2-5.3-6.4v-45.5h28.1c2-0.1 3.6 0.4 4.6 1.4zM391.3 772.3c0 14.3-11.6 25.9-25.9 25.9h-17.2c-14.3 0-25.9-11.6-25.9-25.9v-43.1h69v43.1z m310.4 0c0 14.3-11.6 25.9-25.9 25.9h-17.2c-14.3 0-25.9-11.6-25.9-25.9v-43.1h69v43.1z m86.2-43.2h-86.2v-77.6c0-14.3-11.6-25.9-25.9-25.9h-17.2c-14.3 0-25.9 11.6-25.9 25.9v77.6H391.3v-77.6c0-14.3-11.6-25.9-25.9-25.9h-17.2c-14.3 0-25.9 11.6-25.9 25.9v77.6h-86.2c-95.2 0-172.4-77.2-172.4-172.4v-413.8c0-95.2 77.2-172.4 172.4-172.4h551.8c95.2 0 172.4 77.2 172.4 172.4V556.7c0.1 95.2-77.1 172.4-172.4 172.4zM431.8 432.3c-3.5-13.7-7.3-26.4-11.2-38.1-3.9-11.8-8-23.3-12.3-34.7l-0.4-228.8c0-8.1-1.8-14.5-5.5-19.2-3.7-4.7-8.8-7-15.4-7-8.1 0-13.8 1.9-17.1 5.7-3.3 3.8-4.9 9.7-4.9 17.8V270.3c-6.3-8.9-12.3-13.6-18-14.2-5.7-0.6-11.1 1.2-16.1 5.5-6.3 4.3-9.4 9.6-9.3 15.9 0.1 6.3 3.9 14.8 11.2 25.4 13.7 19.7 25.1 41.4 34.3 65.1 9.2 23.6 16.8 48.5 22.6 74.5 2 9.6 4.8 16.8 8.3 21.4 3.5 4.7 9.6 6.5 18.2 5.5 16.5-2.2 21.7-14.6 15.6-37.1zM480.4 174v-47c0-14.4-6.7-21.6-20.1-21.6-7.6 0-12.9 1.8-15.9 5.3s-4.6 9-4.6 16.3V409.1c0 7.8 0.4 14.3 1.1 19.3 0.8 5.1 2.5 9.1 5.1 12.1 2.7 3 6.5 5.2 11.6 6.4 5.1 1.3 12 1.9 20.9 1.9h37.2c8.3 0 15-0.6 20.1-1.7 5.1-1.1 8.9-3.2 11.6-6.3 2.7-3 4.4-7.1 5.3-12.3 0.9-5.2 1.3-11.7 1.3-19.5v-47.8c0-7.8-0.4-14.4-1.1-19.5-0.8-5.2-2.5-9.3-5.1-12.3-2.7-3-6.5-5.1-11.6-6.3-5.1-1.1-11.9-1.7-20.5-1.7h-35.3V288h48.2c8.1 0 13.6-1.6 16.5-4.9 2.9-3.3 4.4-8.2 4.4-14.8 0-7.3-1.6-12.3-4.9-15-3.3-2.7-8.6-4-15.9-4h-48.2V213h50.8c8.1 0 13.6-1.6 16.5-4.9 2.9-3.3 4.4-8.3 4.4-15.2 0-6.6-1.6-11.4-4.9-14.4-3.3-3-8.6-4.6-15.9-4.6h-51z m207.1-59.2c-4.3-6.6-8.9-10.2-13.7-11-4.8-0.8-11.5 2.5-20.1 9.9-12.4 10.1-24.4 23.1-36 39.1-13.4-14.7-28.7-28.1-45.9-40.2-6.6-5.3-12.6-7.9-18.2-7.8-5.6 0.1-10.2 3.9-14 11.2-2.8 5.1-3.7 9.9-2.8 14.4 0.9 4.6 5.5 9.7 13.8 15.6 16.9 11.6 32.1 25.5 45.5 41.7-7.1 13.1-13.3 26.9-18.6 41.3-5.3 14.4-9.4 29.6-12.1 45.5-8.9 2-13.3 7.8-13.3 17.5 0 7.3 2 12.3 6.1 15 4 2.7 10 4 17.8 4h70.9c19.5 0 29.2-10.4 29.2-31.1 0-2.8-0.1-5.8-0.4-8.9-0.3-3.2-0.9-6.4-1.9-9.7-7.3-28.6-17.7-53.7-31.1-75.5 10.6-15.7 22-28.7 34.1-39.1 7.6-6.6 12.1-12.3 13.7-17.1 1.5-4.8 0.5-9.8-3-14.8zM632.3 409c-0.6 0.6-2.3 0.9-5.1 0.9h-39.1c-7.8 0-14 1.4-18.4 4.2-4.4 2.8-6.6 7.8-6.6 15.2 0 7.6 2.2 12.6 6.6 15 4.4 2.4 10.6 3.6 18.4 3.6h45.5c8.1 0 14.7-0.4 19.7-1.3 5.1-0.9 9-2.7 11.8-5.5 2.8-2.8 4.7-6.8 5.7-11.9 1-5.2 1.5-12.1 1.5-20.7v-39.8c0-8.6-0.5-15.4-1.5-20.5s-2.9-8.9-5.7-11.6c-2.8-2.7-6.7-4.4-11.8-5.3-5.1-0.9-11.6-1.3-19.7-1.3h-47c-7.3 0-12.9 1.3-16.7 3.8-3.8 2.5-5.7 7.8-5.7 15.9 0 7.6 1.9 12.5 5.7 14.8 3.8 2.3 9.4 3.4 16.7 3.4h42.9c1.8 0 2.8 0.2 3.2 0.8 0.4 0.5 0.6 1.5 0.6 3v33c-0.1 2.2-0.4 3.6-1 4.3z m241.8 147.7H149.9c-9.5 0-17.2 7.7-17.2 17.2s7.7 17.2 17.2 17.2h724.2c9.5 0 17.2-7.7 17.2-17.2 0.1-9.5-7.6-17.2-17.2-17.2zM631 273.7h-31.1c1-4.3 2.4-9 4.2-14 1.8-5.1 3.6-10.2 5.5-15.4 1.9-5.2 3.8-10.2 5.7-15.2 1.9-4.9 3.7-9.3 5.5-13.1 1.8 3.3 3.4 7.2 4.9 11.8 1.5 4.6 2.9 9.2 4.2 13.8 1.3 4.7 2.5 9.2 3.6 13.7 1.1 4.4 2.1 8.4 2.8 11.9 0.5 2.5 0.4 4.2-0.2 5.1-0.7 1-2.4 1.4-5.1 1.4z"  horiz-adv-x="1024" />

    
    <glyph glyph-name="qjsq" unicode="&#59059;" d="M650.6 280c-23.1 7.7-45.8 12.7-67.2 15.1-15.4-0.6-20.5 1.1-22.2 17.5h-0.8c-9.1 0-16.5 10.9-16.5 24.4s7.4 24.4 16.5 24.4c0.6 0 1.2-0.1 1.8-0.1 5.3 23.6 22.2 42.1 43.5 47.3 22.1 22.9 40 51.1 52.2 82.8 0.4 0 0.9-0.1 1.3-0.1 18.2 0 32.9 21.8 32.9 48.7 0 18.1-6.7 33.8-16.5 42.2 0 2.1 0.1 4.3 0.1 6.5 0 134.5-68.4 243.6-214 243.6s-214-109-214-243.6c0-2.2 0-4.3 0.1-6.5-9.9-8.4-16.5-24.2-16.5-42.2 0-26.9 14.7-48.7 32.9-48.7 0.5 0 0.9 0 1.3 0.1 12.1-31.7 30-59.8 52.2-82.8 21.2-5.2 38.1-23.7 43.5-47.3 0.6 0.1 1.2 0.1 1.8 0.1 9.1 0 16.5-10.9 16.5-24.4s-7.4-24.4-16.5-24.4h-0.7c-1.2-13.6-4.7-17.2-14.6-17.7-30.6-3-63.9-11.3-97.3-25-84.9-34.8-144-105-149.5-158.9-0.8-3.2-1.2-6.4-1.2-9.5 0-62.8 55-113.7 362.1-113.7 40.8 0 77.2 0.9 109.6 2.6-15.3 30.3-23.9 64.5-23.9 100.8-0.3 79.3 40.9 149 103.1 188.8z m120.6-33.8c-85.7 0-155.1-69.4-155.1-155.1S685.5-64 771.2-64s155.1 69.4 155.1 155.1-69.4 155.1-155.1 155.1z m86.2-172.3h-86.2c-9.5 0-17.2 7.7-17.2 17.2v86.2c0 9.5 7.7 17.2 17.2 17.2s17.2-7.7 17.2-17.2v-68.9h68.9c9.5 0 17.2-7.7 17.2-17.2 0.1-9.6-7.6-17.3-17.1-17.3z"  horiz-adv-x="1024" />

    
    <glyph glyph-name="qbgd" unicode="&#59060;" d="M667.4 762.8H357.2c-95.2 0-172.3-77.2-172.3-172.3v-413.6c0-95.2 77.2-172.3 172.3-172.3h310.2c95.2 0 172.3 77.2 172.3 172.3V590.5c0 95.2-77.1 172.3-172.3 172.3zM322.7 625h137.9c19 0 34.5-15.4 34.5-34.5S479.6 556 460.6 556H322.7c-19 0-34.5 15.4-34.5 34.5s15.5 34.5 34.5 34.5z m379.2-482.6H322.7c-19 0-34.5 15.4-34.5 34.5 0 19 15.4 34.5 34.5 34.5h379.1c19 0 34.5-15.4 34.5-34.5 0-19-15.4-34.5-34.4-34.5z m0 137.9H322.7c-19 0-34.5 15.4-34.5 34.5s15.4 34.5 34.5 34.5h379.1c19 0 34.5-15.4 34.5-34.5s-15.4-34.5-34.4-34.5z m0 137.9H322.7c-19 0-34.5 15.4-34.5 34.5 0 19 15.4 34.5 34.5 34.5h379.1c19 0 34.5-15.4 34.5-34.5s-15.4-34.5-34.4-34.5z"  horiz-adv-x="1024" />

    
    <glyph glyph-name="rygl" unicode="&#59061;" d="M889.8 68.5c-4.6 56.6-65.7 131.1-153.8 167.8-32.9 13.7-65.6 22.1-95.9 25.6-16.1-0.7-21.5 1.2-23.3 18.5h-0.9c-9.5 0-17.2 11.6-17.2 25.8 0 14.3 7.7 25.8 17.2 25.8 0.6 0 1.3-0.1 1.9-0.2 5.6 25.1 23.2 44.7 45.5 50.2 23.2 24.3 41.9 54.2 54.6 87.8 0.5 0 0.9-0.1 1.4-0.1 19 0 34.5 23.1 34.5 51.7 0 19.2-7 35.9-17.3 44.8 0.1 2.3 0.1 4.6 0.1 6.9 0 142.7-71.6 258.5-224 258.5s-224-115.7-224-258.5c0-2.3 0-4.6 0.1-6.9-10.3-8.9-17.3-25.6-17.3-44.8 0-28.5 15.4-51.7 34.5-51.7 0.5 0 0.9 0 1.4 0.1 12.7-33.6 31.4-63.5 54.6-87.8 22.2-5.6 39.9-25.1 45.5-50.2 0.6 0.1 1.2 0.2 1.9 0.2 9.5 0 17.2-11.6 17.2-25.8 0-14.3-7.7-25.8-17.2-25.8h-0.7c-1.3-14.4-5-18.3-15.3-18.8-32-3.2-66.9-12-101.9-26.5-88.9-36.9-150.7-111.4-156.5-168.6-0.8-3.4-1.3-6.7-1.3-10.1 0-66.6 57.6-120.6 379.1-120.6s379.1 54 379.1 120.6c-0.1 4-0.8 8.1-2 12.1z"  horiz-adv-x="1024" />

    
    <glyph glyph-name="sjgl" unicode="&#59062;" d="M666.4 581.5c28.5 0 51.7 23.1 51.7 51.7V736.6c0 28.5-23.1 51.7-51.7 51.7s-51.7-23.1-51.7-51.7v-103.4c0-28.6 23.2-51.7 51.7-51.7z m-310.1 0c28.5 0 51.7 23.1 51.7 51.7V736.6c0 28.5-23.1 51.7-51.7 51.7-28.5 0-51.7-23.1-51.7-51.7v-103.4c0-28.6 23.1-51.7 51.7-51.7z m396.3 103.4h-17.2V633.2c0-38.1-30.9-68.9-68.9-68.9-38.1 0-68.9 30.9-68.9 68.9V684.9H425.2V632c-0.8-32.4-31.3-67.7-68.9-67.7-37.7 0-68.2 30.2-68.9 67.7v52.9h-17.2c-114.2 0-206.8-92.6-206.8-206.8V168c0-114.2 92.6-206.8 206.8-206.8h482.5c114.2 0 206.8 92.6 206.8 206.8V478.1c-0.2 114.2-92.7 206.8-206.9 206.8zM424.4 426.3l331.8 0.1v-0.2c26.9-2 48.1-24.3 48.1-51.5s-21.2-49.5-48.1-51.5v-0.2H424.4v0.1c-28.4 1.4-50.9 23.9-50.9 51.6 0 27.7 22.5 50.3 50.9 51.6z m-171.5 0.1c28.5 0 51.7-23.1 51.7-51.7 0-28.5-23.1-51.7-51.7-51.7-28.5 0-51.7 23.1-51.7 51.7s23.1 51.7 51.7 51.7zM787 150.7H235.6c-19 0-34.5 15.4-34.5 34.5 0 19 15.4 34.5 34.5 34.5H787c19 0 34.5-15.4 34.5-34.5s-15.4-34.5-34.5-34.5z"  horiz-adv-x="1024" />

    
    <glyph glyph-name="rgfw" unicode="&#59063;" d="M515.3 797.7c-207.5 0-375.7-170.5-375.7-380.8 0-173.2 114.1-319.4 270.2-365.6-15.3-19.7-34.9-36.5-58.4-49-2.2-1.2-4.4-2.3-6.6-3.3 61.3-34.8 138.5-38.6 205.4-3.1 26.1 13.9 48.2 32.4 65.6 54 158.6 44.6 275.1 192 275.1 367C891 627.2 722.8 797.7 515.3 797.7z m102.5-233.3c0 14.1 11.4 25.5 25.5 25.5h17.2c14.1 0 25.5-11.4 25.5-25.5v-52.8c0-14.1-11.4-25.5-25.5-25.5h-17.2c-14.1 0-25.5 11.4-25.5 25.5v52.8z m-260.8 0.7c0 14.3 11.6 25.8 25.8 25.8H400c14.3 0 25.8-11.6 25.8-25.8v-51.7c0-14.3-11.6-25.8-25.8-25.8h-17.2c-14.3 0-25.8 11.6-25.8 25.8v51.7zM777.8 365c0.1-0.3-0.5-2.5-3.7-12.1-34.6-102-131.1-175.3-244.7-175.3-118.6 0-218.5 79.9-248.9 188.8-1.1 2.9-1.7 6.1-1.7 9.4 0 14.3 11.5 26 25.6 26 12.8 0 23.4-9.5 25.3-21.9 1.1-2.5 2.5-6.1 4.3-11.3 28-81 104.9-139.2 195.4-139.2 91.8 0 169.6 59.9 196.6 142.7 2.9 8.9 4.3 13 5.4 15.3 3.8 9.6 13.1 16.4 24.1 16.4 14.3 0 25.8-11.6 25.8-25.8v-0.1c0.4-0.1 0.7-0.2 1.1-0.4-0.5-1.4-1-2.6-1.4-3.7-0.1-0.6-0.2-1.3-0.4-1.9-0.7-2.6-1.6-4.8-2.8-6.9z"  horiz-adv-x="1024" />

    
    <glyph glyph-name="xbgl" unicode="&#59064;" d="M813.7 728.1H210c-81 0-146.6-65.6-146.6-146.6v-17.2c0-81 65.6-146.6 146.6-146.6h603.8c81 0 146.6 65.6 146.6 146.6v17.2c0 81-65.7 146.6-146.7 146.6z m8.7-241.5h-621c-9.5 0-17.3 7.7-17.3 17.2s7.7 17.3 17.3 17.3h621c9.5 0 17.3-7.7 17.3-17.3s-7.8-17.2-17.3-17.2z m0 138h-621c-9.5 0-17.3 7.7-17.3 17.2s7.7 17.3 17.3 17.3h621c9.5 0 17.3-7.7 17.3-17.3-0.1-9.5-7.8-17.2-17.3-17.2z m-8.7-276H210C129 348.6 63.3 283 63.3 202v-17.3c0-81 65.6-146.6 146.6-146.6h603.8c81 0 146.6 65.6 146.6 146.6V202c0.1 81-65.6 146.6-146.6 146.6z m8.7-241.5h-621c-9.5 0-17.3 7.7-17.3 17.3 0 9.5 7.7 17.3 17.3 17.3h621c9.5 0 17.3-7.7 17.3-17.3-0.1-9.6-7.8-17.3-17.3-17.3z m0 138h-621c-9.5 0-17.3 7.7-17.3 17.3 0 9.5 7.7 17.3 17.3 17.3h621c9.5 0 17.3-7.7 17.3-17.3-0.1-9.6-7.8-17.3-17.3-17.3z"  horiz-adv-x="1024" />

    
    <glyph glyph-name="xxgl" unicode="&#59065;" d="M949.7 33.6c-56.1 0-106.2 25.2-139.6 64.7 71.1 74.3 114.7 175 114.7 285.9 0 228.4-185.1 413.5-413.5 413.5S97.8 612.5 97.8 384.2c0-228.4 185.1-413.5 413.5-413.5 43.6 0 85.5 6.7 125 19.2 37.6-33.4 87.2-53.7 141.6-53.7 75.3 0 141.5 38.9 179.1 97.5-2.4-0.1-4.9-0.1-7.3-0.1zM304.5 332.5c-28.5 0-51.7 23.1-51.7 51.7 0 28.5 23.1 51.7 51.7 51.7s51.7-23.1 51.7-51.7-23.1-51.7-51.7-51.7z m206.8 0c-28.5 0-51.7 23.1-51.7 51.7 0 28.5 23.1 51.7 51.7 51.7 28.5 0 51.7-23.1 51.7-51.7s-23.2-51.7-51.7-51.7z m206.8 0c-28.5 0-51.7 23.1-51.7 51.7 0 28.5 23.1 51.7 51.7 51.7 28.5 0 51.7-23.1 51.7-51.7-0.1-28.6-23.2-51.7-51.7-51.7z"  horiz-adv-x="1024" />

    
    <glyph glyph-name="wtgl" unicode="&#59066;" d="M787.2 607.9c0 123.6-115.6 223.8-258.3 223.8-60.2 0-115.6-17.9-159.5-47.8-15.5-9.6-79.8-53.4-116-141.6-3.4-4.5-6.4-9.4-8.9-14.6-5.4-11.2-8.4-23.8-8.4-37.1 0-39 25.9-71.9 61.4-82.5l0.1-0.1 0.1 0.1c7.8-2.3 16-3.6 24.5-3.6 41.7 0 76.4 29.6 84.4 68.9h0.1c27.5 65.4 67.6 100.8 70.3 103.2 14.4 10.9 32.4 17.4 51.8 17.4 47.5 0 86.1-38.5 86.1-86.1 0-25.1-10.7-47.7-27.9-63.4l0.4-0.5s-106.7-79.3-141-148.4c0.1 0 0.3-0.1 0.4-0.1-13.9-28.8-18.8-58.3-20.6-77.3-0.6-3.8-0.9-7.7-0.9-11.7v-1.9c-0.1-4.3 0-6.7 0-6.7h0.5c4.3-38.7 37.1-68.9 77-68.9s72.7 30.1 77 68.9h0.5c-1.1 75.5 86.1 120.5 86.1 120.5 72.7 39.8 120.8 109.8 120.8 189.5zM511.7 143.1c-57.1 0-103.3-46.3-103.3-103.3s46.3-103.3 103.3-103.3S615-17.3 615 39.8s-46.2 103.3-103.3 103.3z"  horiz-adv-x="1024" />

    
    <glyph glyph-name="ysgl" unicode="&#59067;" d="M701.4 797.6H322.5c-95.1 0-172.2-77.1-172.2-172.2v-482.2c0-95.1 77.1-172.2 172.2-172.2h378.9c95.1 0 172.2 77.1 172.2 172.2V625.3c0.1 95.2-77 172.3-172.2 172.3z m34.5-671.7h-41.6c-13.3-30.4-43.6-51.7-78.9-51.7s-65.6 21.3-78.9 51.7H288.1c-19 0-34.4 15.4-34.4 34.4s15.4 34.4 34.4 34.4h248.3c13.3 30.4 43.6 51.7 78.9 51.7s65.6-21.3 78.9-51.7h41.6c19 0 34.4-15.4 34.4-34.4 0.1-19-15.3-34.4-34.3-34.4z m0 223.9H487.6c-13.3-30.4-43.6-51.7-78.9-51.7s-65.6 21.3-78.9 51.7h-41.6c-19 0-34.4 15.4-34.4 34.4s15.4 34.4 34.4 34.4h41.6c13.3 30.4 43.6 51.7 78.9 51.7s65.6-21.3 78.9-51.7h248.3c19 0 34.4-15.4 34.4-34.4s-15.4-34.4-34.4-34.4z m0 223.9h-41.6c-13.3-30.4-43.7-51.7-79-51.7s-65.6 21.3-78.9 51.7H288.1c-19 0-34.4 15.4-34.4 34.4s15.4 34.4 34.4 34.4h248.3c13.3 30.4 43.6 51.7 78.9 51.7s65.6-21.3 78.9-51.7h41.6c19 0 34.4-15.4 34.4-34.4 0.1-19-15.3-34.4-34.3-34.4z"  horiz-adv-x="1024" />

    
    <glyph glyph-name="zccx" unicode="&#59068;" d="M494.3 452.5c-57 0-103.2-46.2-103.2-103.2s46.2-103.2 103.2-103.2 103.2 46.2 103.2 103.2c0.1 57-46.2 103.2-103.2 103.2zM632 762.1H356.7c-95 0-172-77-172-172v-412.9c0-95 77-172 172-172h309.6c95 0 172 77 172 172V555.8C816 578.6 632 762.1 632 762.1z m33.9-601.6c-7.9-7.9-19.8-9.6-29.4-5l-1-1-6.1 6.1-55.8 55.8c-23.2-13.9-50.3-21.8-79.3-21.8-85.5 0-154.8 69.3-154.8 154.8s69.3 154.8 154.8 154.8 154.8-69.3 154.8-154.8c0-37.8-13.6-72.5-36.1-99.4l59-59-1-1c4.6-9.7 2.9-21.6-5.1-29.5z m2.6 362.5c-37.9 0-68.6 30.7-68.6 68.6V728.9L810 523H668.5z"  horiz-adv-x="1024" />

    
    <glyph glyph-name="tel_o" unicode="&#59069;" d="M828.2 701C653.5 875.8 370.1 875.8 195.3 701s-174.8-458.2 0-632.9 458.2-174.8 632.9 0 174.8 458.2 0 632.9z m-72.5-515.6c-78.7-78.7-241.6-43.2-363.9 79.1-122.4 122.4-161.6 298.5-79.2 364 17.5 17.5 45.8 17.5 63.3 0l63.3-63.3c17.5-17.5 17.5-45.8 0-63.3l-15.8-15.8c-1.7-1.7-3.7-3.6-5.9-5.7-0.5-0.7-1.2-1.4-2-2.2-28.3-28.3-15.2-88.2 28.6-138.6 3.2-3.5 6.4-7 9.7-10.5l1.2-1.2 3.3-3.3c51.9-49.9 117.1-66.3 147.1-36.4l7.9 7.9 15.8 15.8c17.5 17.5 45.8 17.5 63.3 0l63.3-63.3c17.5-17.4 17.5-45.7 0-63.2z"  horiz-adv-x="1024" />

    
    <glyph glyph-name="add_staff" unicode="&#59070;" d="M724.3 226.9h-33.5v34.2c-0.4 5.8-5.2 10.5-11.1 10.5-5.9 0-10.8-4.6-11.1-10.5v-34.2h-33.5c-6.2 0-11.2-5-11.2-11.2 0-6.2 5-11.2 11.2-11.2h33.5V171c0-6.2 5-11.2 11.2-11.2 6.2 0 11.2 5 11.2 11.2v33.5h33.5c6.2 0 11.2 5 11.2 11.2-0.3 6.2-5.3 11.2-11.4 11.2zM511.9 830.5C265 830.5 64.8 630.3 64.8 383.4c0-246.9 200.2-447.1 447.1-447.1S959 136.5 959 383.4c0 246.9-200.2 447.1-447.1 447.1z m59.8-712.2c-18.4-0.9-38.8-1.3-61.4-1.3-190.2 0-224.2 32.3-224.2 72.2 0 1.9 0.2 3.7 0.6 5.6 2.6 37 39.5 90.2 92.7 112.6 24.4 10.3 50.5 20.4 73.5 25.2 0 0 3 10 3 16s-3 10.5-3 10.5c-28.5 16-51.4 43.7-64.1 77.7h-0.8c-11.3 0-20.4 13.9-20.4 31 0 11.5 4.1 21.5 10.2 26.8v4.1c0 85.5 42.3 154.8 132.5 154.8s132.5-69.3 132.5-154.8v-4.1c6.1-5.3 10.2-15.4 10.2-26.8 0-17.1-9.1-31-20.4-31h-0.8c-13-34.6-36.5-62.7-65.8-78.6 0 0-2.2-5.3-2.2-12s1.8-11.3 1.8-11.3c7.3-1.6 14.9-3.7 22.7-6.2-33-26.6-54.1-67.4-54.1-113.1 0-37.4 14.2-71.5 37.5-97.3z m107.9-3.2c-55.6 0-100.6 45-100.6 100.6 0 55.6 45 100.6 100.6 100.6 55.6 0 100.6-45 100.6-100.6 0-55.5-45.1-100.6-100.6-100.6z"  horiz-adv-x="1024" />

    
    <glyph glyph-name="arrow_left" unicode="&#59071;" d="M310.1 436.5l335 336.1c29.1 29.1 76.3 29.1 105.4 0 29.1-29.1 29.1-76.3 0-105.4L468.2 383.9l282.3-282.3c29.1-29.1 29.1-76.3 0-105.4-29.1-29.1-76.3-29.1-105.4 0l-335 335c-29.1 29-29.1 76.2 0 105.3z"  horiz-adv-x="1024" />

    
    <glyph glyph-name="arrow_right" unicode="&#59072;" d="M750.5 436.5l-335 336.1c-29.1 29.1-76.3 29.1-105.4 0-29.1-29.1-29.1-76.3 0-105.4l282.3-283.3-282.3-282.3c-29.1-29.1-29.1-76.3 0-105.4 29.1-29.1 76.3-29.1 105.4 0l335 335c29.2 29 29.2 76.2 0 105.3z"  horiz-adv-x="1024" />

    
    <glyph glyph-name="arrow_up" unicode="&#59073;" d="M459.2 604.6l-336.1-335c-29.1-29.1-29.1-76.3 0-105.4 29.1-29.1 76.3-29.1 105.4 0l283.3 282.3 282.3-282.3c29.1-29.1 76.3-29.1 105.4 0 29.1 29.1 29.1 76.3 0 105.4l-335 335c-29 29.1-76.2 29.1-105.3 0z"  horiz-adv-x="1024" />

    
    <glyph glyph-name="attention" unicode="&#59074;" d="M511.1 833.6c-38 0-68.9-30.8-68.9-68.9v-516.5c0-38 30.8-68.9 68.9-68.9 38 0 68.9 30.8 68.9 68.9V764.7c0 38-30.8 68.9-68.9 68.9z m0-757.6c-38 0-68.9-30.8-68.9-68.9 0-38 30.8-68.9 68.9-68.9 38 0 68.9 30.8 68.9 68.9 0 38-30.8 68.9-68.9 68.9z"  horiz-adv-x="1024" />

    
    <glyph glyph-name="arrow_down" unicode="&#59075;" d="M459.2 164.2l-336.1 335c-29.1 29.1-29.1 76.3 0 105.4 29.1 29.1 76.3 29.1 105.4 0l283.3-282.3 282.3 282.3c29.1 29.1 76.3 29.1 105.4 0 29.1-29.1 29.1-76.3 0-105.4l-335-335c-29-29.1-76.2-29.1-105.3 0z"  horiz-adv-x="1024" />

    
    <glyph glyph-name="close_o" unicode="&#59076;" d="M826.9 700.7c-174.8 174.8-458.3 174.8-633.1 0C19 525.8 19 242.4 193.8 67.6s458.3-174.8 633.1 0c174.9 174.8 174.9 458.2 0 633.1z m-182-245.4l-87.1-87 87.1-87.1c13.1-13.1 13.1-34.4 0-47.5-13.1-13.1-34.4-13.1-47.5 0l-0.1 0.1-87 87-87.1-87.1c-13.1-13.1-34.4-13.1-47.5 0-13.1 13.1-13.1 34.4 0 47.5l0.1 0.1 87 87-87.1 87.1c-13.1 13.1-13.1 34.4 0 47.5 13.1 13.1 34.4 13.1 47.5 0l87.1-87.1 87.1 87.1c13.1 13.1 34.4 13.1 47.5 0 13.1-13.2 13.1-34.5 0-47.6z"  horiz-adv-x="1024" />

    
    <glyph glyph-name="contacts" unicode="&#59077;" d="M511.3 831.8c-247.4 0-448-200.6-448-448s200.6-448 448-448 448 200.6 448 448-200.5 448-448 448zM522.9 115c-190.5 0-224.7 32.4-224.7 72.4 0 1.9 0.2 3.7 0.6 5.6 2.6 37.1 39.5 90.4 92.9 112.8 24.5 10.3 50.6 20.4 73.7 25.3 0 0 2 10.8 2 15.6s-2 11-2 11c-28.6 16.1-51.5 43.8-64.2 77.8h-0.8c-11.3 0-20.4 13.9-20.4 31 0 11.5 4.1 21.5 10.3 26.9v4.1c0 85.6 42.4 155.1 132.8 155.1 90.3 0 132.8-69.4 132.8-155.1v-4.1c6.1-5.4 10.3-15.4 10.3-26.9 0-17.1-9.1-31-20.4-31h-0.8c-13-34.7-36.5-62.8-65.9-78.7 0 0-2.2-5.3-2.2-10.8 0-6.7 1.8-12.5 1.8-12.5 24-5.1 51.8-16.4 76.9-27 52.8-22.2 89.2-75.5 91.2-112.1 0.7-2.3 1-4.7 1-7-0.3-40-34.4-72.4-224.9-72.4z"  horiz-adv-x="1024" />

    
    <glyph glyph-name="dcsm" unicode="&#59078;" d="M649.6 628.1H373.5c-30.5 0-55.2-24.3-55.2-54.2v-325.5c0-30 24.7-54.2 55.2-54.2V140h276.1v54.2c30.5 0 55.2 24.3 55.2 54.2V573.8c0 30-24.7 54.3-55.2 54.3zM622 275.5h-82.8c-15.2 0-27.6 12.1-27.6 27.1 0 15 12.3 27.1 27.6 27.1H622c15.2 0 27.6-12.1 27.6-27.1 0-15-12.4-27.1-27.6-27.1z m27.6 135.6c0-15-12.4-27.1-27.6-27.1H401.1c-15.2 0-27.6 12.1-27.6 27.1V546.7c0 15 12.4 27.1 27.6 27.1H622c15.2 0 27.6-12.1 27.6-27.1v-135.6z"  horiz-adv-x="1024" />

    
    <glyph glyph-name="flashlight" unicode="&#59079;" d="M427.5 573.2h29.8v42h-29.8v-42z m-48.8 42v-42H406v42h-27.3z m128.7-388.4h21.5c11.8 0 21.5 9.4 21.5 21v42H486v-42c0-11.6 9.6-21 21.4-21z m-28.7 346.4h29.8v42h-29.8v-42z m71.7-230.9c0 11.6-9.6 21-21.5 21h-21.5c-11.9 0-21.5-9.4-21.5-21v-31.5h64.4v31.5zM530 573.2h29.8v42H530v-42zM511.2 832.1c-247.3 0-447.8-200.5-447.8-447.8s200.5-447.8 447.8-447.8S959 136.9 959 384.3c0 247.3-200.5 447.8-447.8 447.8zM614.7 225c0-51.1-43.3-92.6-96.6-92.6-53.2 0-96.6 41.6-96.6 92.6V429.7h193.1V225z m64.4 337.7c0-0.3-0.1-0.6-0.1-0.9 0-0.3 0-0.6-0.1-0.8-0.1-0.7-0.3-1.3-0.5-1.9 0-0.1 0-0.2-0.1-0.3l-0.1-0.1v-0.1l-32.4-79c-5.6-13.5-17.1-23.8-31.1-28.9h-0.1c-6.1-2.2-12.5-3.4-19-3.4h-155c-6.5 0-12.9 1.2-19 3.4h-0.1c-14 5.1-25.5 15.4-31.1 28.9l-32.4 79-0.1 0.1c0 0.1 0 0.2-0.1 0.3-0.2 0.6-0.4 1.3-0.5 1.9 0 0.3-0.1 0.5-0.1 0.8 0 0.3-0.1 0.6-0.1 0.9v63c0 5.8 4.8 10.5 10.7 10.5h300.4c5.9 0 10.7-4.7 10.7-10.5v-62.9z m-46.7 10.5h25.2v42h-25.2v-42z m-51.2 0H611v42h-29.8v-42z"  horiz-adv-x="1024" />

    
    <glyph glyph-name="icon_tips" unicode="&#59080;" d="M512.2 832.1C264.7 832.1 64 631.5 64 384s200.7-448.2 448.2-448.2S960.4 136.5 960.4 384 759.7 832.1 512.2 832.1z m-0.6-728.2c-30.9 0-55.9 25-55.9 56s25 56 55.9 56 55.9-25 55.9-56-25-56-55.9-56zM567.5 356c0-15.5-12.5-28-28-28h-55.9c-15.4 0-28 12.5-28 28V636.1c0 15.5 12.5 28 28 28h55.9c15.4 0 28-12.5 28-28V356z"  horiz-adv-x="1024" />

    
    <glyph glyph-name="position" unicode="&#59081;" d="M512 831.5c-209.5 0-379.3-166.6-379.3-372 0-94.5 36.2-180.3 95.2-245.9 1.6-3 3.7-6 6.2-8.6l246.3-253.1c1.2-1.6 2.5-3.3 3.9-4.7 3.7-3.7 8-6.3 12.6-8.2 14.2-6.5 31.4-4.4 42.9 7 3.2 3.2 5.7 6.8 7.4 10.7L789 205c2.3 2.1 4.1 4.7 5.7 7.4 59.7 65.6 96.2 152.1 96.2 247C891.3 664.8 721.5 831.5 512 831.5z m-0.2-523.2c-94.3 0-170.8 75.1-170.8 167.5s76.6 167.5 170.8 167.5 170.8-75.1 170.8-167.5c0.1-92.4-76.5-167.5-170.8-167.5z"  horiz-adv-x="1024" />

    
    <glyph glyph-name="pdgd" unicode="&#59082;" d="M277.8 193c0-17.9 14.9-32.6 32.9-32.6h402.1c18.1 0 32.9 14.7 32.9 32.6V475.9H277.8V193z m142.1 158.2c5.9 0 11.6-2.2 16-6.1l46.1-45.3c1.1-1.1 2.7-1.8 4.3-1.8 1.6 0 3.2 0.6 4.3 1.8l100.6 98.9c8.6 8.3 22.6 8.3 31.3 0l1-1c4.2-4.1 6.5-9.6 6.5-15.4 0-5.8-2.3-11.3-6.5-15.4L499.8 245.3c-3.9-3.9-9.3-6.1-14.8-6.1-5.6 0-10.9 2.2-14.8 6.1l-17.4 17.1-50.5 49.6c-4 4.3-6.2 9.9-6.2 15.8 0 12.9 10.7 23.4 23.8 23.4z m277.7 251.7H559.9c-1 25.4-22.4 45.7-48.1 45.7-25.7 0-47.1-20.3-48.1-45.7H325.9c-26.4 0-48.1-21.5-48.1-47.6v-47.6h467.9v47.6c0 26.1-21.7 47.6-48.1 47.6z"  horiz-adv-x="1024" />

    
    <glyph glyph-name="kjsm" unicode="&#59083;" d="M461.4 441.8l-165.8 62.8c-4.3 1.6-8.5 2.5-12.5 2.5-15.5 0-25.5-12.1-25.5-30.9v-209.3c0-22.4 14.5-44.8 33.5-52l163.5-62.8c4.3-1.6 8.9-2.5 13.1-2.5 16.8 0 29.5 13 29.5 30.9V389.8c0 21.6-15.9 44.5-35.8 52zM737.2 507c-4.8 0-9.5-0.9-13.9-2.5l-163.2-62.7c-19.3-7.3-32.9-29.6-32.9-52v-209.3c0-18.5 9.6-27.4 25.2-27.4h-0.9c4 0 8.9-0.9 13.2 0.7l165.6 61c19.7 7.5 36.4 30.3 36.4 52V476.1c0.1 18.2-12.7 30.9-29.5 30.9z m-9.4 30.1c15.3 5.7 17.6 14 17.6 18.4 0 4.4-2.3 12.7-17.6 18.4l-186.6 69.4c-9.1 3.4-21 5.2-33.6 5.2-12.6 0-24.6-1.9-33.6-5.2l-186.6-69.4c-15.3-5.7-17.6-14-17.6-18.4 0-4.4 2.3-12.7 17.6-18.4L474 467.7c9.1-3.4 21-5.2 33.6-5.2 12.6 0 24.6 1.9 33.6 5.2l186.6 69.4z"  horiz-adv-x="1024" />

    
    <glyph glyph-name="radio_button" unicode="&#59084;" d="M512 832.4c-247.6 0-448.3-200.7-448.3-448.3S264.4-64.2 512-64.2s448.3 200.7 448.3 448.3S759.6 832.4 512 832.4z m0-851.8c-222.8 0-403.5 180.6-403.5 403.5S289.1 787.6 512 787.6 915.5 607 915.5 384.1 734.8-19.4 512-19.4z"  horiz-adv-x="1024" />

    
    <glyph glyph-name="nfc" unicode="&#59085;" d="M779.5 643.8s-17.4 20.1-43.6 8c-25.9-12-17-43.4-17-43.4s54.7-105.9 53.2-233.6v-1.8c1.5-127.8-53.2-231.8-53.2-231.8s-8.9-31.4 17-43.4c26.2-12 43.6 8 43.6 8 67.3 131.8 62.8 256.6 62.8 269 0 12.4 4.5 137.2-62.8 269zM457.6 533.2s-29.9-11-3.3-75.2c23.3-59.5 17.4-134.7 5.2-136.5-13.7-1.5-214 176-240.2 176-14 0-44-17.9-42.1-128.5 2.2-111 44.3-121.9 58-120.8 14 2.2 30.3 17.2 20.3 71.9-10 52.9-6.3 62.8 4.1 58.8 10-4 196.2-144.6 208.1-152.2 12.2-8 28.1-8 44 13.9 16.6 21.5 32.2 86.9 32.2 148.2S508.1 511.5 494 527.5c-14.2 15.6-36.4 5.7-36.4 5.7zM649 584.7s-17.4 19.7-43.6 7.7c-25.9-11.7-17-43.4-17-43.4s37.3-47.5 41-174.1v-1.8c-5.5-125.9-41-176.3-41-176.3s-8.9-31.4 17-43.4c26.2-12 43.6 8 43.6 8 55.1 107 51.4 201.1 50.6 213.6 0.8 12.2 4.5 110.8-50.6 209.7z"  horiz-adv-x="1024" />

    
    <glyph glyph-name="zclyygh" unicode="&#59086;" d="M307.1 426.9h211.5c16.8 0 30.5 13.7 30.5 30.5 0 16.9-13.6 30.5-30.5 30.5H307.1c-16.8 0-30.5-13.7-30.5-30.5s13.7-30.5 30.5-30.5z m0 110h293c16.8 0 30.5 13.7 30.5 30.5 0 16.9-13.6 30.5-30.5 30.5h-293c-16.8 0-30.5-13.7-30.5-30.5 0-16.9 13.7-30.5 30.5-30.5z m435.2-207.7c-54.9 14.1-101 41.6-121.7 50.8-26.9 11.9-42.4 2.3-104.6-11.5-62.3-13.8-89.1-15.4-89.1-15.4-8.9-15.1 2.6-39.6 23.2-46 20.6-6.4 96.5 0.8 116.2 3.8 9.5 1.5 10.8-10-0.5-21.3-12.1-12.2-42.8-22.4-65.9-29.2-33.4-9.9-80.8 4.5-80.8 4.5s-65.8 36.4-108.5 46c-42.7 9.7-38.8-26.9-38.8-26.9s79.8-51.9 104.6-65.2c24.9-13.3 63-48.6 96.9-46 33.9 2.6 155.4 34.2 182.1 30.7 11.9-1.5 30.4-6.4 47.8-10.5l1.5-0.3c1.4-0.5 2.9-0.9 4.4-0.9 5.2 0 9.6 2.8 12.2 6.9 0.6 1.1 1.2 2.4 1.8 3.7 12.6 26.6 25.4 79.4 31.5 106.5 2.1 8.9-3.4 18-12.3 20.3z"  horiz-adv-x="1024" />

    
    <glyph glyph-name="scan" unicode="&#59087;" d="M100.6 608.3c20.6 0 37.3 16.7 37.3 37.3V757.5h111.9c20.6 0 37.3 16.7 37.3 37.3s-16.7 37.3-37.3 37.3H100.6c-20.6 0-37.3-16.7-37.3-37.3v-149.2c0-20.6 16.7-37.3 37.3-37.3zM921.5 832.1H772.2c-20.6 0-37.3-16.7-37.3-37.3s16.7-37.3 37.3-37.3h111.9v-111.9c0-20.6 16.7-37.3 37.3-37.3 20.6 0 37.3 16.7 37.3 37.3V794.8c0.1 20.6-16.6 37.3-37.2 37.3z m0-671.6c-20.6 0-37.3-16.7-37.3-37.3v-111.9h-112c-20.6 0-37.3-16.7-37.3-37.3s16.7-37.3 37.3-37.3h149.2c20.6 0 37.3 16.7 37.3 37.3V123.2c0.1 20.6-16.6 37.3-37.2 37.3zM249.9 11.3H138V123.2c0 20.6-16.7 37.3-37.3 37.3-20.6 0-37.3-16.7-37.3-37.3V-26c0-20.6 16.7-37.3 37.3-37.3h149.2c20.6 0 37.3 16.7 37.3 37.3s-16.7 37.3-37.3 37.3z m690.2 391.8H82c-10.3 0-18.7-8.4-18.7-18.7s8.4-18.7 18.7-18.7h858.2c10.3 0 18.7 8.4 18.7 18.7s-8.5 18.7-18.8 18.7z"  horiz-adv-x="1024" />

    
    <glyph glyph-name="hand" unicode="&#59088;" d="M888.5 348.9c-1.1 95.3-1.4 99.1-7.6 115-7.9 20.8-15.8 32.8-28.8 45.7-20.6 20-53.5 28.2-81.5 20.5l-13.9-3.6-3.3 8.8c-5.4 15.1-26.1 35.6-45.1 45.2-14.4 7.1-20.6 8.5-37.2 8.8-11.7 0-24.7-1.9-32-4.4-11.4-4.1-12.2-4.1-14.7 0.3-1.4 2.5-7.9 10.4-14.4 17.3-20.9 22.4-54.6 32.6-86.9 26.3l-11.4-2.5-0.8 68.2c-0.8 66.8-0.8 68.2-7.9 83.2-14.9 32-44.3 51.7-79.6 53.7-13.8 0.8-23.1-0.6-33.4-4.1-26.9-9.6-43.7-25.5-55.9-52-6-12.9-6-14.2-7.3-219.3l-1.4-206.7-19.8 35c-11.1 19.2-24.4 39.2-29.9 44.6-20.6 21.1-54.9 29.8-83.1 21.6-28.5-8.5-45.1-23.8-54.6-50.9-5.4-14.8-6-50.9-1.4-68.4 13.3-51.5 72.5-188.1 111.1-256 36.4-64.3 78.7-120.5 96.7-129.2 20.4-9.9 44 7.4 41 30.1-0.8 7.7-5.2 14.8-15.8 27.4-52.4 60.5-107.8 164.5-161.3 303-9.8 24.9-12.5 36.1-13.6 53.7-1.4 21.6-1.4 22.2 6 27.9 9.2 7.4 20.4 7.7 29 0.6 3.8-3 26.9-40.2 51.3-82.7 24.2-42.7 46.7-81.3 49.7-86.2 10.9-16.7 31.2-19.7 45.6-6.6l9 7.9 1.4 265.3c1.4 288.8 0.5 271.6 17.1 281.4 11.4 6.8 27.7 4.1 38.3-6.6l8.4-8.5 1.4-187c1.6-209.7 0.3-198.5 21.5-204.8 8.7-2.5 12-2.5 20.4 1.6 17.4 8.5 17.9 10.7 17.9 101.3 0 86.8 0.5 91.7 14.1 101 7.6 5.5 24.4 5.5 34.8 0.3 15.7-8.2 16.3-11.8 16.3-107.3 0-63.8 1.1-89 3.5-93.9 1.9-3.8 7.9-9 13.9-12 13.9-6.8 29.3-2.7 36.9 10.1 4.9 7.9 5.4 14.2 5.4 75.3 0 73.1 1.1 78.8 16.3 86.8 16.3 8.5 37.2 2.7 44.8-12.3 3.3-6.6 4.1-20.3 4.1-73.9 0-72.5 1.1-78.3 16.3-86.2 10-5.2 17.1-5.2 27.2 0 13.8 7.1 16.3 15.9 16.3 58.3 0 35 0.5 38.9 6.2 47.4 3.3 4.9 10.6 10.7 16 12.9 14.4 5.7 28.2-1.6 37.2-19.4 6.5-12.9 6.5-14.8 7.9-95.8 2.4-150.6-8.7-265.8-32.3-336.7-4.4-13.4-7.9-27.9-7.9-32.6 0-11.2 15.2-26.8 26.6-26.8 20.6 0 29.1 9.3 39.9 45.4 25.2 82.6 35.2 185.2 33.3 344.5z"  horiz-adv-x="1024" />

    
    <glyph glyph-name="scanning" unicode="&#59089;" d="M308.6 517.1c0 38.5 11.3 75.8 32.6 108 9 13.5 5 31.6-8.8 40.4-13.9 8.8-32.4 4.9-41.4-8.6-27.6-41.6-42.2-90-42.2-139.8 0-51.5 15.6-101.3 45-143.8 5.8-8.4 15.2-12.9 24.8-12.9 6 0 11.8 1.7 16.7 5 13.7 9 17.3 27.2 8 40.6-22.6 32.9-34.7 71.3-34.7 111.1z m-128.6 0c0 62.8 18.4 123.8 53.2 176.2 9 13.5 5 31.6-8.8 40.4-13.9 8.8-32.4 4.9-41.4-8.6-41.1-62-62.8-133.9-62.8-208 0-76.7 23.1-150.8 66.9-214.1 5.8-8.4 15.2-12.9 24.8-12.9 6 0 11.8 1.7 16.7 5 13.7 9 17.3 27.2 8 40.6-37 53.7-56.6 116.4-56.6 181.4z m508.8 151.7c-13.7-9-17.3-27.2-8-40.6 22.7-32.9 34.7-71.3 34.7-111.1 0-39.4-11.7-77.4-33.9-110-9.2-13.4-5.4-31.6 8.3-40.5 4.9-3.2 10.7-4.9 16.6-4.9 9.7 0 19.2 4.6 24.9 13 28.8 42.2 44 91.5 44 142.4 0 51.5-15.6 101.3-45 143.9-9.3 13.4-27.9 16.9-41.6 7.8zM837 731.3c-9.2 13.4-27.8 16.9-41.5 7.9-13.7-9-17.3-27.2-8-40.6 37.1-53.6 56.7-116.4 56.7-181.4 0-64.2-19.2-126.3-55.4-179.6-9.2-13.4-5.4-31.6 8.3-40.5 4.9-3.2 10.7-4.9 16.5-4.9 9.7 0 19.2 4.6 24.9 13 42.8 62.9 65.4 136.2 65.4 212 0 76.7-23.1 150.7-66.9 214.1zM512.1 611.7c-46.8 0-84.7-37.1-84.7-82.8 0-35.4 22.5-65.7 54.9-77.5v-402.9c0-16.5 13.4-29.9 29.9-29.9s29.9 13.4 29.9 29.9V451.3c32.3 11.8 54.9 42.1 54.9 77.5-0.2 45.8-38.1 82.9-84.9 82.9z"  horiz-adv-x="1024" />

    
    <glyph glyph-name="barcode" unicode="&#59090;" d="M89.4 444.6h369.3c7.6 0 7.6 0 7.6 7.6V637 821.8c0 7.6 0 7.6-7.6 7.6H89.3c-7.6 0-7.6 0-7.6-7.6v-369.7c0.1-7.5 0.1-7.5 7.7-7.5z m53.2 192.5c0 41.1 0.1 82.3-0.1 123.4 0 5.7 1.5 7.2 7.2 7.1 82.6-0.2 165.2-0.2 247.8 0 5.7 0 7.2-1.5 7.1-7.1-0.2-82.7-0.2-165.4 0-248 0-5.7-1.5-7.2-7.1-7.1-82.6 0.2-165.2 0.2-247.8 0-5.6 0-7.2 1.5-7.1 7.2 0.1 41.4 0 82.9 0 124.5z m378.1-316.4c-26.1-0.2-52.2-0.1-78.3-0.1-7.6 0-7.6 0-7.6-7.7v-184.2c0-61.8 0.1-123.6-0.1-185.4 0-5.2 1.4-6.6 6.5-6.6 26.5 0.3 53 0.3 79.5 0 5.2 0 6.5 1.5 6.5 6.6-0.1 123.6-0.1 247.2 0 370.8 0.1 5.2-1.3 6.6-6.5 6.6zM780 597.8c-4.9 0-6.3 1.4-6.2 6.3 0.2 23.6 0.1 47.3 0 71h-77c0-48.6-0.1-97.2 0.1-145.8 0-5.8-1.3-7.7-7.4-7.6-23.3 0.3-46.6 0.1-69.8 0.1 0-23.7 0-47.5-0.2-71.2 0-4.5 1.2-6 5.9-6 47.5 0.1 95.1 0.1 142.6 0 4.6 0 6 1.3 6 5.9-0.2 21.8 0 43.7-0.2 65.5 0 4.6 1.4 6 6 6 23.7-0.2 47.5 0 71.2 0v75.9c-23.7-0.1-47.4 0.1-71-0.1z m71-75.9h-0.1v-0.1l0.1 0.1zM696.6 675h0.1v0.1l-0.1-0.1z m154.3-77.1v-0.2h0.1l-0.1 0.2 0.1-0.1v0.1h-0.1z m101.8-200.1c-1.1-0.2-2.3 0-3.5 0H76.1c-1.5 0-3.1-0.1-4.7 0-3.5 0.3-4.9-1.1-4.7-4.7 0.2-5.6 0-11.3 0-17 0.1-9.8-1-8.8 8.8-8.8h873.8c1.5 0 3.1 0.2 4.7 0 3.5-0.3 4.9 1.1 4.8 4.7-0.2 6.6-0.3 13.3 0 19.9 0.1 4.7-1.6 6.6-6.1 5.9zM696.6 675l0.1 0.1h-0.1v-0.1z m0 71.2c0 4.8 1.4 6.3 6.3 6.2 23.6-0.2 47.3-0.1 70.9 0 0 23.8-0.1 47.5 0.1 71.3 0 4.5-1.2 6-5.9 6-73.2-0.1-146.5-0.1-219.8 0-4.5 0-6-1.3-6-5.9 0.2-21.8 0.2-43.7 0-65.5 0-4.6 1.4-6 5.9-6 21.8 0.2 43.6 0 65.5 0.2 4.7 0 5.9-1.5 5.9-6-0.2-23.8 0-47.5 0-71.2h77c0.1 23.5 0.3 47.2 0.1 70.9z m-77-71.1h-0.1l0.1-0.1v0.1z m154.3 77.1v0.1h-0.1v-0.1h0.1z m0-77.1h-0.1v-0.1h0.1v0.1z m70.9 0.1c4.8 0 6.3-1.4 6.3-6.3-0.2-23.7-0.1-47.3 0-71 23.3 0 46.7 0 70-0.2 4.5 0 6 1.2 6 5.9-0.2 73.3-0.2 146.6 0 220 0 4.5-1.3 6-5.9 6-21.4-0.2-42.9-0.2-64.3 0-4.6 0-6-1.4-5.9-6 0.2-21.8 0-43.7 0.2-65.5 0-4.7-1.5-6-6-5.9-23.7 0.2-47.4 0-71.2 0v-77.1c23.6 0 47.2-0.1 70.8 0.1zM735.9 320.7c-15.6-0.3-31.2-0.1-46.8-0.1-7.6 0-7.6 0-7.6-7.6v-183.7c0-61.9 0.1-124-0.1-186 0-5.1 1.3-6.7 6.5-6.6 15.5 0.3 31.1 0.1 46.7 0.1 7.6 0 7.6 0 7.6 7.7V188.9c0 41.7-0.1 83.4 0.1 125.2 0.1 5.1-1.2 6.7-6.4 6.6z m-522.6 0c-15.4-0.3-30.8-0.1-46.2-0.1-8.1 0-8.1 0-8.1-8.2V65c0-40.5 0.1-81.1-0.1-121.6 0-5.1 1.4-6.7 6.6-6.6 15.5 0.3 31.1 0.1 46.7 0.1 7.6 0 7.6 0 7.6 7.6V128.7c0 61.8-0.1 123.6 0.1 185.4 0 5.1-1.4 6.7-6.6 6.6z m431.5 0c-11.1-0.4-22.2-0.4-33.3 0-5.6 0.2-7.3-1.3-7.3-7.1 0.3-33.5 0.2-67 0.2-100.6 0-89.7 0-179.3-0.1-269 0-4.7 0.3-7.6 6.4-7.3 10.9 0.6 21.8 0.1 32.7 0.2 7.7 0 7.7 0 7.7 7.5V128.6c0 61.8 0 123.6 0.1 185.4 0 5-1.1 6.9-6.4 6.7z m-25.3 354.4v-0.1h0.1l-0.1 0.1z m0-153.2v-0.1h0.1v0.1h-0.1z m-71.1-0.2c23.7 0.2 47.4 0.1 71 0.1V675c-23.7 0-47.4 0-71 0.1-4.3 0-6.2-0.9-6.1-5.8 0.2-47.3 0.2-94.6 0-141.9 0-4.8 1.8-5.7 6.1-5.7z m359.3-201.1c-6.1-0.1-12.1 0-18.1 0-8.2 0-8.2 0-8.2-8.2v-367.3c0-1.1 0.1-2.3 0-3.5-0.3-3.5 1.1-4.9 4.7-4.8 6 0.2 12.1 0 18.1 0 7.6 0 7.6 0 7.6 7.6V128.7 311.1c0 1.8-0.1 3.5 0 5.3 0.2 3-1.1 4.3-4.1 4.2z m-88.3-4.1c0.2 3-1 4.2-4.1 4.1-6.1-0.1-12.1 0-18.1 0-8.2 0-8.2 0-8.2-8.2v-367.3c0-1.2 0.1-2.4 0-3.5-0.3-3.5 1.1-4.9 4.7-4.8 6 0.2 12.1 0 18.1 0 7.6 0 7.6 0 7.6 7.6V128.1 311.2c0 1.7-0.1 3.5 0 5.3z m-419.1 4.1c-6.2-0.1-12.5 0-18.7 0-7.5 0-7.6 0-7.6-7.7v-366.7c0-1.7 0.1-3.5 0-5.3-0.2-3 1.1-4.1 4.1-4.1 6.1 0.1 12.1 0 18.1 0 8.1 0 8.1 0 8.1 8.2V312.3c0 1.4-0.1 2.7 0 4.1 0.4 3.1-1 4.2-4 4.2z m-107.5 0c-6.2-0.1-12.4 0-18.7 0-7.5 0-7.6 0-7.6-7.7v-366.7c0-1.7 0.1-3.5 0-5.2-0.2-3 1.1-4.2 4.1-4.1 6 0.1 12.1 0 18.1 0 8.1 0 8.1 0 8.1 8.3V312.5c0 1.4-0.1 2.7 0 4.1 0.3 2.9-1 4-4 4z m-171.9 0.1c-5.2-0.4-10.5-0.1-15.8-0.1-8.1 0-8.1 0-8.1-8.3V-55c0-1.2 0.1-2.4 0-3.5-0.4-3.6 1.3-4.8 4.8-4.7 6 0.2 12.1 0 18.1 0 7.5 0 7.5 0 7.5 7.7V128.1 224c0 30-0.1 60.1 0.1 90.1 0.1 5.4-1.6 7-6.6 6.6z m730 201.1h0.2v0.1l-0.2-0.1z m70 0.1c-23.3-0.3-46.6-0.1-69.9-0.1 0-23.7 0.1-47.4-0.2-71.1 0-5 1.6-6.2 6.4-6.2 21.2 0.2 42.4 0.3 63.6 0 4.9 0 6.3 1.4 6.2 6.3-0.2 21.6-0.2 43.2 0 64.8 0.1 4.7-1.1 6.4-6.1 6.3z m-695.4 60.6c31.9 0.2 63.9 0.2 95.8 0 4.4 0 6.1 1.1 6.1 5.9-0.3 16-0.1 32-0.1 48s-0.1 32 0.1 48c0 4.4-1.1 6.1-5.8 6-31.9-0.2-63.9-0.2-95.8 0-4.4 0-6.1-1.1-6-5.8 0.2-32 0.2-64 0-95.9-0.1-4.6 1-6.2 5.7-6.2z"  horiz-adv-x="1024" />

    
    <glyph glyph-name="picture" unicode="&#59091;" d="M680.6 305.2L569.7 195.5c-0.1-0.1-0.3-0.2-0.4-0.3-8.7-8.7-8.7-22.9 0-31.7 8.7-8.7 22.9-8.7 31.7 0 0.6 0.6 0.8 1.3 1.3 1.9l66.9 66.9 31.6 31.7s21.7-20.4 22.2-20.1c8.3-3.9 18.5-2.7 25.3 4.2 8.7 8.7 8.7 22.9 0 31.7l-15.8 15.8s-3 3.3-4.6 5c-13 12.8-32.8 14.4-47.3 4.6z m89.2-110.1l10.1-10.2c8.7-8.7 22.9-8.7 31.7 0 8.7 8.7 8.7 22.9 0 31.7l-10.2 10.2-0.1-0.1c-0.1 0.1-0.2 0.3-0.3 0.4-8.7 8.7-22.9 8.7-31.7 0-8.7-8.7-8.7-22.9 0-31.7 0.2-0.1 0.3-0.2 0.5-0.3z m69.9 637H182.9c-66 0-119.4-53.4-119.4-119.4v-656.8c0-65.9 53.5-119.4 119.4-119.4h656.8c65.9 0 119.4 53.5 119.4 119.4V712.6c0 66.1-53.5 119.5-119.4 119.5z m59.7-776.2c0-33-26.7-59.7-59.7-59.7H182.9c-33 0-59.7 26.7-59.7 59.7v70.8l158.8 152c5.4 4.5 8.8 4.8 14.2 0.1l122-99.8c10.5-7.4 22-16.6 31-16.6s19.7 3.1 31.3 14.6l221.7 221.7c1.2-0.1 2.3-0.4 3.5-0.4 0.4 0 0.8 0.1 1.2 0.1l192.5-206.7v-135.8z m0 223.6L739.9 450.6c-5.7 13.2-18.9 22.5-34.3 22.5-13.8 0-25.6-7.5-32.1-18.6l-218-218.2c-6.3-4.5-6.3-4.5-13.2 0L318.5 337.7c-6.8 9.1-17.6 15-29.8 15-6.2 0-12.1-1.7-17.2-4.4l-5.8-3.7c-1.9-1.4-3.5-3.2-5.2-4.9L123.2 208.1V712.6c0 33 26.7 59.7 59.7 59.7h656.8c33 0 59.7-26.7 59.7-59.7v-433.1zM332.1 682.8c-49.5 0-89.6-40.1-89.6-89.6s40.1-89.6 89.6-89.6 89.6 40.1 89.6 89.6-40.1 89.6-89.6 89.6z m0-119.4c-16.5 0-29.9 13.4-29.9 29.9s13.4 29.9 29.9 29.9 29.9-13.4 29.9-29.9-13.4-29.9-29.9-29.9z"  horiz-adv-x="1024" />

    
    <glyph glyph-name="zcgh" unicode="&#59092;" d="M741.5 329.8c-54.9 14.1-100.8 41.5-121.6 50.7-26.9 11.9-42.3 2.3-104.5-11.5s-89-15.3-89-15.3c-8.9-15.1 2.6-39.6 23.2-46 20.6-6.4 96.4 0.8 116.1 3.8 9.5 1.5 10.7-10-0.5-21.3-12.1-12.2-42.8-22.3-65.9-29.2-33.4-9.9-80.7 4.5-80.7 4.5s-65.7 36.3-108.4 46c-42.7 9.7-38.7-26.8-38.7-26.8s79.7-51.9 104.5-65.1c24.8-13.3 62.9-48.5 96.8-46 33.8 2.6 155.2 34.1 181.9 30.7 11.9-1.5 30.3-6.4 47.8-10.5l1.5-0.3c1.4-0.5 2.9-0.9 4.4-0.9 5.2 0 9.6 2.8 12.2 6.9 0.6 1.1 1.2 2.4 1.8 3.7 12.6 26.5 25.4 79.3 31.4 106.3 2.1 8.9-3.3 18-12.3 20.3zM294.7 483.3h32v-95.9c0-12.8 11.8-23.3 26.3-23.3h53.3c14.4 0 26.3 10.5 26.3 23.3v95.4 0.5h31.8c18.1 0 27.1 16.3 14.2 25.6l-84.8 83.4c-7.9 5.8-20.7 5.8-28.6 0l-84.8-83.4c-12.8-9.3-3.8-25.6 14.3-25.6z"  horiz-adv-x="1024" />

    
    <glyph glyph-name="zcly" unicode="&#59093;" d="M742.3 329.1c-54.9 14.1-101 41.6-121.8 50.8-26.9 11.9-42.4 2.3-104.7-11.5-62.3-13.8-89.1-15.4-89.1-15.4-8.9-15.1 2.6-39.6 23.3-46.1 20.6-6.4 96.5 0.8 116.3 3.8 9.5 1.5 10.8-10-0.5-21.3-12.1-12.2-42.8-22.4-65.9-29.2-33.4-9.9-80.8 4.5-80.8 4.5s-65.8 36.4-108.5 46.1c-42.7 9.7-38.8-26.9-38.8-26.9s79.8-51.9 104.6-65.2c24.9-13.3 63-48.6 96.9-46.1 33.9 2.6 155.4 34.2 182.2 30.7 11.9-1.5 30.4-6.4 47.8-10.5l1.5-0.3c1.4-0.5 2.9-0.9 4.4-0.9 5.2 0 9.6 2.8 12.2 6.9 0.6 1.1 1.2 2.4 1.8 3.7 12.6 26.6 25.4 79.4 31.5 106.5 1.9 9-3.5 18.1-12.4 20.4zM280.4 453l85-83.5c7.9-5.8 20.8-5.8 28.7 0l85 83.5c12.9 9.3 3.9 25.6-14.2 25.6h-31.8v96c0 12.8-11.8 23.3-26.3 23.3h-53.4c-14.5 0-26.3-10.5-26.3-23.3v-96H295c-18.3 0-27.3-16.3-14.6-25.6z"  horiz-adv-x="1024" />

    
    <glyph glyph-name="area-scan" unicode="&#58975;" d="M670.9 492.8c21.9-31.7 33.7-69.3 33.7-108.7 0-51.3-20-99.5-56.2-135.7s-84.4-56.2-135.7-56.2-99.5 20-135.7 56.2c-36.2 36.2-56.2 84.4-56.2 135.7s20 99.5 56.2 135.7c32.5 32.5 74.6 51.9 119.9 55.6l-5.1 63.8c-131.6-10.6-235-120.8-235-255.1 0-141.3 114.6-255.9 255.9-255.9s255.9 114.6 255.9 255.9c0 53.8-16.6 103.6-44.9 144.8l-52.8-36.1zM512.1 830.7v-414.9c-17.7 0-32-14.3-32-32s14.3-32 32-32 32 14.3 32 32c0 7.7-2.7 14.7-7.2 20.2l322.4 261.2 0.4 0.4c0.1 0 0.1 0.1 0.2 0.1C778 767 652.8 831.8 512.4 831.8h-0.3v-1.1zM881.4 637l-0.4-0.4c-0.1 0-0.1-0.1-0.2-0.1l-52.1-35.8c14.3-21 26.6-43.3 36.5-66.9 20-47.2 30.1-97.3 30.1-149s-10.1-101.9-30.1-149c-19.3-45.6-46.9-86.6-82.1-121.7-35.2-35.2-76.2-62.8-121.7-82.1-47.2-20-97.3-30.1-149-30.1S410.5 12 363.4 32c-45.6 19.3-86.6 46.9-121.7 82.1-35.2 35.2-62.8 76.2-82.1 121.7-20 47.2-30.1 97.3-30.1 149s10.1 101.9 30.1 149c19.3 45.6 46.9 86.6 82.1 121.7 35.2 35.2 76.2 62.8 121.7 82.1 37.8 16 77.5 25.7 118.4 28.9l-5 62.7-0.1 1.1C246.5 812.2 65.4 619.7 65.4 384.8c0-246.8 200.1-447 447-447s447 200.1 447 447c-0.1 93.6-28.8 180.4-78 252.2z"  horiz-adv-x="1024" />

    
    <glyph glyph-name="triangle" unicode="&#59095;" d="M128.2 673.7l383.1 1.3 385.1-3.8c23.4 0 44-1.4 50.8-7.2 16.5-14.1 14.7-42.8 0-59.1L539.6 107.7c-7.8-8.7-18.1-12.4-28.3-11.8-10.2-0.6-20.5 3.2-28.3 11.8L75.3 604.8c-14.7 16.3-16.3 44.8 0 59.1 7.6 6.7 20.7 9.8 52.9 9.8z"  horiz-adv-x="1024" />

    
    <glyph glyph-name="fliter" unicode="&#59094;" d="M704.2 646c22.2 0.5 29.8 4.3 29.8-13.8v-22.1c0-12-4.1-19.6-11.6-29L578.7 414.5c-1.7-2.2-2.7-8.8-2.7-11.6v-194.4c0.1-27 0.1-34.2-15.2-44.2l-62.5-32.2c-5.1-2.5-16.7-3.9-22.3-3.9-16.3 0-11.5 16.3-11.5 36.5V402.9c0 2.8-0.9 9.4-2.7 11.6L315.3 581.1c-7.5 9.4-11.6 17-11.6 28.9v22.1c0 18 8 14.2 30.8 13.8l346.7 0.1h23z"  horiz-adv-x="1024" />

    
    <glyph glyph-name="back" unicode="&#59096;" d="M601.8 518.6H372.2l34.7 33.9c8.7 8.7 8.7 22.9 0 31.7-8.7 8.7-22.9 8.7-31.7 0l-92.9-90.8 6.1-6.1-0.1-0.1 94.2-94.2c8.7-8.7 22.7-8.7 31.4 0s8.7 22.7 0 31.4l-49.5 49.5h237.3c61.8 0 111.9-50.1 111.9-111.9s-50.1-111.9-111.9-111.9h-179c-12.4 0-22.4-10-22.4-22.4s10-22.4 22.4-22.4h179.1c86.6 0 156.7 70.2 156.7 156.7s-70.1 156.6-156.7 156.6z"  horiz-adv-x="1024" />

    
    <glyph glyph-name="broken" unicode="&#59097;" d="M379.7 460l-34.8-3 22.8-260.8 34.8 3L379.7 460zM540 575.9c3.4-3.4 8.9-3.4 12.3 0l74.1 74.1c3.4 3.4 3.4 8.9 0 12.3l-12.3 12.3c-3.4 3.4-8.9 3.4-12.3 0l-74.1-74.1c-3.4-3.4-3.4-8.9 0-12.3l12.3-12.3zM299.7 172.6l3-34.8 34.8 3-3 34.8-34.8-3z m69.5 6.1l3-34.8 34.8 3-3 34.8-34.8-3z m-139.1-12.2l3-34.8 34.8 3-3 34.8-34.8-3z m10.4 281.3l-34.8-3L228.5 184l34.8 3-22.8 260.8z m-104.3-9.1l27.4-313 34.8 3-27.4 313-34.8-3zM409.7 541c3.4-3.4 8.9-3.4 12.3 0l12.3 12.3c3.4 3.4 3.4 8.9 0 12.3l-74.1 74.1c-3.4 3.4-8.9 3.4-12.3 0l-12.3-12.3c-3.4-3.4-3.4-8.9 0-12.3l74.1-74.1z m-99.6-87.1l-34.8-3L298.1 190l34.8 3-22.8 260.9z m289.7-302.5l34.6-4.9 4.9 34.6-34.6 4.9-4.9-34.6z m182 291.7l-36.5-259.3 34.6-4.9 36.5 259.3-34.6 4.9zM738 131.9l34.6-4.9 4.9 34.6-34.6 4.9-4.9-34.6z m-284 54.2l27.2 89.9-40.1 82.5 28.5 74.3-78.6 98.3-295.7-25.9c-19.2-1.7-33.4-18.6-31.7-37.8l33.5-382.6c1.7-19.2 18.6-33.4 37.8-31.7L500.1 85l-3 34.8-43.1 66.3z m-304.8-96.7c-9.6-0.8-18.1 6.3-18.9 15.9L99.9 453c-0.8 9.6 6.3 18.1 15.9 18.9l261.5 22.9 57.6-65.1-28.7-72.6 42.5-84.1-24-90.2 37.5-66.1-313-27.3z m780.6 403.4l-397.6 55.9 54.6-113.4-44.5-66 24.8-90-64-79 35.1-110.7 328.4-46.2c19.1-2.7 36.7 10.6 39.4 29.7l53.5 380.3c2.7 19-10.6 36.7-29.7 39.4z m-7.3-51.9l-48.6-345.7c-1.3-9.5-10.2-16.2-19.7-14.9l-293.9 41.3-28.2 73.8 67.2 79.2-22.3 91.5 44.3 64.3-42.8 76.5 329.1-46.3c9.6-1.3 16.3-10.1 14.9-19.7zM807.2 122.2l34.6-4.9 43.8 311.1-34.6 4.9-43.8-311.1zM643.5 462.6L607 203.3l34.6-4.9 36.5 259.3-34.6 4.9z m69.2-9.8l-36.5-259.3 34.6-4.9L747.2 448l-34.5 4.8z m-43.8-311.1l34.6-4.9 4.9 34.6-34.6 4.9-4.9-34.6z m-200 453.8c3.1-3.7 8.6-4.2 12.3-1.1l13.4 11.2c3.7 3.1 4.2 8.6 1.1 12.3l-89.8 107c-3.1 3.7-8.6 4.2-12.3 1.1l-13.4-11.2c-3.7-3.1-4.2-8.6-1.1-12.3l89.8-107z"  horiz-adv-x="1024" />

    
    <glyph glyph-name="list" unicode="&#59098;" d="M250 757.5h-74.7c-20.6 0-37.3-16.7-37.3-37.3v-74.7c0-20.6 16.7-37.3 37.3-37.3H250c20.6 0 37.3 16.7 37.3 37.3v74.7c0 20.6-16.7 37.3-37.3 37.3z m0-298.7h-74.7c-20.6 0-37.3-16.7-37.3-37.3v-74.7c0-20.6 16.7-37.3 37.3-37.3H250c20.6 0 37.3 16.7 37.3 37.3v74.7c0 20.6-16.7 37.3-37.3 37.3z m0-298.7h-74.7c-20.6 0-37.3-16.7-37.3-37.3v-74.7c0-20.6 16.7-37.3 37.3-37.3H250c20.6 0 37.3 16.7 37.3 37.3v74.7c0 20.6-16.7 37.3-37.3 37.3z m149.3 485.4h448c20.6 0 37.3 16.7 37.3 37.3s-16.7 37.3-37.3 37.3h-448c-20.6 0-37.3-16.7-37.3-37.3s16.7-37.3 37.3-37.3z m448-224h-448c-20.6 0-37.3-16.7-37.3-37.3s16.7-37.3 37.3-37.3h448c20.6 0 37.3 16.7 37.3 37.3s-16.6 37.3-37.3 37.3z m0-298.7h-448c-20.6 0-37.3-16.7-37.3-37.3s16.7-37.3 37.3-37.3h448c20.6 0 37.3 16.7 37.3 37.3s-16.6 37.3-37.3 37.3z"  horiz-adv-x="1024" />

    
    <glyph glyph-name="notice" unicode="&#59099;" d="M737.1 620c-8.1 8.2-21.3 8.2-29.5 0-8.1-8.2-8.1-21.5 0-29.6C762.7 535 793 461.3 793 382.9s-30.4-152.1-85.4-207.5c-8.1-8.2-8.1-21.5 0-29.6 4.1-4.1 9.3-6.2 14.7-6.2 5.4 0 10.7 2 14.8 6.2 63 63.4 97.6 147.6 97.6 237.1 0 89.6-34.6 173.8-97.6 237.1zM573.8 771.3c-10.8 0-21.6-3-31.7-8.9L279.9 598.3H168.7c-57.4 0-104.2-47-104.2-104.8V263c0-57.8 46.7-104.8 104.2-104.8h126.9l247.2-155.4c9.5-5.5 20.3-8.5 31.1-8.5 16 0 31.7 6.4 43.3 17.6 12.4 11.9 19.1 28 19.1 45.3V708.4c0.1 34.7-27.9 62.9-62.5 62.9z m248.3-59c-8.1 8.1-21.4 8-29.5-0.3-8-8.3-7.9-21.6 0.3-29.6C873.5 602.9 918 496.6 918 382.9c0-110.4-42.3-214.5-119-293.3-8-8.3-7.9-21.6 0.3-29.6 4.1-4 9.3-6 14.6-6 5.5 0 10.8 2.1 15 6.3 84.4 86.7 130.9 201.3 130.9 322.6 0 125-48.9 241.9-137.7 329.4z"  horiz-adv-x="1024" />

    
    <glyph glyph-name="refresh-circle" unicode="&#59229;" d="M512 827.73333333C267.94666667 827.73333333 68.26666667 628.05333333 68.26666667 384s199.68-443.73333333 443.73333333-443.73333333 443.73333333 199.68 443.73333333 443.73333333S756.05333333 827.73333333 512 827.73333333z m238.93333333-413.86666666h-209.06666666l95.57333333 95.57333333C606.08 542.29333333 561.28 563.2 512 563.2c-98.56 0-179.2-80.64-179.2-179.2s80.64-179.2 179.2-179.2c74.45333333 0 139.30666667 45.22666667 165.54666667 110.93333333h63.57333333c-29.65333333-98.77333333-120.10666667-170.66666667-229.12-170.66666666-132.90666667 0-238.93333333 107.52-238.93333333 238.93333333s107.52 238.93333333 238.93333333 238.93333333c65.70666667 0 125.44-26.88 168.74666667-70.18666666L750.93333333 622.93333333v-209.06666666z"  horiz-adv-x="1024" />

    
    <glyph glyph-name="remind" unicode="&#59100;" d="M919.5 98.8c-8.8 57.9-110.9 70-112.7 109.7-1.8 39.7 8.6 246.6 8.6 246.6 5.8 162.4-105.7 251.2-220.3 291.8 0.1 0.4 0 1.2-0.1 1.9 0 0.8 0.1 1.6 0.1 2.5 0 45.9-37.2 83.2-83.2 83.2s-83.2-37.2-83.2-83.2c0-0.8 0.1-1.6 0.1-2.5-0.1-0.8-0.3-1.5-0.1-1.9-114.4-40.7-226-129.5-220.2-291.9 0 0 10.4-206.9 8.6-246.6-1.8-39.7-103.8-51.8-112.7-109.7-5.8-22.3 20-44.7 44.7-44.7h261.7c-0.6-4.6-1-9.2-1-13.9 0-56.4 45.7-102.2 102.2-102.3 56.4 0.1 102.2 45.9 102.2 102.3 0 4.7-0.4 9.3-1 13.9h261.7c24.6 0.2 50.4 22.5 44.6 44.8zM918.5 98.8c-8.8 57.9-110.9 70-112.7 109.7-1.8 39.7 8.6 246.6 8.6 246.6 5.8 162.4-105.7 251.2-220.3 291.8 0.1 0.4 0 1.2-0.1 1.9 0 0.8 0.1 1.6 0.1 2.5 0 45.9-37.2 83.2-83.2 83.2s-83.2-37.2-83.2-83.2c0-0.8 0.1-1.6 0.1-2.5-0.1-0.8-0.3-1.5-0.1-1.9-114.4-40.7-226-129.5-220.2-291.9 0 0 10.4-206.9 8.6-246.6-1.8-39.7-103.8-51.8-112.7-109.7-5.8-22.3 20-44.7 44.7-44.7h261.7c-0.6-4.6-1-9.2-1-13.9 0-56.4 45.7-102.2 102.2-102.3 56.4 0.1 102.2 45.9 102.2 102.3 0 4.7-0.4 9.3-1 13.9h261.7c24.6 0.2 50.4 22.5 44.6 44.8z"  horiz-adv-x="1024" />

    
    <glyph glyph-name="menu_user_sel1" unicode="&#59101;" d="M512.4 405.6c117.8 0 213.3 95.5 213.3 213.3S630.2 832.1 512.4 832.1s-213.3-95.5-213.3-213.3 95.5-213.2 213.3-213.2z m0-42.6c-176.7 0-319.9-116.8-319.9-234.6s46.3-192 319.9-192 319.9 74.2 319.9 192S689.1 363 512.4 363z"  horiz-adv-x="1024" />

    
    <glyph glyph-name="menu_list_sel1" unicode="&#59102;" d="M654.9 832.1H328.8c-112.4 0-203.7-91.2-203.7-203.7v-489c0-112.4 91.2-203.7 203.7-203.7h366.8c112.4 0 203.7 91.2 203.7 203.7V587.9C872.8 614.7 654.9 832.1 654.9 832.1zM288.1 546.8h165.1c22.7 0 41.3-18.6 41.3-41.3-0.1-22.7-18.7-41.3-41.3-41.3H288.1c-22.7 0-41.3 18.6-41.3 41.3 0.1 22.8 18.6 41.3 41.3 41.3zM285.8 384H735c22.7 0 41.3-18.6 41.3-41.3-0.1-22.7-18.7-41.3-41.4-41.3H285.8c-22.7 0-41.3 18.6-41.3 41.3 0 22.7 18.6 41.3 41.3 41.3z m450.6-245.3H287.3c-22.7 0-41.3 18.6-41.3 41.3 0 22.7 18.6 41.3 41.3 41.3h449.2c22.7 0 41.3-18.6 41.3-41.3-0.2-22.8-18.7-41.3-41.4-41.3z m-39.5 408.6c-44.8 0-81.1 36.3-81.1 81.1V790.7l248.4-243.5H696.9z"  horiz-adv-x="1024" />

    
    <glyph glyph-name="menu_function_sel1" unicode="&#59103;" d="M366.7 797.5H151.4c-47.5 0-86.1-38.5-86.1-86.1v-215.2c0-47.6 38.5-86.1 86.1-86.1h215.2c47.6 0 86.1 38.5 86.1 86.1V711.4c0.1 47.6-38.4 86.1-86 86.1z m0-473.6H151.4c-47.5 0-86.1-38.5-86.1-86.1v-215.2c0-47.6 38.5-86.1 86.1-86.1h215.2c47.6 0 86.1 38.5 86.1 86.1V237.8c0.1 47.6-38.4 86.1-86 86.1z m473.7 0H625c-47.5 0-86.1-38.5-86.1-86.1v-215.2c0-47.6 38.5-86.1 86.1-86.1h215.2c47.5 0 86.1 38.5 86.1 86.1V237.8c0.1 47.6-38.4 86.1-85.9 86.1z m98.2 346.5L799.3 809.8c-30.7 30.7-80.7 30.7-111.6 0L548.2 670.4c-30.7-30.7-30.7-80.7 0-111.6l139.5-139.5c30.7-30.7 80.7-30.7 111.6 0l139.5 139.5c30.7 30.9 30.7 80.7-0.2 111.6z"  horiz-adv-x="1024" />

    
    <glyph glyph-name="menu_service_sel1" unicode="&#59104;" d="M750.7 586c53.6 0 97 43.5 97 97V828.6h-679V683c0-53.6 43.5-97 97-97h181.1l72.8-72.8c-20.8-0.3-38.9-12.4-47.2-31.7l-57.6-133.9c-0.4-0.8-1.1-1.4-2.1-1.5l-144.3-13.8c-21.1-2-38.2-15.9-44.8-36.2-6.5-20.3-0.7-41.7 15.1-55.8l108.7-96.6c0.7-0.6 1-1.5 0.8-2.5l-31.5-142.5c-4.6-20.8 3.1-41.5 20.3-54.1 9.3-6.8 19.9-10.1 30.6-10.1 9.2 0 18.3 2.5 26.6 7.5l124.7 74.2c0.8 0.4 1.8 0.4 2.5 0l124.7-74.3c18.2-10.8 40.1-9.9 57.3 2.7 17.2 12.5 24.9 33.2 20.3 54.1l-31.3 142.6c-0.3 1 0.1 1.8 0.8 2.5L802 240.4c15.9 14.1 21.7 35.5 15.2 55.8-6.6 20.3-23.7 34.1-44.8 36.2l-145 11.4c-0.3 1.4-0.7 2.7-1.3 3.9l-57.6 134c-8.3 19.3-26.3 31.4-47 31.7l72.8 72.8h156.4v-0.2z"  horiz-adv-x="1024" />

    
    <glyph glyph-name="UHF" unicode="&#59105;" d="M630.8 603.6s-17.4 19.7-43.6 7.7c-25.9-11.7-17-43.5-17-43.5s37.3-47.5 41-174.2v-1.8c-5.5-126-41-176.4-41-176.4s-8.9-31.4 17-43.5c26.2-12.1 43.6 8 43.6 8 55.1 107 51.4 201.2 50.7 213.6 0.7 12.5 4.4 111.1-50.7 210.1z m130.5 59.2s-17.4 20.1-43.6 8c-25.9-12.1-17-43.5-17-43.5s54.7-105.9 53.2-233.7v-1.8c1.5-127.8-53.2-231.9-53.2-231.9s-8.9-31.4 17-43.5c26.3-12.1 43.6 8 43.6 8 67.3 131.8 62.9 256.7 62.9 269.1-0.1 12.5 4.4 137.4-62.9 269.3z m-265-138.7c0 21.3-17.3 38.6-38.6 38.6s-38.6-17.3-38.6-38.6v-0.8h-1v-175.7c0-25.1-1.1-43.1-3.4-54-2.3-10.8-9.1-20-20.4-27.4C383 258.7 366.2 255 344 255c-21.9 0-39.1 3.9-51.8 11.8-12.6 7.9-20.6 18.3-24 31.3-1.9 8.1-2.9 25.8-2.9 53.1V518.9c0.2 1.6 0.3 3.3 0.3 5 0 21.6-17.5 39.1-39.1 39.1s-39.1-17.5-39.1-39.1v-0.5h-0.4v-169.5c0-35.5 2.6-62.4 7.7-80.6 3.5-12.3 10.9-24 22-35.2 11.1-11.2 26.3-20.3 45.4-27.3 19.1-7 47.3-10.5 84.3-10.5 30.7 0 55.6 3.2 74.7 9.6 19.1 6.4 34.3 15.1 45.7 25.9 11.4 10.8 19.2 24.1 23.4 39.9 4.2 15.7 6.4 42.7 6.4 80.8V523.3h-0.2c-0.1 0.3-0.1 0.5-0.1 0.8z"  horiz-adv-x="1024" />

    
    <glyph glyph-name="arrow_down_b" unicode="&#59106;" d="M455.2 145.1L88.6 510.5c-31.7 31.7-31.7 83.2 0 115s83.2 31.7 115 0l309-307.9 307.9 307.9c31.7 31.7 83.2 31.7 115 0 31.7-31.7 31.7-83.2 0-115L570.1 145.1c-31.6-31.7-83.1-31.7-114.9 0z"  horiz-adv-x="1024" />

    
    <glyph glyph-name="arrow_right_b" unicode="&#59107;" d="M753.3 441.1L387.5 808.2c-31.8 31.8-83.3 31.8-115.1 0s-31.8-83.3 0-115.1l308.3-309.4-308.3-308.3c-31.8-31.8-31.8-83.3 0-115.1 31.8-31.8 83.3-31.8 115.1 0l365.9 365.9c31.8 31.6 31.8 83.2-0.1 114.9z"  horiz-adv-x="1024" />

    
    <glyph glyph-name="arrow_o_b" unicode="&#59108;" d="M513 830.3c-247.2 0-447.7-200.4-447.7-447.7S265.7-65.1 513-65.1s447.7 200.4 447.7 447.7S760.2 830.3 513 830.3zM716.5 347c-2-2-4.1-3.8-6.3-5.4l-215-215c-20.4-20.4-53.4-20.4-73.8 0s-20.4 53.4 0 73.8l183.9 183.9-183.9 184c-20.4 20.4-20.4 53.4 0 73.8s53.4 20.4 73.8 0l215-215c2.2-1.6 4.3-3.4 6.3-5.4 10.3-10.3 15.4-23.8 15.3-37.3 0-13.5-5-27.1-15.3-37.4z"  horiz-adv-x="1024" />

    
    <glyph glyph-name="arrow_left_b" unicode="&#59109;" d="M272.2 441.2L638.1 808.3c31.8 31.8 83.3 31.8 115.1 0 31.8-31.8 31.8-83.3 0-115.1L444.8 383.7l308.3-308.3c31.8-31.8 31.8-83.3 0-115.1-31.8-31.8-83.3-31.8-115.1 0L272.2 326.2c-31.8 31.7-31.8 83.2 0 115z"  horiz-adv-x="1024" />

    
    <glyph glyph-name="back_b" unicode="&#59110;" d="M664.6 610.4H233.7l65.1 63.6c16.3 16.3 16.3 43 0 59.5-16.3 16.3-43 16.3-59.5 0L65 563.1l11.4-11.4-0.2-0.2L253 374.7c16.3-16.3 42.6-16.3 58.9 0 16.3 16.3 16.3 42.6 0 58.9L219 526.5h445.3c116 0 210-94 210-210s-94-210-210-210H328.5c-23.3 0-42-18.8-42-42 0-23.3 18.8-42 42-42h336.1c162.5 0 294.1 131.7 294.1 294.1S827.1 610.4 664.6 610.4z"  horiz-adv-x="1024" />

    
    <glyph glyph-name="arrow_up_b" unicode="&#59111;" d="M455.3 625.3L87.9 259.2c-31.8-31.8-31.8-83.4 0-115.2 31.8-31.8 83.4-31.8 115.2 0l309.6 308.5L821.3 144c31.8-31.8 83.4-31.8 115.2 0 31.8 31.8 31.8 83.4 0 115.2L570.4 625.3c-31.7 31.8-83.3 31.8-115.1 0z"  horiz-adv-x="1024" />

    
    <glyph glyph-name="btn_close_b" unicode="&#59112;" d="M937.3 64L617.2 384.1l316.7 316.7c29.1 29.1 29.1 76.5 0 105.7-29.1 29.1-76.5 29.1-105.7 0L511.5 489.6 191.4 809.7c-29.4 29.4-77.1 29.4-106.5 0s-29.4-77.1 0-106.5L405 383.1 88.2 66.4c-29.1-29.1-29.1-76.5 0-105.7 29.1-29.1 76.5-29.1 105.7 0l316.7 316.7 320.1-320.1c29.4-29.4 77.1-29.4 106.5 0 29.5 29.5 29.5 77.3 0.1 106.7z"  horiz-adv-x="1024" />

    
    </font>
</defs>
</svg>
